<?xml version="1.0" encoding="utf-8" standalone="no"?>
<!DOCTYPE svg PUBLIC "-//W3C//DTD SVG 1.1//EN"
  "http://www.w3.org/Graphics/SVG/1.1/DTD/svg11.dtd">
<svg xmlns:xlink="http://www.w3.org/1999/xlink" width="360pt" height="295.2pt" viewBox="0 0 360 295.2" xmlns="http://www.w3.org/2000/svg" version="1.1">
 <metadata>
  <rdf:RDF xmlns:dc="http://purl.org/dc/elements/1.1/" xmlns:cc="http://creativecommons.org/ns#" xmlns:rdf="http://www.w3.org/1999/02/22-rdf-syntax-ns#">
   <cc:Work>
    <dc:type rdf:resource="http://purl.org/dc/dcmitype/StillImage"/>
    <dc:date>2025-06-14T11:31:08.618703</dc:date>
    <dc:format>image/svg+xml</dc:format>
    <dc:creator>
     <cc:Agent>
      <dc:title>Matplotlib v3.7.3, https://matplotlib.org/</dc:title>
     </cc:Agent>
    </dc:creator>
   </cc:Work>
  </rdf:RDF>
 </metadata>
 <defs>
  <style type="text/css">*{stroke-linejoin: round; stroke-linecap: butt}</style>
 </defs>
 <g id="figure_1">
  <g id="patch_1">
   <path d="M 0 295.2 
L 360 295.2 
L 360 0 
L 0 0 
z
" style="fill: #ffffff"/>
  </g>
  <g id="axes_1">
   <g id="patch_2">
    <path d="M 54 250.92 
L 342 250.92 
L 342 14.76 
L 54 14.76 
z
" style="fill: #ffffff"/>
   </g>
   <g id="matplotlib.axis_1">
    <g id="xtick_1">
     <g id="line2d_1">
      <defs>
       <path id="m8219aa918d" d="M 0 0 
L 0 3.5 
" style="stroke: #000000; stroke-width: 0.8"/>
      </defs>
      <g>
       <use xlink:href="#m8219aa918d" x="67.090909" y="250.92" style="stroke: #000000; stroke-width: 0.8"/>
      </g>
     </g>
     <g id="text_1">
      <!-- 0 -->
      <g transform="translate(63.909659 265.518438) scale(0.1 -0.1)">
       <defs>
        <path id="DejaVuSans-30" d="M 2034 4250 
Q 1547 4250 1301 3770 
Q 1056 3291 1056 2328 
Q 1056 1369 1301 889 
Q 1547 409 2034 409 
Q 2525 409 2770 889 
Q 3016 1369 3016 2328 
Q 3016 3291 2770 3770 
Q 2525 4250 2034 4250 
z
M 2034 4750 
Q 2819 4750 3233 4129 
Q 3647 3509 3647 2328 
Q 3647 1150 3233 529 
Q 2819 -91 2034 -91 
Q 1250 -91 836 529 
Q 422 1150 422 2328 
Q 422 3509 836 4129 
Q 1250 4750 2034 4750 
z
" transform="scale(0.015625)"/>
       </defs>
       <use xlink:href="#DejaVuSans-30"/>
      </g>
     </g>
    </g>
    <g id="xtick_2">
     <g id="line2d_2">
      <g>
       <use xlink:href="#m8219aa918d" x="103.429336" y="250.92" style="stroke: #000000; stroke-width: 0.8"/>
      </g>
     </g>
     <g id="text_2">
      <!-- 100 -->
      <g transform="translate(93.885586 265.518438) scale(0.1 -0.1)">
       <defs>
        <path id="DejaVuSans-31" d="M 794 531 
L 1825 531 
L 1825 4091 
L 703 3866 
L 703 4441 
L 1819 4666 
L 2450 4666 
L 2450 531 
L 3481 531 
L 3481 0 
L 794 0 
L 794 531 
z
" transform="scale(0.015625)"/>
       </defs>
       <use xlink:href="#DejaVuSans-31"/>
       <use xlink:href="#DejaVuSans-30" x="63.623047"/>
       <use xlink:href="#DejaVuSans-30" x="127.246094"/>
      </g>
     </g>
    </g>
    <g id="xtick_3">
     <g id="line2d_3">
      <g>
       <use xlink:href="#m8219aa918d" x="139.767762" y="250.92" style="stroke: #000000; stroke-width: 0.8"/>
      </g>
     </g>
     <g id="text_3">
      <!-- 200 -->
      <g transform="translate(130.224012 265.518438) scale(0.1 -0.1)">
       <defs>
        <path id="DejaVuSans-32" d="M 1228 531 
L 3431 531 
L 3431 0 
L 469 0 
L 469 531 
Q 828 903 1448 1529 
Q 2069 2156 2228 2338 
Q 2531 2678 2651 2914 
Q 2772 3150 2772 3378 
Q 2772 3750 2511 3984 
Q 2250 4219 1831 4219 
Q 1534 4219 1204 4116 
Q 875 4013 500 3803 
L 500 4441 
Q 881 4594 1212 4672 
Q 1544 4750 1819 4750 
Q 2544 4750 2975 4387 
Q 3406 4025 3406 3419 
Q 3406 3131 3298 2873 
Q 3191 2616 2906 2266 
Q 2828 2175 2409 1742 
Q 1991 1309 1228 531 
z
" transform="scale(0.015625)"/>
       </defs>
       <use xlink:href="#DejaVuSans-32"/>
       <use xlink:href="#DejaVuSans-30" x="63.623047"/>
       <use xlink:href="#DejaVuSans-30" x="127.246094"/>
      </g>
     </g>
    </g>
    <g id="xtick_4">
     <g id="line2d_4">
      <g>
       <use xlink:href="#m8219aa918d" x="176.106189" y="250.92" style="stroke: #000000; stroke-width: 0.8"/>
      </g>
     </g>
     <g id="text_4">
      <!-- 300 -->
      <g transform="translate(166.562439 265.518438) scale(0.1 -0.1)">
       <defs>
        <path id="DejaVuSans-33" d="M 2597 2516 
Q 3050 2419 3304 2112 
Q 3559 1806 3559 1356 
Q 3559 666 3084 287 
Q 2609 -91 1734 -91 
Q 1441 -91 1130 -33 
Q 819 25 488 141 
L 488 750 
Q 750 597 1062 519 
Q 1375 441 1716 441 
Q 2309 441 2620 675 
Q 2931 909 2931 1356 
Q 2931 1769 2642 2001 
Q 2353 2234 1838 2234 
L 1294 2234 
L 1294 2753 
L 1863 2753 
Q 2328 2753 2575 2939 
Q 2822 3125 2822 3475 
Q 2822 3834 2567 4026 
Q 2313 4219 1838 4219 
Q 1578 4219 1281 4162 
Q 984 4106 628 3988 
L 628 4550 
Q 988 4650 1302 4700 
Q 1616 4750 1894 4750 
Q 2613 4750 3031 4423 
Q 3450 4097 3450 3541 
Q 3450 3153 3228 2886 
Q 3006 2619 2597 2516 
z
" transform="scale(0.015625)"/>
       </defs>
       <use xlink:href="#DejaVuSans-33"/>
       <use xlink:href="#DejaVuSans-30" x="63.623047"/>
       <use xlink:href="#DejaVuSans-30" x="127.246094"/>
      </g>
     </g>
    </g>
    <g id="xtick_5">
     <g id="line2d_5">
      <g>
       <use xlink:href="#m8219aa918d" x="212.444615" y="250.92" style="stroke: #000000; stroke-width: 0.8"/>
      </g>
     </g>
     <g id="text_5">
      <!-- 400 -->
      <g transform="translate(202.900865 265.518438) scale(0.1 -0.1)">
       <defs>
        <path id="DejaVuSans-34" d="M 2419 4116 
L 825 1625 
L 2419 1625 
L 2419 4116 
z
M 2253 4666 
L 3047 4666 
L 3047 1625 
L 3713 1625 
L 3713 1100 
L 3047 1100 
L 3047 0 
L 2419 0 
L 2419 1100 
L 313 1100 
L 313 1709 
L 2253 4666 
z
" transform="scale(0.015625)"/>
       </defs>
       <use xlink:href="#DejaVuSans-34"/>
       <use xlink:href="#DejaVuSans-30" x="63.623047"/>
       <use xlink:href="#DejaVuSans-30" x="127.246094"/>
      </g>
     </g>
    </g>
    <g id="xtick_6">
     <g id="line2d_6">
      <g>
       <use xlink:href="#m8219aa918d" x="248.783042" y="250.92" style="stroke: #000000; stroke-width: 0.8"/>
      </g>
     </g>
     <g id="text_6">
      <!-- 500 -->
      <g transform="translate(239.239292 265.518438) scale(0.1 -0.1)">
       <defs>
        <path id="DejaVuSans-35" d="M 691 4666 
L 3169 4666 
L 3169 4134 
L 1269 4134 
L 1269 2991 
Q 1406 3038 1543 3061 
Q 1681 3084 1819 3084 
Q 2600 3084 3056 2656 
Q 3513 2228 3513 1497 
Q 3513 744 3044 326 
Q 2575 -91 1722 -91 
Q 1428 -91 1123 -41 
Q 819 9 494 109 
L 494 744 
Q 775 591 1075 516 
Q 1375 441 1709 441 
Q 2250 441 2565 725 
Q 2881 1009 2881 1497 
Q 2881 1984 2565 2268 
Q 2250 2553 1709 2553 
Q 1456 2553 1204 2497 
Q 953 2441 691 2322 
L 691 4666 
z
" transform="scale(0.015625)"/>
       </defs>
       <use xlink:href="#DejaVuSans-35"/>
       <use xlink:href="#DejaVuSans-30" x="63.623047"/>
       <use xlink:href="#DejaVuSans-30" x="127.246094"/>
      </g>
     </g>
    </g>
    <g id="xtick_7">
     <g id="line2d_7">
      <g>
       <use xlink:href="#m8219aa918d" x="285.121469" y="250.92" style="stroke: #000000; stroke-width: 0.8"/>
      </g>
     </g>
     <g id="text_7">
      <!-- 600 -->
      <g transform="translate(275.577719 265.518438) scale(0.1 -0.1)">
       <defs>
        <path id="DejaVuSans-36" d="M 2113 2584 
Q 1688 2584 1439 2293 
Q 1191 2003 1191 1497 
Q 1191 994 1439 701 
Q 1688 409 2113 409 
Q 2538 409 2786 701 
Q 3034 994 3034 1497 
Q 3034 2003 2786 2293 
Q 2538 2584 2113 2584 
z
M 3366 4563 
L 3366 3988 
Q 3128 4100 2886 4159 
Q 2644 4219 2406 4219 
Q 1781 4219 1451 3797 
Q 1122 3375 1075 2522 
Q 1259 2794 1537 2939 
Q 1816 3084 2150 3084 
Q 2853 3084 3261 2657 
Q 3669 2231 3669 1497 
Q 3669 778 3244 343 
Q 2819 -91 2113 -91 
Q 1303 -91 875 529 
Q 447 1150 447 2328 
Q 447 3434 972 4092 
Q 1497 4750 2381 4750 
Q 2619 4750 2861 4703 
Q 3103 4656 3366 4563 
z
" transform="scale(0.015625)"/>
       </defs>
       <use xlink:href="#DejaVuSans-36"/>
       <use xlink:href="#DejaVuSans-30" x="63.623047"/>
       <use xlink:href="#DejaVuSans-30" x="127.246094"/>
      </g>
     </g>
    </g>
    <g id="xtick_8">
     <g id="line2d_8">
      <g>
       <use xlink:href="#m8219aa918d" x="321.459895" y="250.92" style="stroke: #000000; stroke-width: 0.8"/>
      </g>
     </g>
     <g id="text_8">
      <!-- 700 -->
      <g transform="translate(311.916145 265.518438) scale(0.1 -0.1)">
       <defs>
        <path id="DejaVuSans-37" d="M 525 4666 
L 3525 4666 
L 3525 4397 
L 1831 0 
L 1172 0 
L 2766 4134 
L 525 4134 
L 525 4666 
z
" transform="scale(0.015625)"/>
       </defs>
       <use xlink:href="#DejaVuSans-37"/>
       <use xlink:href="#DejaVuSans-30" x="63.623047"/>
       <use xlink:href="#DejaVuSans-30" x="127.246094"/>
      </g>
     </g>
    </g>
    <g id="text_9">
     <!-- z ($\AA$) -->
     <g transform="translate(180.675 284.528594) scale(0.15 -0.15)">
      <defs>
       <path id="DejaVuSans-7a" d="M 353 3500 
L 3084 3500 
L 3084 2975 
L 922 459 
L 3084 459 
L 3084 0 
L 275 0 
L 275 525 
L 2438 3041 
L 353 3041 
L 353 3500 
z
" transform="scale(0.015625)"/>
       <path id="DejaVuSans-20" transform="scale(0.015625)"/>
       <path id="DejaVuSans-28" d="M 1984 4856 
Q 1566 4138 1362 3434 
Q 1159 2731 1159 2009 
Q 1159 1288 1364 580 
Q 1569 -128 1984 -844 
L 1484 -844 
Q 1016 -109 783 600 
Q 550 1309 550 2009 
Q 550 2706 781 3412 
Q 1013 4119 1484 4856 
L 1984 4856 
z
" transform="scale(0.015625)"/>
       <path id="DejaVuSans-Oblique-c5" d="M 3188 5081 
Q 3188 5278 3048 5417 
Q 2909 5556 2713 5556 
Q 2513 5556 2377 5420 
Q 2241 5284 2241 5081 
Q 2241 4884 2377 4746 
Q 2513 4609 2713 4609 
Q 2909 4609 3048 4746 
Q 3188 4884 3188 5081 
z
M 2203 4397 
Q 2034 4513 1945 4689 
Q 1856 4866 1856 5081 
Q 1856 5438 2106 5689 
Q 2356 5941 2713 5941 
Q 3069 5941 3320 5689 
Q 3572 5438 3572 5081 
Q 3572 4834 3458 4643 
Q 3344 4453 3128 4341 
L 3938 0 
L 3278 0 
L 3084 1197 
L 984 1197 
L 325 0 
L -341 0 
L 2203 4397 
z
M 2584 4044 
L 1275 1722 
L 2988 1722 
L 2584 4044 
z
" transform="scale(0.015625)"/>
       <path id="DejaVuSans-29" d="M 513 4856 
L 1013 4856 
Q 1481 4119 1714 3412 
Q 1947 2706 1947 2009 
Q 1947 1309 1714 600 
Q 1481 -109 1013 -844 
L 513 -844 
Q 928 -128 1133 580 
Q 1338 1288 1338 2009 
Q 1338 2731 1133 3434 
Q 928 4138 513 4856 
z
" transform="scale(0.015625)"/>
      </defs>
      <use xlink:href="#DejaVuSans-7a" transform="translate(0 0.171875)"/>
      <use xlink:href="#DejaVuSans-20" transform="translate(52.490234 0.171875)"/>
      <use xlink:href="#DejaVuSans-28" transform="translate(84.277344 0.171875)"/>
      <use xlink:href="#DejaVuSans-Oblique-c5" transform="translate(123.291016 0.171875)"/>
      <use xlink:href="#DejaVuSans-29" transform="translate(191.699219 0.171875)"/>
     </g>
    </g>
   </g>
   <g id="matplotlib.axis_2">
    <g id="ytick_1">
     <g id="line2d_9">
      <defs>
       <path id="m8c966c20d6" d="M 0 0 
L -3.5 0 
" style="stroke: #000000; stroke-width: 0.8"/>
      </defs>
      <g>
       <use xlink:href="#m8c966c20d6" x="54" y="231.310964" style="stroke: #000000; stroke-width: 0.8"/>
      </g>
     </g>
     <g id="text_10">
      <!-- −1 -->
      <g transform="translate(32.257812 235.110183) scale(0.1 -0.1)">
       <defs>
        <path id="DejaVuSans-2212" d="M 678 2272 
L 4684 2272 
L 4684 1741 
L 678 1741 
L 678 2272 
z
" transform="scale(0.015625)"/>
       </defs>
       <use xlink:href="#DejaVuSans-2212"/>
       <use xlink:href="#DejaVuSans-31" x="83.789062"/>
      </g>
     </g>
    </g>
    <g id="ytick_2">
     <g id="line2d_10">
      <g>
       <use xlink:href="#m8c966c20d6" x="54" y="203.150495" style="stroke: #000000; stroke-width: 0.8"/>
      </g>
     </g>
     <g id="text_11">
      <!-- 0 -->
      <g transform="translate(40.6375 206.949714) scale(0.1 -0.1)">
       <use xlink:href="#DejaVuSans-30"/>
      </g>
     </g>
    </g>
    <g id="ytick_3">
     <g id="line2d_11">
      <g>
       <use xlink:href="#m8c966c20d6" x="54" y="174.990027" style="stroke: #000000; stroke-width: 0.8"/>
      </g>
     </g>
     <g id="text_12">
      <!-- 1 -->
      <g transform="translate(40.6375 178.789245) scale(0.1 -0.1)">
       <use xlink:href="#DejaVuSans-31"/>
      </g>
     </g>
    </g>
    <g id="ytick_4">
     <g id="line2d_12">
      <g>
       <use xlink:href="#m8c966c20d6" x="54" y="146.829558" style="stroke: #000000; stroke-width: 0.8"/>
      </g>
     </g>
     <g id="text_13">
      <!-- 2 -->
      <g transform="translate(40.6375 150.628776) scale(0.1 -0.1)">
       <use xlink:href="#DejaVuSans-32"/>
      </g>
     </g>
    </g>
    <g id="ytick_5">
     <g id="line2d_13">
      <g>
       <use xlink:href="#m8c966c20d6" x="54" y="118.669089" style="stroke: #000000; stroke-width: 0.8"/>
      </g>
     </g>
     <g id="text_14">
      <!-- 3 -->
      <g transform="translate(40.6375 122.468308) scale(0.1 -0.1)">
       <use xlink:href="#DejaVuSans-33"/>
      </g>
     </g>
    </g>
    <g id="ytick_6">
     <g id="line2d_14">
      <g>
       <use xlink:href="#m8c966c20d6" x="54" y="90.50862" style="stroke: #000000; stroke-width: 0.8"/>
      </g>
     </g>
     <g id="text_15">
      <!-- 4 -->
      <g transform="translate(40.6375 94.307839) scale(0.1 -0.1)">
       <use xlink:href="#DejaVuSans-34"/>
      </g>
     </g>
    </g>
    <g id="ytick_7">
     <g id="line2d_15">
      <g>
       <use xlink:href="#m8c966c20d6" x="54" y="62.348151" style="stroke: #000000; stroke-width: 0.8"/>
      </g>
     </g>
     <g id="text_16">
      <!-- 5 -->
      <g transform="translate(40.6375 66.14737) scale(0.1 -0.1)">
       <use xlink:href="#DejaVuSans-35"/>
      </g>
     </g>
    </g>
    <g id="ytick_8">
     <g id="line2d_16">
      <g>
       <use xlink:href="#m8c966c20d6" x="54" y="34.187682" style="stroke: #000000; stroke-width: 0.8"/>
      </g>
     </g>
     <g id="text_17">
      <!-- 6 -->
      <g transform="translate(40.6375 37.986901) scale(0.1 -0.1)">
       <use xlink:href="#DejaVuSans-36"/>
      </g>
     </g>
    </g>
    <g id="text_18">
     <!-- SLD ($10^{-6}/{\AA}^2$) -->
     <g transform="translate(25.138281 185.34) rotate(-90) scale(0.15 -0.15)">
      <defs>
       <path id="DejaVuSans-53" d="M 3425 4513 
L 3425 3897 
Q 3066 4069 2747 4153 
Q 2428 4238 2131 4238 
Q 1616 4238 1336 4038 
Q 1056 3838 1056 3469 
Q 1056 3159 1242 3001 
Q 1428 2844 1947 2747 
L 2328 2669 
Q 3034 2534 3370 2195 
Q 3706 1856 3706 1288 
Q 3706 609 3251 259 
Q 2797 -91 1919 -91 
Q 1588 -91 1214 -16 
Q 841 59 441 206 
L 441 856 
Q 825 641 1194 531 
Q 1563 422 1919 422 
Q 2459 422 2753 634 
Q 3047 847 3047 1241 
Q 3047 1584 2836 1778 
Q 2625 1972 2144 2069 
L 1759 2144 
Q 1053 2284 737 2584 
Q 422 2884 422 3419 
Q 422 4038 858 4394 
Q 1294 4750 2059 4750 
Q 2388 4750 2728 4690 
Q 3069 4631 3425 4513 
z
" transform="scale(0.015625)"/>
       <path id="DejaVuSans-4c" d="M 628 4666 
L 1259 4666 
L 1259 531 
L 3531 531 
L 3531 0 
L 628 0 
L 628 4666 
z
" transform="scale(0.015625)"/>
       <path id="DejaVuSans-44" d="M 1259 4147 
L 1259 519 
L 2022 519 
Q 2988 519 3436 956 
Q 3884 1394 3884 2338 
Q 3884 3275 3436 3711 
Q 2988 4147 2022 4147 
L 1259 4147 
z
M 628 4666 
L 1925 4666 
Q 3281 4666 3915 4102 
Q 4550 3538 4550 2338 
Q 4550 1131 3912 565 
Q 3275 0 1925 0 
L 628 0 
L 628 4666 
z
" transform="scale(0.015625)"/>
       <path id="DejaVuSans-2f" d="M 1625 4666 
L 2156 4666 
L 531 -594 
L 0 -594 
L 1625 4666 
z
" transform="scale(0.015625)"/>
      </defs>
      <use xlink:href="#DejaVuSans-53" transform="translate(0 0.171875)"/>
      <use xlink:href="#DejaVuSans-4c" transform="translate(63.476562 0.171875)"/>
      <use xlink:href="#DejaVuSans-44" transform="translate(119.189453 0.171875)"/>
      <use xlink:href="#DejaVuSans-20" transform="translate(196.191406 0.171875)"/>
      <use xlink:href="#DejaVuSans-28" transform="translate(227.978516 0.171875)"/>
      <use xlink:href="#DejaVuSans-31" transform="translate(266.992188 0.171875)"/>
      <use xlink:href="#DejaVuSans-30" transform="translate(330.615234 0.171875)"/>
      <use xlink:href="#DejaVuSans-2212" transform="translate(395.195312 38.453125) scale(0.7)"/>
      <use xlink:href="#DejaVuSans-36" transform="translate(453.847656 38.453125) scale(0.7)"/>
      <use xlink:href="#DejaVuSans-2f" transform="translate(501.118164 0.171875)"/>
      <use xlink:href="#DejaVuSans-Oblique-c5" transform="translate(534.80957 0.171875)"/>
      <use xlink:href="#DejaVuSans-32" transform="translate(613.023607 38.453125) scale(0.7)"/>
      <use xlink:href="#DejaVuSans-29" transform="translate(660.294115 0.171875)"/>
     </g>
    </g>
   </g>
   <g id="line2d_17">
    <path d="M 290.426806 37.522445 
L 288.182218 37.714781 
L 287.059906 38.006242 
L 285.93763 38.565509 
L 284.815354 39.538453 
L 283.693041 41.071227 
L 282.570754 43.257043 
L 281.448464 46.079003 
L 276.959298 58.933413 
L 275.837001 60.969133 
L 274.714725 62.1392 
L 273.592412 62.424748 
L 272.470136 61.855906 
L 271.34786 60.476043 
L 270.225548 58.33275 
L 269.103272 55.493893 
L 267.98096 52.073522 
L 263.49182 36.69509 
L 262.369507 33.569278 
L 261.247231 31.033991 
L 260.124919 29.103873 
L 259.002643 27.724573 
L 257.880331 26.79922 
L 256.758055 26.21658 
L 255.635779 25.871896 
L 253.391191 25.58128 
L 248.902014 25.496798 
L 159.118701 25.494545 
L 98.514927 25.513695 
L 97.392796 25.695893 
L 96.270302 26.937206 
L 95.148172 32.642799 
L 94.025678 50.336021 
L 92.903547 87.376049 
L 90.658922 189.764473 
L 89.536792 222.012434 
L 88.414298 235.981097 
L 87.292167 239.851753 
L 86.169673 240.026066 
L 85.047543 238.741104 
L 83.925049 236.065296 
L 82.802918 231.451204 
L 81.680787 224.373943 
L 80.558293 214.686094 
L 78.313669 189.941405 
L 77.191538 177.377105 
L 76.069044 166.461629 
L 74.946914 157.997436 
L 73.82442 152.139214 
L 72.702289 148.520594 
L 71.580158 146.525143 
L 70.457664 145.543188 
L 69.335534 145.111769 
L 68.21304 144.989834 
L 67.090909 144.989834 
L 67.090909 144.989834 
" clip-path="url(#pce484df251)" style="fill: none; stroke: #440154; stroke-linecap: square"/>
   </g>
   <g id="line2d_18">
    <path d="M 292.425601 37.5216 
L 290.160918 37.604673 
L 289.028613 37.762654 
L 287.896271 38.078051 
L 286.763929 38.653651 
L 285.631587 39.615049 
L 284.499246 41.081928 
L 283.366926 43.129194 
L 282.234591 45.73967 
L 277.705254 57.829241 
L 276.572926 59.901006 
L 275.440585 61.205681 
L 274.308243 61.696236 
L 273.175901 61.380276 
L 272.043596 60.289058 
L 270.911254 58.464259 
L 269.778912 55.963328 
L 268.646571 52.879757 
L 266.381924 45.580845 
L 264.11724 38.173797 
L 262.984899 34.950549 
L 261.852557 32.234472 
L 260.720251 30.077099 
L 259.58791 28.462096 
L 258.455568 27.32216 
L 257.323226 26.563798 
L 256.190885 26.088168 
L 255.058579 25.807127 
L 252.793896 25.568326 
L 248.264565 25.496798 
L 157.677883 25.494545 
L 98.79655 25.505246 
L 97.663881 25.619578 
L 96.531576 26.481851 
L 95.39927 30.841655 
L 94.266965 45.614356 
L 93.134659 79.17037 
L 90.870049 182.55207 
L 89.737743 218.373679 
L 88.605438 234.782869 
L 87.473133 239.634354 
L 86.340827 240.101255 
L 85.208522 238.958503 
L 84.076216 236.442928 
L 82.943548 232.022298 
L 81.811242 225.136275 
L 80.678937 215.583765 
L 79.546632 203.779989 
L 77.282021 178.050535 
L 76.149715 166.926558 
L 75.01741 158.272846 
L 73.885105 152.276637 
L 72.752799 148.575788 
L 71.620494 146.541195 
L 70.488189 145.544877 
L 69.35552 145.11008 
L 68.223214 144.986455 
L 67.090909 144.986455 
L 67.090909 144.986455 
" clip-path="url(#pce484df251)" style="fill: none; stroke: #471063; stroke-linecap: square"/>
   </g>
   <g id="line2d_19">
    <path d="M 294.533048 37.520755 
L 292.247216 37.593973 
L 291.1043 37.729988 
L 289.961347 37.996386 
L 288.818431 38.476522 
L 287.675515 39.274589 
L 286.532599 40.496754 
L 285.389646 42.222146 
L 284.246734 44.466253 
L 281.960883 50.116088 
L 279.675032 55.874059 
L 278.532105 58.171954 
L 277.389196 59.835956 
L 276.246244 60.773418 
L 275.103328 60.955616 
L 273.960412 60.391562 
L 272.817459 59.108852 
L 271.674543 57.150573 
L 270.531627 54.581494 
L 269.38871 51.502428 
L 263.674057 34.43127 
L 262.531141 31.899926 
L 261.388224 29.886452 
L 260.245308 28.371137 
L 259.102356 27.291747 
L 257.95944 26.564925 
L 256.816523 26.101404 
L 255.673607 25.822052 
L 253.387738 25.576492 
L 248.816037 25.497362 
L 172.240144 25.494545 
L 97.949864 25.569171 
L 96.807021 26.148713 
L 95.663814 29.39111 
L 94.52097 41.451675 
L 93.378127 71.313036 
L 92.235283 120.538381 
L 91.09244 174.587895 
L 89.949233 214.107114 
L 88.806389 233.294025 
L 87.663546 239.3336 
L 86.520702 240.155041 
L 85.377495 239.16323 
L 84.234652 236.807043 
L 83.091808 232.58072 
L 81.948965 225.890637 
L 80.806121 216.480113 
L 79.662915 204.715274 
L 77.377228 178.727991 
L 76.234384 167.391206 
L 75.091177 158.544876 
L 73.948334 152.408991 
L 72.80549 148.626477 
L 71.662647 146.553867 
L 70.519803 145.544596 
L 69.376596 145.107545 
L 68.233753 144.987018 
L 67.090909 144.987018 
L 67.090909 144.987018 
" clip-path="url(#pce484df251)" style="fill: none; stroke: #481d6f; stroke-linecap: square"/>
   </g>
   <g id="line2d_20">
    <path d="M 297.294987 37.51991 
L 293.824558 37.613685 
L 292.667761 37.761246 
L 291.510963 38.0375 
L 290.354166 38.519044 
L 289.197368 39.296836 
L 288.040534 40.462116 
L 286.883737 42.081625 
L 285.726943 44.16916 
L 284.570142 46.66277 
L 281.099731 54.887035 
L 279.942927 57.15001 
L 278.786118 58.862448 
L 277.629321 59.920437 
L 276.472523 60.278638 
L 275.315726 59.930293 
L 274.158892 58.893425 
L 273.002095 57.202389 
L 271.845297 54.912098 
L 270.6885 52.107315 
L 268.374905 45.478341 
L 266.061273 38.643513 
L 264.904476 35.585568 
L 263.747678 32.938202 
L 262.590881 30.763651 
L 261.434084 29.068391 
L 260.27725 27.814405 
L 259.120452 26.93439 
L 257.963655 26.348089 
L 256.806857 25.977497 
L 254.493262 25.628589 
L 251.022834 25.508062 
L 233.670617 25.494545 
L 98.324877 25.524677 
L 97.167861 25.809379 
L 96.011209 27.690217 
L 94.854194 35.878718 
L 93.697542 59.377785 
L 92.54089 103.836688 
L 91.383874 159.322668 
L 90.227222 205.003136 
L 89.070206 229.774952 
L 87.913554 238.507654 
L 86.756539 240.181794 
L 85.599887 239.511575 
L 84.443235 237.474728 
L 83.286219 233.66518 
L 82.129567 227.444757 
L 80.972551 218.447487 
L 79.815899 206.913241 
L 76.34558 168.833585 
L 75.188564 159.516131 
L 74.031912 152.983465 
L 72.874896 148.924415 
L 71.718244 146.689037 
L 70.561592 145.597819 
L 69.404577 145.125849 
L 68.247925 144.988426 
L 67.090909 144.988426 
L 67.090909 144.988426 
" clip-path="url(#pce484df251)" style="fill: none; stroke: #472a7a; stroke-linecap: square"/>
   </g>
   <g id="line2d_21">
    <path d="M 298.857357 37.519347 
L 296.528064 37.594254 
L 294.198735 37.938093 
L 293.034088 38.325581 
L 291.869442 38.952152 
L 290.704759 39.898344 
L 289.540112 41.232305 
L 288.375466 42.987547 
L 287.210808 45.142386 
L 284.881498 50.235207 
L 282.552186 55.202714 
L 281.387532 57.168033 
L 280.222867 58.597177 
L 279.05822 59.409888 
L 277.893574 59.570402 
L 276.728891 59.07506 
L 275.564244 57.940474 
L 274.399598 56.201284 
L 273.234951 53.914654 
L 272.070268 51.165347 
L 269.740975 44.783059 
L 267.411646 38.280806 
L 266.246999 35.375209 
L 265.082353 32.851186 
L 263.917706 30.763932 
L 262.753023 29.120769 
L 261.588376 27.889593 
L 260.42373 27.010987 
L 259.259083 26.414548 
L 258.0944 26.02875 
L 255.765107 25.652244 
L 252.271131 25.512568 
L 238.295409 25.494545 
L 98.53673 25.513695 
L 97.372083 25.711944 
L 96.207437 27.137427 
L 95.04279 33.845533 
L 93.878144 54.534747 
L 92.713134 96.37867 
L 91.548487 151.898724 
L 90.383841 200.228734 
L 89.219194 227.79758 
L 88.054547 238.001329 
L 86.889901 240.156168 
L 85.725254 239.642239 
L 84.560608 237.735212 
L 83.395961 234.091247 
L 82.231315 228.05567 
L 81.066668 219.217029 
L 79.902021 207.763997 
L 76.408082 169.346387 
L 75.243435 159.843355 
L 74.078789 153.16341 
L 72.914142 149.008333 
L 71.749495 146.721422 
L 70.584849 145.607675 
L 69.420202 145.127821 
L 68.255556 144.987581 
L 67.090909 144.987581 
L 67.090909 144.987581 
" clip-path="url(#pce484df251)" style="fill: none; stroke: #453781; stroke-linecap: square"/>
   </g>
   <g id="line2d_22">
    <path d="M 301.873665 37.518502 
L 298.334229 37.616219 
L 295.974594 37.988501 
L 294.794794 38.389224 
L 293.614958 39.019737 
L 292.435158 39.950722 
L 291.255359 41.239345 
L 290.075523 42.912077 
L 288.895719 44.946953 
L 286.536096 49.73733 
L 284.176473 54.458151 
L 282.996659 56.367994 
L 281.816852 57.796856 
L 280.637052 58.661664 
L 279.457216 58.918769 
L 278.277417 58.555499 
L 277.097617 57.58171 
L 275.917781 56.025844 
L 274.737981 53.936337 
L 273.558182 51.387815 
L 271.198546 45.359222 
L 268.83891 39.047053 
L 267.65911 36.153846 
L 266.479311 33.590399 
L 265.299475 31.423732 
L 264.119675 29.676375 
L 262.939875 28.331713 
L 261.760039 27.344407 
L 260.58024 26.652786 
L 259.40044 26.190391 
L 258.220604 25.895551 
L 255.860968 25.611693 
L 252.321533 25.507781 
L 233.444592 25.494545 
L 97.766355 25.593952 
L 96.586447 26.378503 
L 95.406538 30.709583 
L 94.226629 46.204881 
L 93.047084 82.164673 
L 90.687266 189.285182 
L 89.507358 222.879776 
L 88.327812 236.623437 
L 87.147904 240.012268 
L 85.967995 239.871747 
L 84.788086 238.2314 
L 83.608541 234.927895 
L 82.428632 229.289578 
L 81.248723 220.81277 
L 80.069178 209.573194 
L 76.529452 170.523776 
L 75.349907 160.617487 
L 74.169998 153.60384 
L 72.990089 149.223761 
L 71.810181 146.810972 
L 70.630635 145.638652 
L 69.450727 145.136269 
L 68.270818 144.987863 
L 67.090909 144.987863 
L 67.090909 144.987863 
" clip-path="url(#pce484df251)" style="fill: none; stroke: #414487; stroke-linecap: square"/>
   </g>
   <g id="line2d_23">
    <path d="M 302.127852 37.517658 
L 299.765673 37.615938 
L 297.403493 37.958932 
L 296.222385 38.317978 
L 295.041314 38.875837 
L 293.860206 39.692491 
L 292.679135 40.820599 
L 291.498027 42.289449 
L 290.316951 44.092282 
L 287.954772 48.444483 
L 285.592589 52.975784 
L 284.411499 54.93716 
L 283.230417 56.518089 
L 282.049309 57.623106 
L 280.868237 58.191384 
L 279.68713 58.193637 
L 278.506058 57.623669 
L 277.32495 56.494998 
L 276.143879 54.839162 
L 274.962771 52.707696 
L 273.781699 50.177478 
L 271.41952 44.350514 
L 269.05734 38.380213 
L 267.876232 35.66667 
L 266.695161 33.265427 
L 265.514053 31.232241 
L 264.332981 29.58429 
L 263.151874 28.306087 
L 261.970802 27.357079 
L 260.789694 26.682636 
L 259.608623 26.22362 
L 257.246443 25.738697 
L 254.884264 25.564383 
L 248.978906 25.495953 
L 100.161421 25.494827 
L 97.799423 25.587475 
L 96.618061 26.332883 
L 95.437062 30.501477 
L 94.256063 45.606189 
L 93.075064 81.060219 
L 90.712703 188.321615 
L 89.531704 222.420451 
L 88.350706 236.48883 
L 87.169343 239.993963 
L 85.988344 239.88808 
L 84.807346 238.268853 
L 83.626347 234.992664 
L 82.444984 229.385689 
L 81.263986 220.939013 
L 80.082987 209.71701 
L 76.539627 170.617832 
L 75.358628 160.67944 
L 74.177629 153.638478 
L 72.996267 149.240657 
L 71.815268 146.81773 
L 70.634269 145.640904 
L 69.45327 145.136832 
L 68.271908 144.987863 
L 67.090909 144.987863 
L 67.090909 144.987863 
" clip-path="url(#pce484df251)" style="fill: none; stroke: #3c4f8a; stroke-linecap: square"/>
   </g>
   <g id="line2d_24">
    <path d="M 304.962068 37.516813 
L 301.376083 37.593128 
L 298.985414 37.871916 
L 297.790098 38.163659 
L 296.594745 38.619295 
L 295.399429 39.292049 
L 294.204077 40.23289 
L 293.00876 41.477583 
L 291.813408 43.035702 
L 290.618081 44.880494 
L 284.641416 55.032343 
L 283.446085 56.375034 
L 282.250733 57.251106 
L 281.055417 57.612687 
L 279.860064 57.436402 
L 278.664748 56.720845 
L 277.469432 55.482066 
L 276.274079 53.754702 
L 275.078763 51.593668 
L 272.688094 46.307666 
L 269.102073 37.699574 
L 267.906757 35.13134 
L 266.711404 32.867238 
L 265.516088 30.953452 
L 264.320735 29.402092 
L 263.125419 28.196261 
L 261.930067 27.297379 
L 260.73475 26.654757 
L 259.539398 26.214327 
L 257.148729 25.742076 
L 254.758097 25.567763 
L 248.781588 25.496235 
L 99.364883 25.49708 
L 98.169348 25.53566 
L 96.974178 25.932441 
L 95.778643 28.53137 
L 94.583472 39.445242 
L 93.387938 68.839702 
L 92.192767 119.652734 
L 90.997233 176.050015 
L 89.802062 216.228076 
L 88.606891 234.537309 
L 87.411357 239.686451 
L 86.216186 240.053382 
L 85.020652 238.697174 
L 83.825481 235.746801 
L 82.629947 230.538185 
L 81.434776 222.479194 
L 80.239242 211.517224 
L 76.653366 171.886461 
L 75.458195 161.533828 
L 74.262661 154.137481 
L 73.06749 149.491567 
L 71.871956 146.925867 
L 70.676785 145.680329 
L 69.481251 145.148941 
L 68.28608 144.990116 
L 67.090909 144.990116 
L 67.090909 144.990116 
" clip-path="url(#pce484df251)" style="fill: none; stroke: #375a8c; stroke-linecap: square"/>
   </g>
   <g id="line2d_25">
    <path d="M 306.670192 37.51625 
L 303.058443 37.584961 
L 300.650622 37.831365 
L 299.446694 38.085373 
L 298.242766 38.479901 
L 297.038874 39.061696 
L 295.834945 39.876379 
L 294.631017 40.960275 
L 293.427125 42.329719 
L 292.223193 43.972882 
L 289.815361 47.860998 
L 287.40753 51.898927 
L 286.203616 53.677543 
L 284.999699 55.148082 
L 283.79577 56.224094 
L 282.591878 56.845314 
L 281.38795 56.975415 
L 280.184021 56.599473 
L 278.980129 55.720866 
L 277.776201 54.359871 
L 276.572272 52.554785 
L 275.36838 50.364464 
L 272.960523 45.165759 
L 269.348811 36.959799 
L 268.144882 34.549544 
L 266.940954 32.433567 
L 265.737062 30.648474 
L 264.533134 29.201308 
L 263.329205 28.074044 
L 262.125313 27.230075 
L 260.921385 26.622654 
L 259.717456 26.202781 
L 257.309636 25.745455 
L 254.901815 25.571424 
L 248.882246 25.496517 
L 128.490495 25.494545 
L 98.39283 25.520453 
L 97.188938 25.795299 
L 95.985046 27.765969 
L 94.781154 36.760986 
L 93.577261 62.929665 
L 92.373006 111.47944 
L 91.169114 168.953549 
L 89.965222 212.364629 
L 88.76133 233.231508 
L 87.557438 239.446524 
L 86.353546 240.115335 
L 85.149654 238.89655 
L 83.945761 236.104439 
L 82.741869 231.090327 
L 81.537977 223.220856 
L 80.334085 212.383863 
L 76.722409 172.472481 
L 75.518517 161.915403 
L 74.314262 154.349248 
L 73.110369 149.59041 
L 71.906477 146.963883 
L 70.702585 145.691593 
L 69.498693 145.150912 
L 68.294801 144.988989 
L 67.090909 144.988989 
L 67.090909 144.988989 
" clip-path="url(#pce484df251)" style="fill: none; stroke: #32648e; stroke-linecap: square"/>
   </g>
   <g id="line2d_26">
    <path d="M 309.649761 37.515405 
L 303.555335 37.615093 
L 301.117535 37.903738 
L 299.898635 38.188722 
L 298.679772 38.617887 
L 297.460872 39.233757 
L 296.241972 40.075473 
L 295.023108 41.172042 
L 293.804209 42.531629 
L 292.585316 44.137057 
L 290.147534 47.863251 
L 287.709757 51.666885 
L 286.490868 53.32779 
L 285.271982 54.694136 
L 284.053082 55.687355 
L 282.834183 56.25141 
L 281.615319 56.351379 
L 280.396419 55.972058 
L 279.177519 55.115698 
L 277.958656 53.800604 
L 276.739756 52.063103 
L 275.520856 49.958108 
L 273.083093 44.963286 
L 269.42643 37.033298 
L 268.20753 34.680209 
L 266.98863 32.59915 
L 265.76973 30.827575 
L 264.550867 29.376466 
L 263.331967 28.232306 
L 262.113067 27.364119 
L 260.894204 26.729945 
L 259.675304 26.283883 
L 257.237504 25.785725 
L 254.799741 25.588038 
L 249.924069 25.500741 
L 208.48191 25.494545 
L 98.782014 25.50581 
L 97.56286 25.647457 
L 96.344069 26.83611 
L 95.125278 33.117584 
L 93.906488 54.023635 
L 92.687333 97.930312 
L 91.468543 156.12392 
L 90.249752 204.812909 
L 89.030961 230.486707 
L 87.811807 238.879935 
L 86.593016 240.177288 
L 85.374225 239.202654 
L 84.155071 236.671591 
L 82.93628 231.982873 
L 81.717489 224.439162 
L 80.498698 213.826523 
L 75.623172 162.562248 
L 74.404017 154.705759 
L 73.185227 149.754304 
L 71.966436 147.024991 
L 70.747282 145.708771 
L 69.528491 145.153728 
L 68.3097 144.986173 
L 67.090909 144.986173 
L 67.090909 144.986173 
" clip-path="url(#pce484df251)" style="fill: none; stroke: #2e6f8e; stroke-linecap: square"/>
   </g>
   <g id="line2d_27">
    <path d="M 311.030839 37.51456 
L 306.127514 37.583835 
L 303.675869 37.802642 
L 302.450029 38.02004 
L 301.224188 38.350926 
L 299.998384 38.831625 
L 298.772544 39.49931 
L 297.546703 40.385801 
L 296.320899 41.509686 
L 295.095058 42.870963 
L 292.643396 46.182071 
L 288.965911 51.550864 
L 287.740085 53.073501 
L 286.514248 54.312561 
L 285.288444 55.19849 
L 284.062603 55.68116 
L 282.836763 55.729596 
L 281.610959 55.329154 
L 280.385118 54.482087 
L 279.159278 53.205292 
L 277.933473 51.532841 
L 276.707633 49.515989 
L 274.255952 44.740818 
L 270.578467 37.123693 
L 269.352663 34.838752 
L 268.126822 32.800779 
L 266.900982 31.048072 
L 265.675178 29.59471 
L 264.449337 28.432809 
L 263.223497 27.536743 
L 261.997693 26.870466 
L 260.771852 26.392583 
L 258.320207 25.842046 
L 255.868526 25.612256 
L 250.965165 25.503557 
L 219.093821 25.494545 
L 97.736558 25.599866 
L 96.510863 26.496495 
L 95.285168 31.611563 
L 94.059109 49.910517 
L 92.833414 90.991572 
L 91.607355 148.902731 
L 90.38166 200.181763 
L 89.155965 228.662106 
L 87.929907 238.462315 
L 86.704211 240.185455 
L 85.478516 239.358945 
L 84.252458 236.977132 
L 83.026763 232.481877 
L 81.801068 225.147877 
L 80.575009 214.699442 
L 78.123255 187.569899 
L 76.89756 174.159293 
L 75.671865 163.04154 
L 74.445807 154.991588 
L 73.220112 149.900738 
L 71.994416 147.088916 
L 70.768358 145.732426 
L 69.542663 145.16105 
L 68.316968 144.987863 
L 67.090909 144.987863 
L 67.090909 144.987863 
" clip-path="url(#pce484df251)" style="fill: none; stroke: #2a788e; stroke-linecap: square"/>
   </g>
   <g id="line2d_28">
    <path d="M 311.285027 37.513715 
L 306.376614 37.603547 
L 303.922389 37.841785 
L 301.468164 38.406684 
L 300.241052 38.886538 
L 299.01394 39.540706 
L 297.786864 40.395658 
L 296.559751 41.4666 
L 295.332639 42.752126 
L 292.878425 45.854846 
L 289.197103 50.906834 
L 287.969998 52.367799 
L 286.742889 53.581234 
L 285.515777 54.481806 
L 284.288665 55.019671 
L 283.061589 55.161599 
L 281.834476 54.889851 
L 280.607364 54.200764 
L 279.380252 53.105604 
L 278.153139 51.629713 
L 276.926027 49.814771 
L 274.471839 45.411319 
L 269.563389 35.818173 
L 268.336277 33.740776 
L 267.109201 31.91119 
L 265.882089 30.354479 
L 264.654976 29.074867 
L 263.427864 28.058275 
L 262.200752 27.277666 
L 260.973639 26.698969 
L 259.746527 26.283883 
L 257.292339 25.804029 
L 254.838114 25.601555 
L 249.929519 25.503275 
L 218.024744 25.494545 
L 97.768536 25.594797 
L 96.541387 26.45876 
L 95.314238 31.439502 
L 94.08709 49.427565 
L 92.859941 90.162528 
L 91.632792 148.031165 
L 90.405644 199.617877 
L 89.178858 228.441356 
L 87.95171 238.41219 
L 86.724561 240.184891 
L 85.497412 239.37387 
L 84.270264 237.005293 
L 83.043115 232.525807 
L 81.815966 225.205183 
L 80.588818 214.763479 
L 78.134884 187.616533 
L 76.907735 174.187453 
L 75.680586 163.053367 
L 74.453438 154.992714 
L 73.226289 149.897359 
L 71.99914 147.084973 
L 70.771992 145.729891 
L 69.544843 145.159642 
L 68.318058 144.987018 
L 67.090909 144.987018 
L 67.090909 144.987018 
" clip-path="url(#pce484df251)" style="fill: none; stroke: #26828e; stroke-linecap: square"/>
   </g>
   <g id="line2d_29">
    <path d="M 313.283822 37.513152 
L 308.335219 37.56722 
L 305.860935 37.736464 
L 303.386652 38.148171 
L 302.149474 38.506372 
L 300.912332 39.004812 
L 299.67519 39.671089 
L 298.438048 40.526604 
L 297.20087 41.58234 
L 295.963729 42.832665 
L 293.489434 45.80472 
L 289.777984 50.571443 
L 288.540835 51.943139 
L 287.3037 53.082512 
L 286.066522 53.929579 
L 284.82938 54.437875 
L 283.592239 54.575298 
L 282.355097 54.323544 
L 281.117919 53.678388 
L 279.880777 52.648559 
L 278.643635 51.256587 
L 277.406494 49.539925 
L 274.932174 45.353871 
L 269.98357 36.092738 
L 268.746429 34.04688 
L 267.509287 32.226306 
L 266.272145 30.658894 
L 265.035004 29.353375 
L 263.797825 28.300736 
L 262.560684 27.479577 
L 261.323542 26.860047 
L 260.0864 26.407226 
L 257.61208 25.868235 
L 255.137906 25.630561 
L 250.189339 25.506936 
L 225.446141 25.494545 
L 98.019634 25.551711 
L 96.782674 26.113513 
L 95.545351 29.741989 
L 94.308391 44.311089 
L 93.071067 80.710748 
L 90.596784 192.213195 
L 89.359824 225.311771 
L 88.1225 237.634398 
L 86.88554 240.152507 
L 85.648217 239.576062 
L 84.411257 237.416999 
L 83.173933 233.213486 
L 81.936973 226.199501 
L 80.69965 216.008735 
L 79.462326 203.108779 
L 76.988043 175.211931 
L 75.751083 163.76808 
L 74.513759 155.421598 
L 73.276799 150.118137 
L 72.039476 147.181845 
L 70.802516 145.765655 
L 69.565193 145.170625 
L 68.328233 144.989553 
L 67.090909 144.989553 
L 67.090909 144.989553 
" clip-path="url(#pce484df251)" style="fill: none; stroke: #228b8d; stroke-linecap: square"/>
   </g>
   <g id="line2d_30">
    <path d="M 313.937768 37.512307 
L 308.97601 37.572571 
L 306.49515 37.740689 
L 304.014253 38.136625 
L 302.77384 38.474832 
L 301.533392 38.940606 
L 300.292943 39.558728 
L 299.052531 40.348066 
L 297.812083 41.319603 
L 296.571634 42.470239 
L 294.09077 45.218983 
L 290.369457 49.729445 
L 289.129019 51.073544 
L 287.888567 52.224181 
L 286.648155 53.123345 
L 285.407706 53.723444 
L 284.167258 53.989561 
L 282.926846 53.899166 
L 281.686397 53.442121 
L 280.445949 52.62068 
L 279.205536 51.448642 
L 277.965088 49.954166 
L 276.724639 48.178085 
L 274.243779 44.008083 
L 269.282021 35.206528 
L 268.041609 33.313863 
L 266.80116 31.641413 
L 265.560712 30.209453 
L 264.320299 29.020799 
L 263.079851 28.06447 
L 261.839402 27.319062 
L 260.59899 26.75529 
L 259.358542 26.342457 
L 256.877645 25.847678 
L 254.396966 25.625773 
L 249.434953 25.507499 
L 224.626346 25.494545 
L 98.101759 25.543263 
L 96.861165 26.038606 
L 95.620935 29.346898 
L 94.380341 43.041334 
L 93.14011 78.228121 
L 90.659286 190.074858 
L 89.418692 224.373408 
L 88.178098 237.391936 
L 86.937868 240.135047 
L 85.697274 239.623935 
L 84.457043 237.516687 
L 83.216449 233.378788 
L 81.976219 226.436218 
L 80.735625 216.30059 
L 79.495031 203.418178 
L 77.014207 175.429893 
L 75.773976 163.911417 
L 74.533382 155.501011 
L 73.293152 150.154183 
L 72.052558 147.195081 
L 70.811964 145.769316 
L 69.571733 145.171188 
L 68.33114 144.988708 
L 67.090909 144.988708 
L 67.090909 144.988708 
" clip-path="url(#pce484df251)" style="fill: none; stroke: #1f958b; stroke-linecap: square"/>
   </g>
   <g id="line2d_31">
    <path d="M 316.118255 37.511462 
L 308.609901 37.619035 
L 306.107128 37.846572 
L 303.604319 38.343041 
L 302.352932 38.746299 
L 301.101546 39.283882 
L 299.85016 39.974659 
L 298.598737 40.831582 
L 297.347351 41.856623 
L 294.844574 44.353048 
L 289.839003 49.973878 
L 288.587609 51.166755 
L 287.336223 52.153217 
L 286.084837 52.883136 
L 284.833414 53.317089 
L 283.582027 53.426351 
L 282.330641 53.194309 
L 281.079255 52.614767 
L 279.827868 51.693919 
L 278.576482 50.449227 
L 277.325059 48.91082 
L 276.073673 47.121222 
L 273.5709 43.014863 
L 269.816704 36.559357 
L 267.313932 32.816267 
L 266.062545 31.249137 
L 264.811123 29.911233 
L 263.559736 28.802556 
L 262.30835 27.910995 
L 261.056963 27.215432 
L 259.805577 26.688831 
L 257.302768 26.026215 
L 254.799959 25.707157 
L 251.045836 25.538194 
L 241.034599 25.494827 
L 98.375751 25.523269 
L 97.124619 25.852183 
L 95.873123 28.294822 
L 94.621628 39.451719 
L 93.370132 70.806993 
L 90.867505 183.060254 
L 89.61601 221.175843 
L 88.364878 236.532197 
L 87.113382 240.05479 
L 85.861887 239.759668 
L 84.610391 237.80674 
L 83.359259 233.863711 
L 82.107764 227.130909 
L 80.856268 217.154781 
L 79.604773 204.316818 
L 77.102146 176.041679 
L 75.85065 164.300594 
L 74.599518 155.704611 
L 73.348023 150.238382 
L 72.096527 147.219862 
L 70.845032 145.772132 
L 69.5939 145.169216 
L 68.342405 144.989834 
L 67.090909 144.989834 
L 67.090909 144.989834 
" clip-path="url(#pce484df251)" style="fill: none; stroke: #1f9f88; stroke-linecap: square"/>
   </g>
   <g id="line2d_32">
    <path d="M 319.20684 37.510618 
L 310.338447 37.606082 
L 307.804641 37.808555 
L 305.270799 38.248985 
L 304.003896 38.607186 
L 302.736957 39.085351 
L 301.470054 39.702347 
L 300.203151 40.471972 
L 298.936212 41.398733 
L 296.402395 43.687335 
L 290.067822 50.245626 
L 288.800916 51.272075 
L 287.533977 52.076057 
L 286.267074 52.61533 
L 285.000171 52.858636 
L 283.733232 52.783448 
L 282.466329 52.379345 
L 281.199426 51.645483 
L 279.932523 50.592563 
L 278.665584 49.243395 
L 277.398681 47.631772 
L 274.864839 43.815183 
L 269.797191 35.552902 
L 267.263349 32.074239 
L 265.996446 30.639463 
L 264.729543 29.42462 
L 263.462604 28.42605 
L 262.195701 27.628264 
L 260.928798 27.009579 
L 259.661858 26.543523 
L 257.128053 25.960038 
L 254.594283 25.680686 
L 250.793647 25.533125 
L 240.658133 25.494827 
L 98.763845 25.50581 
L 97.496724 25.665761 
L 96.229967 27.081669 
L 94.962846 34.7033 
L 93.696088 59.657418 
L 92.428967 109.392186 
L 91.16221 169.784564 
L 89.895452 214.462077 
L 88.628331 234.531114 
L 87.361574 239.788392 
L 86.094453 239.964395 
L 84.827695 238.301801 
L 83.560574 234.734714 
L 82.293817 228.444482 
L 81.027059 218.859278 
L 79.759938 206.218297 
L 77.22606 177.536324 
L 75.959302 165.349853 
L 74.692181 156.332308 
L 73.425424 150.557159 
L 72.158666 147.356158 
L 70.891545 145.82085 
L 69.624788 145.183297 
L 68.357667 144.9873 
L 67.090909 144.9873 
L 67.090909 144.9873 
" clip-path="url(#pce484df251)" style="fill: none; stroke: #22a884; stroke-linecap: square"/>
   </g>
   <g id="line2d_33">
    <path d="M 319.425089 37.510054 
L 311.817021 37.610024 
L 309.280999 37.807429 
L 306.744976 38.225612 
L 304.208954 39.00453 
L 302.940961 39.574498 
L 301.672931 40.282452 
L 300.404938 41.134025 
L 297.868909 43.240428 
L 294.064879 47.020126 
L 291.52886 49.441363 
L 290.260849 50.466123 
L 288.992856 51.301362 
L 287.724826 51.906531 
L 286.456833 52.247836 
L 285.188804 52.301341 
L 283.920811 52.05212 
L 282.652781 51.494543 
L 281.384788 50.633678 
L 280.116759 49.483886 
L 278.848766 48.070793 
L 276.312743 44.610435 
L 268.704676 33.106039 
L 267.436647 31.582557 
L 266.168653 30.259015 
L 264.90066 29.141045 
L 263.632631 28.22245 
L 262.364638 27.488307 
L 261.096609 26.917776 
L 258.560586 26.168989 
L 256.024564 25.784317 
L 252.220657 25.562131 
L 244.612481 25.496517 
L 117.811358 25.494545 
L 98.791462 25.50581 
L 97.523251 25.66379 
L 96.255403 27.070405 
L 94.987192 34.665284 
L 93.719345 59.585046 
L 92.451134 109.327135 
L 91.183286 169.774145 
L 89.915075 214.484211 
L 88.647227 234.547165 
L 87.379379 239.792334 
L 86.111168 239.961579 
L 84.843321 238.291381 
L 83.57511 234.710778 
L 82.307262 228.398412 
L 81.039051 218.784033 
L 79.771203 206.113793 
L 77.235144 177.411095 
L 75.967297 165.241435 
L 74.699085 156.251769 
L 73.431238 150.505907 
L 72.163027 147.327998 
L 70.895179 145.807333 
L 69.626968 145.177946 
L 68.35912 144.989271 
L 67.090909 144.989271 
L 67.090909 144.989271 
" clip-path="url(#pce484df251)" style="fill: none; stroke: #2cb17e; stroke-linecap: square"/>
   </g>
   <g id="line2d_34">
    <path d="M 321.786905 37.50921 
L 314.10765 37.602421 
L 311.547863 37.783492 
L 308.988111 38.163096 
L 306.42836 38.867952 
L 305.148484 39.383852 
L 303.868608 40.026192 
L 302.588732 40.801168 
L 300.028945 42.734103 
L 297.469201 45.054244 
L 293.629562 48.623865 
L 292.349683 49.649751 
L 291.069815 50.51484 
L 289.789939 51.178301 
L 288.510063 51.605214 
L 287.230151 51.769108 
L 285.950275 51.65196 
L 284.6704 51.243915 
L 283.390524 50.544972 
L 282.110648 49.56358 
L 280.830773 48.319169 
L 279.550897 46.841026 
L 276.991145 43.346311 
L 270.59173 33.952261 
L 269.311855 32.371332 
L 268.031979 30.971193 
L 266.752103 29.764517 
L 265.472228 28.751867 
L 264.192315 27.924794 
L 262.91244 27.266965 
L 261.632564 26.758106 
L 259.072994 26.092955 
L 256.512952 25.752214 
L 252.673434 25.55509 
L 244.994034 25.496235 
L 99.087984 25.499333 
L 97.808144 25.579027 
L 96.527942 26.408071 
L 95.248102 31.60058 
L 93.968263 51.171824 
L 92.688424 95.627912 
L 91.408584 156.55196 
L 90.128745 206.931827 
L 88.848905 232.014131 
L 87.569066 239.359508 
L 86.289227 240.100692 
L 85.009024 238.714352 
L 83.729184 235.49561 
L 82.449345 229.638233 
L 81.169506 220.468057 
L 79.889666 208.079619 
L 77.329988 179.107425 
L 76.050148 166.493732 
L 74.770309 157.043641 
L 73.490106 150.934228 
L 72.210267 147.526248 
L 70.930427 145.885619 
L 69.650588 145.204135 
L 68.370748 144.988145 
L 67.090909 144.988145 
L 67.090909 144.988145 
" clip-path="url(#pce484df251)" style="fill: none; stroke: #3bbb75; stroke-linecap: square"/>
   </g>
   <g id="line2d_35">
    <path d="M 323.313337 37.508365 
L 314.300498 37.61453 
L 311.725376 37.802642 
L 309.150289 38.185624 
L 306.575203 38.879498 
L 304.000081 39.998313 
L 301.424994 41.600926 
L 298.849894 43.636928 
L 293.699696 48.140913 
L 292.412149 49.120052 
L 291.124613 49.953602 
L 289.837034 50.602983 
L 288.54949 51.034964 
L 287.261947 51.223921 
L 285.974404 51.150704 
L 284.686861 50.805175 
L 283.399318 50.184518 
L 282.111738 49.294929 
L 280.824195 48.152177 
L 279.536652 46.781325 
L 276.961566 43.497815 
L 270.523814 34.398604 
L 267.948728 31.398951 
L 266.661184 30.15989 
L 265.373605 29.104999 
L 264.086062 28.230053 
L 262.798519 27.522944 
L 261.510976 26.965648 
L 258.935998 26.21827 
L 256.360694 25.819517 
L 252.498283 25.576492 
L 246.060204 25.499614 
L 180.395213 25.494545 
L 97.99238 25.555372 
L 96.704546 26.202781 
L 95.417076 30.553292 
L 94.129606 48.030524 
L 92.842135 90.113529 
L 91.554665 150.875372 
L 90.266831 203.509175 
L 88.97936 230.814467 
L 87.69189 239.13704 
L 86.404419 240.136174 
L 85.116586 238.850648 
L 83.829115 235.743422 
L 82.541645 230.017582 
L 81.254174 220.960105 
L 79.966704 208.619343 
L 77.391399 179.490154 
L 76.103929 166.734504 
L 74.816459 157.16445 
L 73.528988 150.978721 
L 72.241154 147.534696 
L 70.953684 145.883084 
L 69.666213 145.200756 
L 68.378743 144.989553 
L 67.090909 144.989553 
L 67.090909 144.989553 
" clip-path="url(#pce484df251)" style="fill: none; stroke: #4ec36b; stroke-linecap: square"/>
   </g>
   <g id="line2d_36">
    <path d="M 324.512323 37.50752 
L 315.457296 37.572007 
L 311.57657 37.81644 
L 308.989419 38.196888 
L 306.402269 38.871331 
L 303.815118 39.941148 
L 301.227967 41.457589 
L 298.640824 43.373346 
L 292.172951 48.563883 
L 290.879365 49.371525 
L 289.58579 50.012739 
L 288.292214 50.456267 
L 286.998639 50.676763 
L 285.705064 50.654798 
L 284.411488 50.378262 
L 283.117913 49.843213 
L 281.824338 49.053031 
L 280.530762 48.019541 
L 279.237187 46.763021 
L 276.650037 43.704794 
L 272.769311 38.391195 
L 270.18216 34.923797 
L 267.595009 31.906121 
L 266.301434 30.632423 
L 265.007859 29.531067 
L 263.714283 28.602616 
L 262.420744 27.838904 
L 261.127169 27.226133 
L 258.53991 26.380755 
L 255.952977 25.910194 
L 253.365681 25.672801 
L 248.191452 25.519608 
L 232.668403 25.494545 
L 98.136644 25.539884 
L 96.842996 26.057473 
L 95.549711 29.754098 
L 94.256063 45.474117 
L 92.962415 85.32991 
L 91.668767 145.662025 
L 90.375119 200.197082 
L 89.081835 229.595091 
L 87.788187 238.894579 
L 86.494539 240.161518 
L 85.200891 238.975118 
L 83.907243 235.978562 
L 82.613958 230.389441 
L 81.32031 221.460967 
L 80.026662 209.193507 
L 77.439366 179.949057 
L 76.146082 167.052154 
L 74.852434 157.348056 
L 73.558786 151.066019 
L 72.265138 147.568488 
L 70.97149 145.892941 
L 69.678205 145.202446 
L 68.384557 144.988708 
L 67.090909 144.988708 
L 67.090909 144.988708 
" clip-path="url(#pce484df251)" style="fill: none; stroke: #63cb5f; stroke-linecap: square"/>
   </g>
   <g id="line2d_37">
    <path d="M 328.909091 37.506957 
L 315.7524 37.603265 
L 311.805393 37.905709 
L 309.174055 38.351771 
L 306.542717 39.109851 
L 303.911379 40.26443 
L 301.28004 41.8386 
L 298.648691 43.754357 
L 293.386011 47.762436 
L 292.070357 48.590636 
L 290.754688 49.275217 
L 289.439019 49.783513 
L 288.123313 50.088209 
L 286.807644 50.167903 
L 285.491975 50.00767 
L 284.176306 49.599062 
L 282.860637 48.942078 
L 281.544968 48.043478 
L 280.229299 46.919312 
L 278.91363 45.593517 
L 276.282292 42.470803 
L 269.703946 33.966059 
L 267.072608 31.16719 
L 265.756939 30.005571 
L 264.44127 29.01207 
L 263.125601 28.182744 
L 261.809932 27.507174 
L 260.494263 26.970436 
L 257.862925 26.23939 
L 255.231659 25.83923 
L 251.284579 25.586349 
L 244.706234 25.501022 
L 190.763657 25.494545 
L 98.666821 25.508626 
L 97.351007 25.720392 
L 96.035556 27.63108 
L 94.719742 37.722384 
L 93.404291 68.946149 
L 90.772662 186.059682 
L 89.457211 223.85441 
L 88.141396 237.614404 
L 86.825945 240.172219 
L 85.510131 239.395835 
L 84.194316 236.810704 
L 82.878865 231.746044 
L 81.563051 223.340369 
L 80.2476 211.402977 
L 76.30052 168.363587 
L 74.984705 158.124722 
L 73.669254 151.447593 
L 72.35344 147.7214 
L 71.037626 145.941377 
L 69.722175 145.21371 
L 68.40636 144.987581 
L 67.090909 144.987581 
L 67.090909 144.987581 
" clip-path="url(#pce484df251)" style="fill: none; stroke: #7ad151; stroke-linecap: square"/>
   </g>
   <g id="line2d_38">
    <path d="M 326.183927 37.506112 
L 317.070104 37.582708 
L 313.164159 37.825452 
L 310.56022 38.183653 
L 307.956281 38.797269 
L 305.352306 39.74684 
L 302.748367 41.074325 
L 300.144425 42.745367 
L 293.634548 47.384523 
L 292.332575 48.150206 
L 291.030605 48.786351 
L 289.728636 49.263671 
L 288.426667 49.557948 
L 287.124661 49.649469 
L 285.822691 49.523592 
L 284.520722 49.172431 
L 283.218752 48.593733 
L 281.916783 47.792568 
L 280.614813 46.780481 
L 279.312844 45.577184 
L 276.708868 42.707069 
L 268.897015 33.138986 
L 266.293076 30.605389 
L 264.991107 29.562044 
L 263.689137 28.672454 
L 262.387168 27.930708 
L 261.085198 27.326666 
L 258.481405 26.471432 
L 255.877393 25.975245 
L 253.273381 25.712507 
L 249.367364 25.55143 
L 240.253687 25.495672 
L 98.338322 25.524959 
L 97.036316 25.905688 
L 95.73431 28.862538 
L 94.432305 42.429125 
L 93.130299 79.302725 
L 90.526651 195.597717 
L 89.224645 227.831823 
L 87.922639 238.527085 
L 86.620633 240.180949 
L 85.318627 239.125776 
L 84.016621 236.266644 
L 82.714616 230.846852 
L 81.41261 222.077344 
L 80.110604 209.896674 
L 76.204586 167.422464 
L 74.902944 157.553346 
L 73.600938 151.157822 
L 72.298932 147.599465 
L 70.996927 145.899699 
L 69.694921 145.202446 
L 68.392915 144.986455 
L 67.090909 144.986455 
L 67.090909 144.986455 
" clip-path="url(#pce484df251)" style="fill: none; stroke: #95d840; stroke-linecap: square"/>
   </g>
   <g id="patch_3">
    <path d="M 54 250.92 
L 54 14.76 
" style="fill: none; stroke: #000000; stroke-width: 0.8; stroke-linejoin: miter; stroke-linecap: square"/>
   </g>
   <g id="patch_4">
    <path d="M 342 250.92 
L 342 14.76 
" style="fill: none; stroke: #000000; stroke-width: 0.8; stroke-linejoin: miter; stroke-linecap: square"/>
   </g>
   <g id="patch_5">
    <path d="M 54 250.92 
L 342 250.92 
" style="fill: none; stroke: #000000; stroke-width: 0.8; stroke-linejoin: miter; stroke-linecap: square"/>
   </g>
   <g id="patch_6">
    <path d="M 54 14.76 
L 342 14.76 
" style="fill: none; stroke: #000000; stroke-width: 0.8; stroke-linejoin: miter; stroke-linecap: square"/>
   </g>
   <g id="text_19">
    <!-- d-THF + LiBF$_4$ + EtOH -->
    <g transform="translate(142.85 8.76) scale(0.1 -0.1)">
     <defs>
      <path id="DejaVuSans-64" d="M 2906 2969 
L 2906 4863 
L 3481 4863 
L 3481 0 
L 2906 0 
L 2906 525 
Q 2725 213 2448 61 
Q 2172 -91 1784 -91 
Q 1150 -91 751 415 
Q 353 922 353 1747 
Q 353 2572 751 3078 
Q 1150 3584 1784 3584 
Q 2172 3584 2448 3432 
Q 2725 3281 2906 2969 
z
M 947 1747 
Q 947 1113 1208 752 
Q 1469 391 1925 391 
Q 2381 391 2643 752 
Q 2906 1113 2906 1747 
Q 2906 2381 2643 2742 
Q 2381 3103 1925 3103 
Q 1469 3103 1208 2742 
Q 947 2381 947 1747 
z
" transform="scale(0.015625)"/>
      <path id="DejaVuSans-2d" d="M 313 2009 
L 1997 2009 
L 1997 1497 
L 313 1497 
L 313 2009 
z
" transform="scale(0.015625)"/>
      <path id="DejaVuSans-54" d="M -19 4666 
L 3928 4666 
L 3928 4134 
L 2272 4134 
L 2272 0 
L 1638 0 
L 1638 4134 
L -19 4134 
L -19 4666 
z
" transform="scale(0.015625)"/>
      <path id="DejaVuSans-48" d="M 628 4666 
L 1259 4666 
L 1259 2753 
L 3553 2753 
L 3553 4666 
L 4184 4666 
L 4184 0 
L 3553 0 
L 3553 2222 
L 1259 2222 
L 1259 0 
L 628 0 
L 628 4666 
z
" transform="scale(0.015625)"/>
      <path id="DejaVuSans-46" d="M 628 4666 
L 3309 4666 
L 3309 4134 
L 1259 4134 
L 1259 2759 
L 3109 2759 
L 3109 2228 
L 1259 2228 
L 1259 0 
L 628 0 
L 628 4666 
z
" transform="scale(0.015625)"/>
      <path id="DejaVuSans-2b" d="M 2944 4013 
L 2944 2272 
L 4684 2272 
L 4684 1741 
L 2944 1741 
L 2944 0 
L 2419 0 
L 2419 1741 
L 678 1741 
L 678 2272 
L 2419 2272 
L 2419 4013 
L 2944 4013 
z
" transform="scale(0.015625)"/>
      <path id="DejaVuSans-69" d="M 603 3500 
L 1178 3500 
L 1178 0 
L 603 0 
L 603 3500 
z
M 603 4863 
L 1178 4863 
L 1178 4134 
L 603 4134 
L 603 4863 
z
" transform="scale(0.015625)"/>
      <path id="DejaVuSans-42" d="M 1259 2228 
L 1259 519 
L 2272 519 
Q 2781 519 3026 730 
Q 3272 941 3272 1375 
Q 3272 1813 3026 2020 
Q 2781 2228 2272 2228 
L 1259 2228 
z
M 1259 4147 
L 1259 2741 
L 2194 2741 
Q 2656 2741 2882 2914 
Q 3109 3088 3109 3444 
Q 3109 3797 2882 3972 
Q 2656 4147 2194 4147 
L 1259 4147 
z
M 628 4666 
L 2241 4666 
Q 2963 4666 3353 4366 
Q 3744 4066 3744 3513 
Q 3744 3084 3544 2831 
Q 3344 2578 2956 2516 
Q 3422 2416 3680 2098 
Q 3938 1781 3938 1306 
Q 3938 681 3513 340 
Q 3088 0 2303 0 
L 628 0 
L 628 4666 
z
" transform="scale(0.015625)"/>
      <path id="DejaVuSans-45" d="M 628 4666 
L 3578 4666 
L 3578 4134 
L 1259 4134 
L 1259 2753 
L 3481 2753 
L 3481 2222 
L 1259 2222 
L 1259 531 
L 3634 531 
L 3634 0 
L 628 0 
L 628 4666 
z
" transform="scale(0.015625)"/>
      <path id="DejaVuSans-74" d="M 1172 4494 
L 1172 3500 
L 2356 3500 
L 2356 3053 
L 1172 3053 
L 1172 1153 
Q 1172 725 1289 603 
Q 1406 481 1766 481 
L 2356 481 
L 2356 0 
L 1766 0 
Q 1100 0 847 248 
Q 594 497 594 1153 
L 594 3053 
L 172 3053 
L 172 3500 
L 594 3500 
L 594 4494 
L 1172 4494 
z
" transform="scale(0.015625)"/>
      <path id="DejaVuSans-4f" d="M 2522 4238 
Q 1834 4238 1429 3725 
Q 1025 3213 1025 2328 
Q 1025 1447 1429 934 
Q 1834 422 2522 422 
Q 3209 422 3611 934 
Q 4013 1447 4013 2328 
Q 4013 3213 3611 3725 
Q 3209 4238 2522 4238 
z
M 2522 4750 
Q 3503 4750 4090 4092 
Q 4678 3434 4678 2328 
Q 4678 1225 4090 567 
Q 3503 -91 2522 -91 
Q 1538 -91 948 565 
Q 359 1222 359 2328 
Q 359 3434 948 4092 
Q 1538 4750 2522 4750 
z
" transform="scale(0.015625)"/>
     </defs>
     <use xlink:href="#DejaVuSans-64" transform="translate(0 0.015625)"/>
     <use xlink:href="#DejaVuSans-2d" transform="translate(63.476562 0.015625)"/>
     <use xlink:href="#DejaVuSans-54" transform="translate(99.560547 0.015625)"/>
     <use xlink:href="#DejaVuSans-48" transform="translate(160.644531 0.015625)"/>
     <use xlink:href="#DejaVuSans-46" transform="translate(235.839844 0.015625)"/>
     <use xlink:href="#DejaVuSans-20" transform="translate(293.359375 0.015625)"/>
     <use xlink:href="#DejaVuSans-2b" transform="translate(325.146484 0.015625)"/>
     <use xlink:href="#DejaVuSans-20" transform="translate(408.935547 0.015625)"/>
     <use xlink:href="#DejaVuSans-4c" transform="translate(440.722656 0.015625)"/>
     <use xlink:href="#DejaVuSans-69" transform="translate(496.435547 0.015625)"/>
     <use xlink:href="#DejaVuSans-42" transform="translate(524.21875 0.015625)"/>
     <use xlink:href="#DejaVuSans-46" transform="translate(592.822266 0.015625)"/>
     <use xlink:href="#DejaVuSans-34" transform="translate(651.298828 -16.390625) scale(0.7)"/>
     <use xlink:href="#DejaVuSans-20" transform="translate(698.569336 0.015625)"/>
     <use xlink:href="#DejaVuSans-2b" transform="translate(730.356445 0.015625)"/>
     <use xlink:href="#DejaVuSans-20" transform="translate(814.145508 0.015625)"/>
     <use xlink:href="#DejaVuSans-45" transform="translate(845.932617 0.015625)"/>
     <use xlink:href="#DejaVuSans-74" transform="translate(909.116211 0.015625)"/>
     <use xlink:href="#DejaVuSans-4f" transform="translate(948.325195 0.015625)"/>
     <use xlink:href="#DejaVuSans-48" transform="translate(1027.036133 0.015625)"/>
    </g>
   </g>
   <g id="axes_2">
    <g id="patch_7">
     <path d="M 140.4 215.496 
L 313.2 215.496 
L 313.2 73.8 
L 140.4 73.8 
z
" style="fill: #ffffff"/>
    </g>
    <g id="matplotlib.axis_3">
     <g id="xtick_9">
      <g id="line2d_39">
       <g>
        <use xlink:href="#m8219aa918d" x="148.628571" y="215.496" style="stroke: #000000; stroke-width: 0.8"/>
       </g>
      </g>
      <g id="text_20">
       <!-- 500 -->
       <g transform="translate(140.993571 228.57475) scale(0.08 -0.08)">
        <use xlink:href="#DejaVuSans-35"/>
        <use xlink:href="#DejaVuSans-30" x="63.623047"/>
        <use xlink:href="#DejaVuSans-30" x="127.246094"/>
       </g>
      </g>
     </g>
     <g id="xtick_10">
      <g id="line2d_40">
       <g>
        <use xlink:href="#m8219aa918d" x="189.771429" y="215.496" style="stroke: #000000; stroke-width: 0.8"/>
       </g>
      </g>
      <g id="text_21">
       <!-- 550 -->
       <g transform="translate(182.136429 228.57475) scale(0.08 -0.08)">
        <use xlink:href="#DejaVuSans-35"/>
        <use xlink:href="#DejaVuSans-35" x="63.623047"/>
        <use xlink:href="#DejaVuSans-30" x="127.246094"/>
       </g>
      </g>
     </g>
     <g id="xtick_11">
      <g id="line2d_41">
       <g>
        <use xlink:href="#m8219aa918d" x="230.914286" y="215.496" style="stroke: #000000; stroke-width: 0.8"/>
       </g>
      </g>
      <g id="text_22">
       <!-- 600 -->
       <g transform="translate(223.279286 228.57475) scale(0.08 -0.08)">
        <use xlink:href="#DejaVuSans-36"/>
        <use xlink:href="#DejaVuSans-30" x="63.623047"/>
        <use xlink:href="#DejaVuSans-30" x="127.246094"/>
       </g>
      </g>
     </g>
     <g id="xtick_12">
      <g id="line2d_42">
       <g>
        <use xlink:href="#m8219aa918d" x="272.057143" y="215.496" style="stroke: #000000; stroke-width: 0.8"/>
       </g>
      </g>
      <g id="text_23">
       <!-- 650 -->
       <g transform="translate(264.422143 228.57475) scale(0.08 -0.08)">
        <use xlink:href="#DejaVuSans-36"/>
        <use xlink:href="#DejaVuSans-35" x="63.623047"/>
        <use xlink:href="#DejaVuSans-30" x="127.246094"/>
       </g>
      </g>
     </g>
     <g id="xtick_13">
      <g id="line2d_43">
       <g>
        <use xlink:href="#m8219aa918d" x="313.2" y="215.496" style="stroke: #000000; stroke-width: 0.8"/>
       </g>
      </g>
      <g id="text_24">
       <!-- 700 -->
       <g transform="translate(305.565 228.57475) scale(0.08 -0.08)">
        <use xlink:href="#DejaVuSans-37"/>
        <use xlink:href="#DejaVuSans-30" x="63.623047"/>
        <use xlink:href="#DejaVuSans-30" x="127.246094"/>
       </g>
      </g>
     </g>
    </g>
    <g id="matplotlib.axis_4">
     <g id="ytick_9">
      <g id="line2d_44">
       <g>
        <use xlink:href="#m8c966c20d6" x="140.4" y="198.825882" style="stroke: #000000; stroke-width: 0.8"/>
       </g>
      </g>
      <g id="text_25">
       <!-- 5.00 -->
       <g transform="translate(115.5875 201.865257) scale(0.08 -0.08)">
        <defs>
         <path id="DejaVuSans-2e" d="M 684 794 
L 1344 794 
L 1344 0 
L 684 0 
L 684 794 
z
" transform="scale(0.015625)"/>
        </defs>
        <use xlink:href="#DejaVuSans-35"/>
        <use xlink:href="#DejaVuSans-2e" x="63.623047"/>
        <use xlink:href="#DejaVuSans-30" x="95.410156"/>
        <use xlink:href="#DejaVuSans-30" x="159.033203"/>
       </g>
      </g>
     </g>
     <g id="ytick_10">
      <g id="line2d_45">
       <g>
        <use xlink:href="#m8c966c20d6" x="140.4" y="177.988235" style="stroke: #000000; stroke-width: 0.8"/>
       </g>
      </g>
      <g id="text_26">
       <!-- 5.25 -->
       <g transform="translate(115.5875 181.02761) scale(0.08 -0.08)">
        <use xlink:href="#DejaVuSans-35"/>
        <use xlink:href="#DejaVuSans-2e" x="63.623047"/>
        <use xlink:href="#DejaVuSans-32" x="95.410156"/>
        <use xlink:href="#DejaVuSans-35" x="159.033203"/>
       </g>
      </g>
     </g>
     <g id="ytick_11">
      <g id="line2d_46">
       <g>
        <use xlink:href="#m8c966c20d6" x="140.4" y="157.150588" style="stroke: #000000; stroke-width: 0.8"/>
       </g>
      </g>
      <g id="text_27">
       <!-- 5.50 -->
       <g transform="translate(115.5875 160.189963) scale(0.08 -0.08)">
        <use xlink:href="#DejaVuSans-35"/>
        <use xlink:href="#DejaVuSans-2e" x="63.623047"/>
        <use xlink:href="#DejaVuSans-35" x="95.410156"/>
        <use xlink:href="#DejaVuSans-30" x="159.033203"/>
       </g>
      </g>
     </g>
     <g id="ytick_12">
      <g id="line2d_47">
       <g>
        <use xlink:href="#m8c966c20d6" x="140.4" y="136.312941" style="stroke: #000000; stroke-width: 0.8"/>
       </g>
      </g>
      <g id="text_28">
       <!-- 5.75 -->
       <g transform="translate(115.5875 139.352316) scale(0.08 -0.08)">
        <use xlink:href="#DejaVuSans-35"/>
        <use xlink:href="#DejaVuSans-2e" x="63.623047"/>
        <use xlink:href="#DejaVuSans-37" x="95.410156"/>
        <use xlink:href="#DejaVuSans-35" x="159.033203"/>
       </g>
      </g>
     </g>
     <g id="ytick_13">
      <g id="line2d_48">
       <g>
        <use xlink:href="#m8c966c20d6" x="140.4" y="115.475294" style="stroke: #000000; stroke-width: 0.8"/>
       </g>
      </g>
      <g id="text_29">
       <!-- 6.00 -->
       <g transform="translate(115.5875 118.514669) scale(0.08 -0.08)">
        <use xlink:href="#DejaVuSans-36"/>
        <use xlink:href="#DejaVuSans-2e" x="63.623047"/>
        <use xlink:href="#DejaVuSans-30" x="95.410156"/>
        <use xlink:href="#DejaVuSans-30" x="159.033203"/>
       </g>
      </g>
     </g>
     <g id="ytick_14">
      <g id="line2d_49">
       <g>
        <use xlink:href="#m8c966c20d6" x="140.4" y="94.637647" style="stroke: #000000; stroke-width: 0.8"/>
       </g>
      </g>
      <g id="text_30">
       <!-- 6.25 -->
       <g transform="translate(115.5875 97.677022) scale(0.08 -0.08)">
        <use xlink:href="#DejaVuSans-36"/>
        <use xlink:href="#DejaVuSans-2e" x="63.623047"/>
        <use xlink:href="#DejaVuSans-32" x="95.410156"/>
        <use xlink:href="#DejaVuSans-35" x="159.033203"/>
       </g>
      </g>
     </g>
     <g id="ytick_15">
      <g id="line2d_50">
       <g>
        <use xlink:href="#m8c966c20d6" x="140.4" y="73.8" style="stroke: #000000; stroke-width: 0.8"/>
       </g>
      </g>
      <g id="text_31">
       <!-- 6.50 -->
       <g transform="translate(115.5875 76.839375) scale(0.08 -0.08)">
        <use xlink:href="#DejaVuSans-36"/>
        <use xlink:href="#DejaVuSans-2e" x="63.623047"/>
        <use xlink:href="#DejaVuSans-35" x="95.410156"/>
        <use xlink:href="#DejaVuSans-30" x="159.033203"/>
       </g>
      </g>
     </g>
    </g>
    <g id="line2d_51">
     <path d="M 242.927835 125.345671 
L 240.386441 125.508204 
L 237.845129 125.914955 
L 235.303735 126.777634 
L 232.762423 128.432977 
L 230.221111 131.312739 
L 227.679717 135.849512 
L 225.13838 142.319185 
L 222.597035 150.671747 
L 220.05569 160.4271 
L 217.514345 170.715896 
L 214.972992 180.475417 
L 212.431647 188.71879 
L 209.890286 194.744204 
L 207.348974 198.207421 
L 204.807579 199.052596 
L 202.266267 197.368914 
L 199.724955 193.284735 
L 197.183561 186.940922 
L 194.642249 178.538349 
L 192.100855 168.414587 
L 189.559543 157.087242 
L 184.476837 133.603214 
L 181.935525 122.89683 
L 179.39413 113.644915 
L 176.852818 106.140862 
L 174.311424 100.428012 
L 171.770112 96.345501 
L 169.228718 93.6066 
L 166.687406 91.882077 
L 164.146094 90.861865 
L 161.604699 90.296748 
L 159.063387 90.001687 
L 153.980681 89.791644 
L 141.273957 89.744968 
L -1 89.744968 
L -1 89.744968 
" clip-path="url(#p9cd62e9490)" style="fill: none; stroke: #440154; stroke-linecap: square"/>
    </g>
    <g id="line2d_52">
     <path d="M 247.453961 125.34317 
L 244.889856 125.374843 
L 242.325751 125.589054 
L 239.761728 126.056651 
L 237.197623 126.990178 
L 234.633518 128.693864 
L 232.069413 131.539453 
L 229.505307 135.881185 
L 226.941252 141.940773 
L 224.377163 149.667372 
L 221.813074 158.665068 
L 216.684897 177.438955 
L 214.120808 185.450613 
L 211.556736 191.582716 
L 208.992631 195.444349 
L 206.428526 196.896316 
L 203.864421 195.961123 
L 201.300398 192.731287 
L 198.736293 187.330169 
L 196.172187 179.927803 
L 193.608082 170.800914 
L 191.043977 160.367921 
L 183.351744 127.27357 
L 180.787639 117.733262 
L 178.223534 109.694097 
L 175.659511 103.308609 
L 173.095406 98.528453 
L 170.531301 95.154421 
L 167.967195 92.909789 
L 165.40309 91.501998 
L 162.839067 90.670159 
L 160.274962 90.20673 
L 157.710857 89.963346 
L 152.582647 89.786643 
L 137.198263 89.744968 
L -1 89.744968 
L -1 89.744968 
" clip-path="url(#p9cd62e9490)" style="fill: none; stroke: #471063; stroke-linecap: square"/>
    </g>
    <g id="line2d_53">
     <path d="M 252.226121 125.34067 
L 249.638071 125.367342 
L 247.050021 125.557381 
L 244.46197 125.959965 
L 241.873838 126.748461 
L 239.285787 128.169589 
L 236.697737 130.531744 
L 234.109687 134.14916 
L 231.521554 139.25605 
L 228.933512 145.898259 
L 226.345445 153.854906 
L 221.169296 171.483555 
L 218.581229 179.663582 
L 215.993154 186.46499 
L 213.40512 191.390176 
L 210.816987 194.164917 
L 208.228937 194.704196 
L 205.640887 193.034683 
L 203.052754 189.238064 
L 200.464704 183.441864 
L 197.876654 175.83779 
L 195.288603 166.724237 
L 192.700471 156.529626 
L 187.52437 135.130196 
L 184.93632 125.105621 
L 182.348187 116.196277 
L 179.760137 108.703892 
L 177.172087 102.744325 
L 174.584037 98.25923 
L 171.995904 95.064402 
L 169.407854 92.913123 
L 166.819803 91.541173 
L 164.231753 90.714335 
L 161.643621 90.241737 
L 159.05557 89.987518 
L 153.87947 89.794144 
L 140.939054 89.744968 
L -1 89.744968 
L -1 89.744968 
" clip-path="url(#p9cd62e9490)" style="fill: none; stroke: #481d6f; stroke-linecap: square"/>
    </g>
    <g id="line2d_54">
     <path d="M 258.480329 125.338169 
L 253.241362 125.400682 
L 250.621797 125.615727 
L 248.002313 126.052484 
L 245.38283 126.870153 
L 242.763346 128.295448 
L 240.143863 130.597591 
L 237.524297 134.046639 
L 234.904814 138.840131 
L 232.285339 145.01891 
L 229.665847 152.399605 
L 221.807355 176.742144 
L 219.187856 183.440197 
L 216.568347 188.508747 
L 213.948864 191.640228 
L 211.329381 192.700448 
L 208.709897 191.669401 
L 206.090331 188.600432 
L 203.470848 183.595229 
L 200.851365 176.816326 
L 198.231881 168.514607 
L 195.612398 159.050148 
L 187.753865 128.663858 
L 185.134382 119.612817 
L 182.514898 111.777029 
L 179.895415 105.340696 
L 177.275931 100.322991 
L 174.656366 96.611389 
L 172.036882 94.006683 
L 169.417399 92.271324 
L 166.797915 91.17443 
L 164.178432 90.51596 
L 161.558949 90.141716 
L 156.319899 89.83582 
L 148.461449 89.751636 
L 75.115337 89.744968 
L -1 89.744968 
L -1 89.744968 
" clip-path="url(#p9cd62e9490)" style="fill: none; stroke: #472a7a; stroke-linecap: square"/>
    </g>
    <g id="line2d_55">
     <path d="M 262.018203 125.336502 
L 259.380946 125.379011 
L 256.743689 125.558215 
L 254.10635 125.914122 
L 251.469093 126.575925 
L 248.831835 127.72283 
L 246.194578 129.57738 
L 243.557239 132.37796 
L 240.919982 136.326277 
L 238.282725 141.521519 
L 235.645443 147.899506 
L 233.008169 155.197684 
L 227.733614 170.663386 
L 225.096332 177.676504 
L 222.459058 183.493542 
L 219.82176 187.723584 
L 217.184503 190.129082 
L 214.547246 190.60418 
L 211.909906 189.138043 
L 209.272649 185.779848 
L 206.635392 180.632116 
L 203.998135 173.864048 
L 201.360795 165.72653 
L 198.723538 156.570468 
L 190.811685 127.590302 
L 188.174427 118.990188 
L 185.53717 111.519475 
L 182.899913 105.34153 
L 180.262574 100.478023 
L 177.625317 96.833935 
L 174.988059 94.233397 
L 172.350802 92.468031 
L 169.713463 91.326128 
L 167.076206 90.623483 
L 164.438949 90.211731 
L 159.164352 89.859991 
L 151.252581 89.75497 
L 98.506697 89.744968 
L -1 89.744968 
L -1 89.744968 
" clip-path="url(#p9cd62e9490)" style="fill: none; stroke: #453781; stroke-linecap: square"/>
    </g>
    <g id="line2d_56">
     <path d="M 268.848411 125.334002 
L 263.505189 125.415685 
L 260.833618 125.623228 
L 258.161966 126.01831 
L 255.490395 126.725123 
L 252.818825 127.911202 
L 250.147173 129.777422 
L 247.475602 132.532992 
L 244.804032 136.347115 
L 242.132379 141.29814 
L 239.460801 147.321053 
L 236.789206 154.184141 
L 231.446008 168.771327 
L 228.774413 175.472715 
L 226.10281 181.125551 
L 223.431223 185.35476 
L 220.759653 187.914457 
L 218.088 188.675448 
L 215.41643 187.600225 
L 212.744859 184.717962 
L 210.073207 180.112842 
L 207.401637 173.928228 
L 204.730066 166.385 
L 202.058414 157.792388 
L 194.043621 129.858272 
L 191.37205 121.294832 
L 188.70048 113.707428 
L 186.028827 107.294434 
L 183.357257 102.12253 
L 180.685687 98.142539 
L 178.014034 95.220268 
L 175.342464 93.173177 
L 172.670894 91.804561 
L 169.999241 90.93188 
L 167.327671 90.400103 
L 164.656018 90.091706 
L 159.312878 89.829985 
L 148.626103 89.748302 
L 28.404206 89.744968 
L -1 89.744968 
L -1 89.744968 
" clip-path="url(#p9cd62e9490)" style="fill: none; stroke: #414487; stroke-linecap: square"/>
    </g>
    <g id="line2d_57">
     <path d="M 269.424 125.331501 
L 264.075017 125.622395 
L 261.400485 125.991638 
L 258.726034 126.637605 
L 256.051502 127.700325 
L 253.377051 129.3515 
L 250.702519 131.768667 
L 248.028069 135.107692 
L 245.353536 139.455258 
L 242.679077 144.791363 
L 240.004586 150.960974 
L 231.981104 171.08514 
L 229.306612 176.890508 
L 226.632137 181.56981 
L 223.957605 184.840487 
L 221.283154 186.522502 
L 218.608622 186.52917 
L 215.934171 184.842154 
L 213.259639 181.501463 
L 210.585189 176.600448 
L 207.910656 170.291642 
L 205.236206 162.802592 
L 202.561673 154.434193 
L 194.53824 127.88453 
L 191.863707 119.852867 
L 189.189257 112.745562 
L 186.514725 106.72765 
L 183.840274 101.849973 
L 181.165742 98.06669 
L 178.491291 95.257775 
L 175.816759 93.261529 
L 173.142309 91.902914 
L 170.467776 91.018565 
L 167.793326 90.467617 
L 165.118793 90.139216 
L 159.76981 89.848322 
L 151.746377 89.75497 
L 98.256549 89.744968 
L -1 89.744968 
L -1 89.744968 
" clip-path="url(#p9cd62e9490)" style="fill: none; stroke: #3c4f8a; stroke-linecap: square"/>
    </g>
    <g id="line2d_58">
     <path d="M 275.841874 125.329001 
L 270.428379 125.391514 
L 267.721673 125.554881 
L 265.014967 125.855776 
L 262.308178 126.380052 
L 259.601472 127.243564 
L 256.894683 128.592176 
L 254.187977 130.583422 
L 251.481189 133.368165 
L 248.774482 137.052261 
L 246.067694 141.664049 
L 243.360963 147.124346 
L 240.654224 153.233111 
L 235.240729 166.090772 
L 232.533981 172.047839 
L 229.827242 177.172233 
L 227.120503 181.146389 
L 224.413714 183.739426 
L 221.707008 184.809647 
L 219.000219 184.287873 
L 216.293513 182.169934 
L 213.586807 178.503342 
L 210.880018 173.390617 
L 208.173312 166.994293 
L 205.466523 159.546918 
L 202.759817 151.348554 
L 194.639534 125.869946 
L 191.932827 118.268372 
L 189.226039 111.566985 
L 186.519333 105.902479 
L 183.812544 101.310695 
L 181.105838 97.741623 
L 178.399049 95.081072 
L 175.692343 93.179012 
L 172.985554 91.875409 
L 170.278848 91.018565 
L 167.572059 90.477619 
L 164.865353 90.150885 
L 159.451858 89.855824 
L 151.331657 89.756637 
L 102.610286 89.744968 
L -1 89.744968 
L -1 89.744968 
" clip-path="url(#p9cd62e9490)" style="fill: none; stroke: #375a8c; stroke-linecap: square"/>
    </g>
    <g id="line2d_59">
     <path d="M 279.709797 125.327334 
L 274.257381 125.383179 
L 271.531255 125.530709 
L 268.805047 125.799098 
L 266.078921 126.260027 
L 263.352713 127.011849 
L 260.626505 128.179591 
L 257.900379 129.901614 
L 255.174171 132.312946 
L 252.447963 135.521111 
L 249.721838 139.57445 
L 246.995621 144.437957 
L 244.269446 149.974103 
L 236.090905 167.897813 
L 233.36473 173.162236 
L 230.638546 177.514804 
L 227.912338 180.69963 
L 225.186213 182.538344 
L 222.460005 182.923424 
L 219.733797 181.810693 
L 217.007671 179.210155 
L 214.281463 175.181821 
L 211.555255 169.839048 
L 208.829129 163.35604 
L 206.102921 155.967843 
L 200.650587 139.692808 
L 197.924379 131.487776 
L 195.198254 123.680326 
L 192.472046 116.546349 
L 189.745838 110.283386 
L 187.019712 104.999792 
L 184.293504 100.716405 
L 181.567296 97.379881 
L 178.84117 94.881864 
L 176.114962 93.083992 
L 173.388754 91.841235 
L 170.662629 91.01523 
L 167.936421 90.487621 
L 165.210213 90.163387 
L 159.757879 89.864159 
L 151.579337 89.758304 
L 107.960503 89.744968 
L -1 89.744968 
L -1 89.744968 
" clip-path="url(#p9cd62e9490)" style="fill: none; stroke: #32648e; stroke-linecap: square"/>
    </g>
    <g id="line2d_60">
     <path d="M 286.456814 125.324833 
L 275.416457 125.435689 
L 272.65643 125.619894 
L 269.89632 125.941627 
L 267.13621 126.474238 
L 264.376101 127.317746 
L 261.616073 128.588009 
L 258.855963 130.410886 
L 256.095854 132.902235 
L 253.335826 136.147907 
L 250.575717 140.172073 
L 247.815623 144.92389 
L 245.055538 150.259162 
L 236.775275 167.211004 
L 234.01519 172.127022 
L 231.255113 176.171192 
L 228.495003 179.110968 
L 225.734894 180.78048 
L 222.974866 181.076375 
L 220.214757 179.953642 
L 217.454647 177.418951 
L 214.694619 173.526478 
L 211.93451 168.383747 
L 209.1744 162.153291 
L 206.41429 155.057655 
L 200.894153 139.400247 
L 198.134043 131.473606 
L 195.374016 123.897871 
L 192.613906 116.933096 
L 189.853797 110.773487 
L 187.093687 105.529902 
L 184.333659 101.234846 
L 181.57355 97.848312 
L 178.81344 95.278613 
L 176.053413 93.401558 
L 173.293303 92.081285 
L 170.533193 91.1886 
L 167.773083 90.606813 
L 165.013056 90.241737 
L 159.492837 89.893332 
L 151.212343 89.763305 
L 118.09152 89.744968 
L -1 89.744968 
L -1 89.744968 
" clip-path="url(#p9cd62e9490)" style="fill: none; stroke: #2e6f8e; stroke-linecap: square"/>
    </g>
    <g id="line2d_61">
     <path d="M 289.584165 125.322333 
L 281.256768 125.387346 
L 275.705115 125.769925 
L 272.929371 126.175009 
L 270.153545 126.818476 
L 267.377719 127.797845 
L 264.601975 129.22064 
L 261.826149 131.196882 
L 259.050322 133.820759 
L 256.274578 137.147281 
L 253.498752 141.176448 
L 250.722942 145.836579 
L 247.947141 150.97681 
L 242.395546 161.773212 
L 239.619744 166.8676 
L 236.843951 171.374366 
L 234.068133 175.041792 
L 231.292389 177.664002 
L 228.516562 179.092631 
L 225.740736 179.235994 
L 222.964992 178.050748 
L 220.189166 175.543563 
L 217.413339 171.764447 
L 214.637595 166.814255 
L 211.861769 160.844686 
L 209.085943 154.059948 
L 203.534373 139.083515 
L 197.98272 124.165426 
L 195.206976 117.40236 
L 192.43115 111.370278 
L 189.655323 106.182537 
L 186.879579 101.880813 
L 184.103753 98.441768 
L 181.327927 95.789552 
L 178.552183 93.817477 
L 175.776357 92.403018 
L 173.00053 91.425315 
L 170.224786 90.773514 
L 167.44896 90.35426 
L 161.897143 89.938341 
L 153.569829 89.77164 
L 125.812389 89.744968 
L -1 89.744968 
L -1 89.744968 
" clip-path="url(#p9cd62e9490)" style="fill: none; stroke: #2a788e; stroke-linecap: square"/>
    </g>
    <g id="line2d_62">
     <path d="M 290.159753 125.319832 
L 281.823634 125.425687 
L 276.266304 125.855776 
L 273.487598 126.290866 
L 270.708891 126.964339 
L 267.930185 127.962879 
L 265.151479 129.383173 
L 262.372773 131.319407 
L 259.594149 133.849931 
L 256.815442 137.019754 
L 254.036736 140.824709 
L 251.258038 145.198114 
L 248.479348 150.008276 
L 240.143262 164.961372 
L 237.364572 169.2856 
L 234.585874 172.877177 
L 231.807168 175.542729 
L 229.028462 177.134725 
L 226.249838 177.554812 
L 223.471131 176.750479 
L 220.692425 174.71089 
L 217.913719 171.469386 
L 215.135013 167.100981 
L 212.356306 161.729036 
L 209.5776 155.522751 
L 206.798976 148.695505 
L 198.462857 127.046856 
L 195.684151 120.301293 
L 192.905445 114.15252 
L 190.126821 108.737233 
L 187.348114 104.129612 
L 184.569408 100.342161 
L 181.790702 97.333205 
L 179.011995 95.022727 
L 176.233289 93.309872 
L 173.454583 92.081285 
L 170.675959 91.230275 
L 167.897253 90.66099 
L 165.118546 90.292581 
L 159.561051 89.923338 
L 151.224686 89.770806 
L 123.438446 89.744968 
L -1 89.744968 
L -1 89.744968 
" clip-path="url(#p9cd62e9490)" style="fill: none; stroke: #26828e; stroke-linecap: square"/>
    </g>
    <g id="line2d_63">
     <path d="M 294.685879 125.318165 
L 286.281627 125.366508 
L 280.678711 125.668238 
L 277.877294 125.979135 
L 275.075877 126.465069 
L 272.274459 127.197721 
L 269.47296 128.25794 
L 266.671543 129.733246 
L 263.870126 131.705321 
L 261.068709 134.237512 
L 258.267209 137.362325 
L 255.465792 141.063091 
L 252.664367 145.271462 
L 247.061499 154.652571 
L 244.260058 159.432727 
L 241.458624 163.968666 
L 238.65719 168.028674 
L 235.85579 171.401038 
L 233.05429 173.908224 
L 230.252873 175.412702 
L 227.451456 175.819453 
L 224.650039 175.074299 
L 221.848539 173.164737 
L 219.047122 170.116606 
L 216.245705 165.996586 
L 213.444288 160.915534 
L 210.642871 155.026815 
L 207.841371 148.525469 
L 196.635621 121.113961 
L 193.834203 115.058541 
L 191.032786 109.669926 
L 188.231369 105.030632 
L 185.429952 101.166499 
L 182.628453 98.050854 
L 179.827035 95.62035 
L 177.025618 93.786638 
L 174.224201 92.44636 
L 171.422702 91.498664 
L 168.621285 90.85103 
L 165.819867 90.421774 
L 160.216869 89.976682 
L 151.813029 89.781642 
L 129.400869 89.744968 
L -1 89.744968 
L -1 89.744968 
" clip-path="url(#p9cd62e9490)" style="fill: none; stroke: #228b8d; stroke-linecap: square"/>
    </g>
    <g id="line2d_64">
     <path d="M 296.166693 125.315665 
L 287.740059 125.378178 
L 282.122249 125.685741 
L 279.313426 125.991638 
L 276.504521 126.463402 
L 273.695616 127.163547 
L 270.886793 128.164588 
L 268.077888 129.543206 
L 265.268983 131.372752 
L 262.46016 133.709069 
L 259.651255 136.584664 
L 256.84235 139.990369 
L 254.033486 143.872006 
L 251.224613 148.12622 
L 242.797972 161.476484 
L 239.989092 165.454807 
L 237.180178 168.860512 
L 234.371355 171.521897 
L 231.56245 173.298098 
L 228.753545 174.085761 
L 225.944722 173.818205 
L 223.135817 172.465425 
L 220.326912 170.034089 
L 217.518089 166.565037 
L 214.709184 162.141621 
L 211.900279 156.8847 
L 209.091456 150.953472 
L 203.473646 137.86743 
L 197.855918 124.633023 
L 195.047013 118.490918 
L 192.23819 112.888925 
L 189.429285 107.938734 
L 186.620379 103.700357 
L 183.811557 100.182128 
L 181.002651 97.351542 
L 178.193746 95.145252 
L 175.384923 93.476573 
L 172.576018 92.254654 
L 169.767113 91.386974 
L 166.958208 90.790184 
L 164.149303 90.391768 
L 158.531657 89.972515 
L 150.104777 89.783309 
L 127.634194 89.744968 
L -1 89.744968 
L -1 89.744968 
" clip-path="url(#p9cd62e9490)" style="fill: none; stroke: #1f958b; stroke-linecap: square"/>
    </g>
    <g id="line2d_65">
     <path d="M 301.104247 125.313164 
L 289.769472 125.363174 
L 284.102126 125.631563 
L 281.268453 125.897452 
L 278.434779 126.305036 
L 275.601024 126.909328 
L 272.767351 127.774507 
L 269.933678 128.968087 
L 267.100005 130.55925 
L 264.266331 132.60384 
L 261.432576 135.140198 
L 258.598903 138.17416 
L 255.76523 141.673218 
L 252.931548 145.563189 
L 241.596798 162.199967 
L 238.763109 165.730698 
L 235.929435 168.650469 
L 233.095762 170.810916 
L 230.262007 172.095349 
L 227.428334 172.418749 
L 224.594661 171.73194 
L 221.760987 170.016585 
L 218.927314 167.291021 
L 216.093641 163.606925 
L 213.259886 159.053482 
L 210.426213 153.756552 
L 207.592539 147.876168 
L 201.925193 135.141865 
L 196.257765 122.495081 
L 193.424091 116.686378 
L 190.590418 111.41612 
L 187.756745 106.77766 
L 184.92299 102.817674 
L 182.089317 99.536161 
L 179.255643 96.897282 
L 176.42197 94.838522 
L 173.588297 93.279866 
L 170.754624 92.134629 
L 167.920869 91.318627 
L 165.087195 90.75351 
L 162.25344 90.374264 
L 156.586423 89.970014 
L 148.085486 89.784142 
L 125.415771 89.744968 
L -1 89.744968 
L -1 89.744968 
" clip-path="url(#p9cd62e9490)" style="fill: none; stroke: #1f9f88; stroke-linecap: square"/>
    </g>
    <g id="line2d_66">
     <path d="M 308.098121 125.310664 
L 293.753993 125.353172 
L 288.016293 125.593222 
L 285.147483 125.829938 
L 282.278674 126.192513 
L 279.409783 126.729291 
L 276.540974 127.496116 
L 273.672165 128.556335 
L 270.803273 129.971628 
L 267.934464 131.79784 
L 265.065655 134.075811 
L 262.196763 136.818879 
L 259.327954 140.010373 
L 256.45912 143.592782 
L 250.721445 151.516088 
L 244.983777 159.457733 
L 242.114943 163.0043 
L 239.246126 166.042429 
L 236.377234 168.422088 
L 233.508425 170.018252 
L 230.639616 170.738401 
L 227.770725 170.515855 
L 224.901915 169.319774 
L 222.033106 167.147658 
L 219.164297 164.031179 
L 216.295406 160.037853 
L 213.426597 155.267698 
L 210.557787 149.857412 
L 207.688896 143.971193 
L 196.213577 119.516131 
L 193.344768 114.090841 
L 190.475877 109.219832 
L 187.607067 104.97312 
L 184.738258 101.377376 
L 181.869367 98.421764 
L 179.000558 96.060442 
L 176.131749 94.229229 
L 173.262857 92.849777 
L 170.394048 91.840401 
L 167.525239 91.122753 
L 164.656183 90.62765 
L 161.787703 90.295915 
L 156.04992 89.943342 
L 147.443657 89.779975 
L 124.492526 89.744968 
L -1 89.744968 
L -1 89.744968 
" clip-path="url(#p9cd62e9490)" style="fill: none; stroke: #22a884; stroke-linecap: square"/>
    </g>
    <g id="line2d_67">
     <path d="M 308.592329 125.308997 
L 297.107054 125.362341 
L 291.364416 125.604891 
L 288.493138 125.838273 
L 285.621778 126.189179 
L 282.750501 126.701785 
L 279.879141 127.426935 
L 277.007863 128.417973 
L 274.136503 129.732412 
L 271.265225 131.419428 
L 268.393865 133.514862 
L 265.522587 136.035384 
L 262.651227 138.968491 
L 259.779933 142.270008 
L 256.908623 145.862418 
L 248.294666 157.172259 
L 245.423355 160.623807 
L 242.552037 163.656935 
L 239.680759 166.129114 
L 236.809399 167.920318 
L 233.938121 168.930527 
L 231.066761 169.088893 
L 228.195483 168.35124 
L 225.324123 166.700899 
L 222.452846 164.152871 
L 219.581486 160.749667 
L 216.710208 156.567134 
L 213.838848 151.713629 
L 210.96757 146.325014 
L 205.224933 134.603421 
L 199.482295 122.816814 
L 196.610935 117.322343 
L 193.739657 112.273798 
L 190.868297 107.764531 
L 187.997019 103.847054 
L 185.125742 100.538035 
L 182.254382 97.819139 
L 179.383104 95.646189 
L 176.511744 93.957506 
L 173.640466 92.680575 
L 170.769106 91.741214 
L 167.897417 91.069408 
L 165.026469 90.602645 
L 159.283749 90.07837 
L 153.541029 89.861658 
L 142.055589 89.755803 
L 73.144594 89.744968 
L -1 89.744968 
L -1 89.744968 
" clip-path="url(#p9cd62e9490)" style="fill: none; stroke: #2cb17e; stroke-linecap: square"/>
    </g>
    <g id="line2d_68">
     <path d="M 313.940489 125.306496 
L 302.347749 125.356506 
L 296.551378 125.582386 
L 290.754926 126.118331 
L 287.856741 126.584261 
L 284.958555 127.241897 
L 282.06037 128.139582 
L 279.162185 129.328162 
L 276.264 130.855145 
L 273.365815 132.756372 
L 270.46763 135.05018 
L 267.569445 137.732402 
L 264.671177 140.771364 
L 261.773017 144.103721 
L 250.180243 158.20414 
L 247.28205 161.240602 
L 244.383881 163.801132 
L 241.485696 165.764872 
L 238.587511 167.028466 
L 235.689243 167.513567 
L 232.791058 167.166828 
L 229.892873 165.959078 
L 226.994688 163.890317 
L 224.096503 160.985549 
L 221.198318 157.302286 
L 218.300133 152.927214 
L 215.401947 147.973688 
L 212.503762 142.583406 
L 200.910939 119.921214 
L 198.012754 114.778483 
L 195.114569 110.099181 
L 192.216384 105.95499 
L 189.318199 102.383417 
L 186.420014 99.38613 
L 183.521746 96.938123 
L 180.623561 94.991054 
L 177.725376 93.484908 
L 174.827191 92.34884 
L 171.929417 91.516168 
L 169.030491 90.921044 
L 166.132389 90.507625 
L 160.336183 90.042529 
L 154.539977 89.849989 
L 142.946743 89.75497 
L 73.390629 89.744968 
L -1 89.744968 
L -1 89.744968 
" clip-path="url(#p9cd62e9490)" style="fill: none; stroke: #3bbb75; stroke-linecap: square"/>
    </g>
    <g id="line2d_69">
     <path d="M 317.396983 125.303995 
L 302.819163 125.374843 
L 296.988069 125.618227 
L 291.156891 126.175009 
L 288.241344 126.649274 
L 285.325797 127.308577 
L 282.410249 128.197928 
L 279.494702 129.362336 
L 276.579072 130.844309 
L 273.663525 132.673854 
L 270.747977 134.866808 
L 267.83243 137.417336 
L 264.916882 140.295432 
L 262.001302 143.443584 
L 250.339055 156.774677 
L 247.423499 159.672777 
L 244.507968 162.139954 
L 241.592338 164.062019 
L 238.676791 165.340617 
L 235.761243 165.899899 
L 232.845696 165.683188 
L 229.930149 164.660476 
L 227.014601 162.823429 
L 224.098971 160.190384 
L 221.183424 156.808017 
L 218.267877 152.750511 
L 215.352329 148.117051 
L 212.436782 143.031832 
L 206.605687 132.097068 
L 200.77451 121.183976 
L 197.858962 116.09959 
L 194.943415 111.418621 
L 192.027867 107.221085 
L 189.11232 103.553659 
L 186.19669 100.431346 
L 183.281143 97.841644 
L 180.365595 95.74871 
L 177.450048 94.099202 
L 174.534501 92.83394 
L 171.6192 91.887078 
L 168.702994 91.196935 
L 165.787611 90.706833 
L 159.956846 90.138382 
L 154.125257 89.891665 
L 145.379109 89.772473 
L 113.307429 89.744968 
L -1 89.744968 
L -1 89.744968 
" clip-path="url(#p9cd62e9490)" style="fill: none; stroke: #4ec36b; stroke-linecap: square"/>
    </g>
    <g id="line2d_70">
     <path d="M 320.112 125.301495 
L 302.536759 125.391514 
L 296.678345 125.648233 
L 290.819931 126.215851 
L 287.890725 126.690949 
L 284.961518 127.341917 
L 282.032311 128.211264 
L 279.103104 129.338164 
L 276.173897 130.760958 
L 273.24469 132.504653 
L 270.315483 134.58425 
L 267.386277 136.993082 
L 264.45707 139.70281 
L 261.527879 142.663422 
L 249.81106 155.251862 
L 246.881853 158.026603 
L 243.952622 160.417098 
L 241.023415 162.314991 
L 238.094208 163.627762 
L 235.165001 164.280398 
L 232.235794 164.215384 
L 229.306587 163.396881 
L 226.377381 161.81322 
L 223.448174 159.474403 
L 220.518967 156.415436 
L 217.58976 152.696333 
L 214.660553 148.402944 
L 211.731346 143.644459 
L 205.872933 133.257309 
L 200.014519 122.672617 
L 197.085312 117.654078 
L 194.156105 112.97561 
L 191.226898 108.722229 
L 188.297691 104.952282 
L 185.368485 101.692441 
L 182.439278 98.944372 
L 179.510153 96.683904 
L 176.580946 94.870195 
L 173.651739 93.450735 
L 170.722286 92.368011 
L 167.792914 91.561177 
L 164.864366 90.975222 
L 161.934994 90.559303 
L 156.076251 90.079203 
L 150.218331 89.869993 
L 138.500846 89.758304 
L 76.98816 89.744968 
L -1 89.744968 
L -1 89.744968 
" clip-path="url(#p9cd62e9490)" style="fill: none; stroke: #63cb5f; stroke-linecap: square"/>
    </g>
    <g id="line2d_71">
     <path d="M 330.06816 125.299828 
L 306.234267 125.367342 
L 300.275794 125.584887 
L 294.317321 126.071654 
L 291.338085 126.480072 
L 288.358848 127.043522 
L 285.379611 127.800346 
L 282.400375 128.788884 
L 279.421138 130.044143 
L 276.441902 131.596131 
L 273.462665 133.461518 
L 270.483429 135.642802 
L 267.504192 138.120815 
L 264.524955 140.858049 
L 258.566458 146.840954 
L 252.607976 152.883872 
L 249.62874 155.654445 
L 246.649536 158.105786 
L 243.670299 160.132039 
L 240.691063 161.636517 
L 237.711744 162.53837 
L 234.732507 162.774252 
L 231.753271 162.299988 
L 228.774034 161.090571 
L 225.794798 159.146001 
L 222.815561 156.486284 
L 219.836325 153.158929 
L 216.857088 149.234783 
L 213.877851 144.808033 
L 210.898615 139.992036 
L 196.002432 114.819325 
L 193.023195 110.456755 
L 190.043959 106.53511 
L 187.064722 103.096898 
L 184.085486 100.15629 
L 181.106249 97.701615 
L 178.127013 95.702034 
L 175.147776 94.113372 
L 172.168869 92.88145 
L 169.189303 91.949591 
L 166.209737 91.261115 
L 163.230994 90.765179 
L 157.272686 90.177557 
L 151.313554 89.912502 
L 142.376503 89.779141 
L 115.56288 89.744968 
L -1 89.744968 
L -1 89.744968 
" clip-path="url(#p9cd62e9490)" style="fill: none; stroke: #7ad151; stroke-linecap: square"/>
    </g>
    <g id="line2d_72">
     <path d="M 323.897225 125.297327 
L 309.156069 125.346504 
L 303.259639 125.524041 
L 297.363127 125.914955 
L 294.414912 126.242523 
L 291.466697 126.694283 
L 288.518482 127.302743 
L 285.570267 128.099574 
L 282.622053 129.118952 
L 279.673838 130.388381 
L 276.725541 131.929534 
L 273.777326 133.754912 
L 270.829111 135.85868 
L 267.880896 138.22167 
L 264.932673 140.804704 
L 259.036219 146.38836 
L 253.139764 151.977851 
L 250.191533 154.53588 
L 247.24331 156.802183 
L 244.295095 158.685073 
L 241.34688 160.097865 
L 238.398665 160.968879 
L 235.450368 161.239768 
L 232.502153 160.867191 
L 229.553938 159.827809 
L 226.605723 158.114955 
L 223.657509 155.74363 
L 220.709294 152.74801 
L 217.761079 149.18644 
L 214.812782 145.134767 
L 211.864567 140.691348 
L 205.968137 131.081858 
L 200.071707 121.333173 
L 197.123493 116.703882 
L 194.175195 112.371318 
L 191.226981 108.409665 
L 188.278766 104.872266 
L 185.330551 101.784126 
L 182.382336 99.151081 
L 179.434121 96.955627 
L 176.485906 95.167757 
L 173.53728 93.744129 
L 170.589806 92.636399 
L 167.641509 91.794558 
L 164.693211 91.167762 
L 161.744914 90.713501 
L 155.84832 90.165888 
L 149.951726 89.913336 
L 141.106834 89.781642 
L 114.572983 89.744968 
L -1 89.744968 
L -1 89.744968 
" clip-path="url(#p9cd62e9490)" style="fill: none; stroke: #95d840; stroke-linecap: square"/>
    </g>
    <g id="patch_8">
     <path d="M 140.4 215.496 
L 140.4 73.8 
" style="fill: none; stroke: #000000; stroke-width: 0.8; stroke-linejoin: miter; stroke-linecap: square"/>
    </g>
    <g id="patch_9">
     <path d="M 313.2 215.496 
L 313.2 73.8 
" style="fill: none; stroke: #000000; stroke-width: 0.8; stroke-linejoin: miter; stroke-linecap: square"/>
    </g>
    <g id="patch_10">
     <path d="M 140.4 215.496 
L 313.2 215.496 
" style="fill: none; stroke: #000000; stroke-width: 0.8; stroke-linejoin: miter; stroke-linecap: square"/>
    </g>
    <g id="patch_11">
     <path d="M 140.4 73.8 
L 313.2 73.8 
" style="fill: none; stroke: #000000; stroke-width: 0.8; stroke-linejoin: miter; stroke-linecap: square"/>
    </g>
   </g>
  </g>
 </g>
 <defs>
  <clipPath id="pce484df251">
   <rect x="54" y="14.76" width="288" height="236.16"/>
  </clipPath>
  <clipPath id="p9cd62e9490">
   <rect x="140.4" y="73.8" width="172.8" height="141.696"/>
  </clipPath>
 </defs>
</svg>
