<?xml version="1.0" encoding="utf-8" standalone="no"?>
<!DOCTYPE svg PUBLIC "-//W3C//DTD SVG 1.1//EN"
  "http://www.w3.org/Graphics/SVG/1.1/DTD/svg11.dtd">
<svg xmlns:xlink="http://www.w3.org/1999/xlink" width="360pt" height="295.2pt" viewBox="0 0 360 295.2" xmlns="http://www.w3.org/2000/svg" version="1.1">
 <metadata>
  <rdf:RDF xmlns:dc="http://purl.org/dc/elements/1.1/" xmlns:cc="http://creativecommons.org/ns#" xmlns:rdf="http://www.w3.org/1999/02/22-rdf-syntax-ns#">
   <cc:Work>
    <dc:type rdf:resource="http://purl.org/dc/dcmitype/StillImage"/>
    <dc:date>2025-06-13T11:08:04.955268</dc:date>
    <dc:format>image/svg+xml</dc:format>
    <dc:creator>
     <cc:Agent>
      <dc:title>Matplotlib v3.7.3, https://matplotlib.org/</dc:title>
     </cc:Agent>
    </dc:creator>
   </cc:Work>
  </rdf:RDF>
 </metadata>
 <defs>
  <style type="text/css">*{stroke-linejoin: round; stroke-linecap: butt}</style>
 </defs>
 <g id="figure_1">
  <g id="patch_1">
   <path d="M 0 295.2 
L 360 295.2 
L 360 0 
L 0 0 
z
" style="fill: #ffffff"/>
  </g>
  <g id="axes_1">
   <g id="patch_2">
    <path d="M 54 250.92 
L 342 250.92 
L 342 14.76 
L 54 14.76 
z
" style="fill: #ffffff"/>
   </g>
   <g id="PolyCollection_1">
    <defs>
     <path id="m2d7a32935f" d="M 302.384736 -257.834446 
L 302.384736 -257.357342 
L 301.20233 -257.320082 
L 300.019962 -257.197094 
L 298.837594 -256.830371 
L 297.655188 -256.039493 
L 296.47282 -254.630594 
L 295.290452 -252.343128 
L 294.108053 -249.116583 
L 292.925674 -245.278179 
L 291.743291 -241.308102 
L 290.56091 -237.74453 
L 289.378528 -235.012179 
L 288.196148 -233.288945 
L 287.013761 -232.450721 
L 285.831393 -231.853151 
L 284.648987 -231.721758 
L 283.466619 -231.307969 
L 282.284251 -231.58112 
L 281.101845 -233.221988 
L 279.919477 -235.262077 
L 278.737109 -238.128903 
L 277.554703 -241.35769 
L 276.372335 -245.095518 
L 275.189967 -249.124427 
L 274.007561 -253.184153 
L 272.825193 -256.940191 
L 271.642825 -260.2449 
L 270.460419 -262.823447 
L 269.278051 -264.759318 
L 268.095644 -266.255065 
L 266.913276 -267.367001 
L 265.730908 -268.162921 
L 264.548502 -268.711184 
L 263.366134 -269.075106 
L 262.183766 -269.307354 
L 261.00136 -269.431183 
L 259.818992 -269.463681 
L 258.636624 -269.465642 
L 257.454218 -269.466202 
L 256.27185 -269.466762 
L 255.089482 -269.466762 
L 253.907076 -269.466762 
L 252.724594 -269.466762 
L 251.542226 -269.466762 
L 250.359858 -269.466762 
L 249.177489 -269.466762 
L 247.995121 -269.466762 
L 246.812753 -269.466762 
L 245.630385 -269.466762 
L 244.448017 -269.466762 
L 243.265649 -269.466762 
L 242.083281 -269.466762 
L 240.900913 -269.466762 
L 239.718545 -269.466762 
L 238.536177 -269.466762 
L 237.353809 -269.466762 
L 236.171441 -269.466762 
L 234.989073 -269.466762 
L 233.806705 -269.466762 
L 232.624337 -269.466762 
L 231.441969 -269.466762 
L 230.259601 -269.466762 
L 229.077233 -269.466762 
L 227.894865 -269.466762 
L 226.712497 -269.466762 
L 225.529748 -269.466762 
L 224.34738 -269.466762 
L 223.165012 -269.466762 
L 221.982644 -269.466762 
L 220.800276 -269.466762 
L 219.617908 -269.466762 
L 218.43554 -269.466762 
L 217.253172 -269.466762 
L 216.070804 -269.466762 
L 214.888436 -269.466762 
L 213.706068 -269.466762 
L 212.5237 -269.466762 
L 211.341332 -269.466762 
L 210.158964 -269.466762 
L 208.976596 -269.466762 
L 207.794228 -269.466762 
L 206.61186 -269.466762 
L 205.429492 -269.466762 
L 204.247124 -269.466762 
L 203.064755 -269.466762 
L 201.882387 -269.466762 
L 200.700019 -269.466762 
L 199.517651 -269.466762 
L 198.335283 -269.466762 
L 197.152915 -269.466762 
L 195.970547 -269.466762 
L 194.788179 -269.466762 
L 193.605811 -269.466762 
L 192.423063 -269.466762 
L 191.240695 -269.466762 
L 190.058327 -269.466762 
L 188.875959 -269.466762 
L 187.69359 -269.466762 
L 186.511222 -269.466762 
L 185.328854 -269.466762 
L 184.146486 -269.466762 
L 182.964118 -269.466762 
L 181.78175 -269.466762 
L 180.599382 -269.466762 
L 179.417014 -269.466762 
L 178.234646 -269.466762 
L 177.052278 -269.466762 
L 175.86991 -269.466762 
L 174.687542 -269.466762 
L 173.505174 -269.466762 
L 172.322806 -269.466762 
L 171.140438 -269.466762 
L 169.95807 -269.466762 
L 168.775702 -269.466762 
L 167.593334 -269.466762 
L 166.410966 -269.466762 
L 165.228598 -269.466762 
L 164.04623 -269.466762 
L 162.863862 -269.466762 
L 161.681494 -269.466762 
L 160.499126 -269.466762 
L 159.316758 -269.466762 
L 158.134009 -269.466762 
L 156.951641 -269.466762 
L 155.769273 -269.466762 
L 154.586905 -269.466762 
L 153.404537 -269.466762 
L 152.222169 -269.466762 
L 151.039801 -269.466762 
L 149.857433 -269.466762 
L 148.675065 -269.466762 
L 147.492697 -269.466762 
L 146.310329 -269.466762 
L 145.127961 -269.466762 
L 143.945593 -269.466762 
L 142.763225 -269.466762 
L 141.580856 -269.466762 
L 140.398488 -269.466762 
L 139.21612 -269.466762 
L 138.033752 -269.466762 
L 136.851384 -269.466762 
L 135.669016 -269.466762 
L 134.486648 -269.466762 
L 133.30428 -269.466762 
L 132.121912 -269.466762 
L 130.939544 -269.466762 
L 129.757176 -269.466762 
L 128.574808 -269.466762 
L 127.39244 -269.466762 
L 126.210072 -269.466762 
L 125.027323 -269.466762 
L 123.844955 -269.466762 
L 122.662587 -269.466762 
L 121.480219 -269.466762 
L 120.297851 -269.466762 
L 119.115483 -269.466762 
L 117.933115 -269.466762 
L 116.750747 -269.466762 
L 115.568379 -269.466762 
L 114.386011 -269.466762 
L 113.203643 -269.466762 
L 112.021275 -269.466762 
L 110.838907 -269.466762 
L 109.656539 -269.466762 
L 108.474171 -269.466762 
L 107.291803 -269.466762 
L 106.109435 -269.466762 
L 104.927067 -269.466762 
L 103.744699 -269.466762 
L 102.562331 -269.464801 
L 101.379963 -269.44379 
L 100.197595 -269.238156 
L 99.015227 -267.4376 
L 97.832859 -259.701679 
L 96.650491 -238.12386 
L 95.468123 -197.125136 
L 94.285754 -144.157068 
L 93.103386 -97.601105 
L 91.921018 -69.761933 
L 90.73827 -58.518724 
L 89.555902 -55.923088 
L 88.373534 -55.139775 
L 87.191166 -55.327198 
L 86.008798 -55.014545 
L 84.82643 -56.347523 
L 83.644062 -58.895813 
L 82.461694 -62.911275 
L 81.279326 -69.298053 
L 80.096957 -78.447131 
L 78.914589 -89.785452 
L 77.732221 -102.544664 
L 76.549853 -115.397419 
L 75.367485 -126.765886 
L 74.185117 -135.876807 
L 73.002749 -142.367158 
L 71.820381 -146.493841 
L 70.638013 -148.835097 
L 69.455645 -150.020432 
L 68.273277 -150.557209 
L 67.090909 -150.754999 
L 67.090909 -150.760882 
L 67.090909 -150.760882 
L 68.273277 -150.760602 
L 69.455645 -150.760602 
L 70.638013 -150.705692 
L 71.820381 -150.382113 
L 73.002749 -149.621492 
L 74.185117 -148.023768 
L 75.367485 -145.024988 
L 76.549853 -139.995926 
L 77.732221 -132.460036 
L 78.914589 -122.369693 
L 80.096957 -110.29759 
L 81.279326 -97.392137 
L 82.461694 -85.064812 
L 83.644062 -74.543451 
L 84.82643 -66.519811 
L 86.008798 -61.100633 
L 87.191166 -57.941605 
L 88.373534 -63.203476 
L 89.555902 -82.611915 
L 90.73827 -121.348528 
L 91.921018 -174.838524 
L 93.103386 -223.180672 
L 94.285754 -253.289211 
L 95.468123 -265.589697 
L 96.650491 -268.940351 
L 97.832859 -269.577144 
L 99.015227 -269.680801 
L 100.197595 -269.698451 
L 101.379963 -269.704334 
L 102.562331 -269.705174 
L 103.744699 -269.705455 
L 104.927067 -269.705455 
L 106.109435 -269.705455 
L 107.291803 -269.705455 
L 108.474171 -269.705455 
L 109.656539 -269.705455 
L 110.838907 -269.705455 
L 112.021275 -269.705455 
L 113.203643 -269.705455 
L 114.386011 -269.705455 
L 115.568379 -269.705455 
L 116.750747 -269.705455 
L 117.933115 -269.705455 
L 119.115483 -269.705455 
L 120.297851 -269.705455 
L 121.480219 -269.705455 
L 122.662587 -269.705455 
L 123.844955 -269.705455 
L 125.027323 -269.705455 
L 126.210072 -269.705455 
L 127.39244 -269.705455 
L 128.574808 -269.705455 
L 129.757176 -269.705455 
L 130.939544 -269.705455 
L 132.121912 -269.705455 
L 133.30428 -269.705455 
L 134.486648 -269.705455 
L 135.669016 -269.705455 
L 136.851384 -269.705455 
L 138.033752 -269.705455 
L 139.21612 -269.705455 
L 140.398488 -269.705455 
L 141.580856 -269.705455 
L 142.763225 -269.705455 
L 143.945593 -269.705455 
L 145.127961 -269.705455 
L 146.310329 -269.705455 
L 147.492697 -269.705455 
L 148.675065 -269.705455 
L 149.857433 -269.705455 
L 151.039801 -269.705455 
L 152.222169 -269.705455 
L 153.404537 -269.705455 
L 154.586905 -269.705455 
L 155.769273 -269.705455 
L 156.951641 -269.705455 
L 158.134009 -269.705455 
L 159.316758 -269.705455 
L 160.499126 -269.705455 
L 161.681494 -269.705455 
L 162.863862 -269.705455 
L 164.04623 -269.705455 
L 165.228598 -269.705455 
L 166.410966 -269.705455 
L 167.593334 -269.705455 
L 168.775702 -269.705455 
L 169.95807 -269.705455 
L 171.140438 -269.705455 
L 172.322806 -269.705455 
L 173.505174 -269.705455 
L 174.687542 -269.705455 
L 175.86991 -269.705455 
L 177.052278 -269.705455 
L 178.234646 -269.705455 
L 179.417014 -269.705455 
L 180.599382 -269.705455 
L 181.78175 -269.705455 
L 182.964118 -269.705455 
L 184.146486 -269.705455 
L 185.328854 -269.705455 
L 186.511222 -269.705455 
L 187.69359 -269.705455 
L 188.875959 -269.705455 
L 190.058327 -269.705455 
L 191.240695 -269.705455 
L 192.423063 -269.705455 
L 193.605811 -269.705455 
L 194.788179 -269.705455 
L 195.970547 -269.705455 
L 197.152915 -269.705455 
L 198.335283 -269.705455 
L 199.517651 -269.705455 
L 200.700019 -269.705455 
L 201.882387 -269.705455 
L 203.064755 -269.705455 
L 204.247124 -269.705455 
L 205.429492 -269.705455 
L 206.61186 -269.705455 
L 207.794228 -269.705455 
L 208.976596 -269.705455 
L 210.158964 -269.705455 
L 211.341332 -269.705455 
L 212.5237 -269.705455 
L 213.706068 -269.705455 
L 214.888436 -269.705455 
L 216.070804 -269.705455 
L 217.253172 -269.705455 
L 218.43554 -269.705455 
L 219.617908 -269.705455 
L 220.800276 -269.705455 
L 221.982644 -269.705455 
L 223.165012 -269.705455 
L 224.34738 -269.705455 
L 225.529748 -269.705455 
L 226.712497 -269.705455 
L 227.894865 -269.705455 
L 229.077233 -269.705455 
L 230.259601 -269.705455 
L 231.441969 -269.705455 
L 232.624337 -269.705455 
L 233.806705 -269.705455 
L 234.989073 -269.705455 
L 236.171441 -269.705455 
L 237.353809 -269.705455 
L 238.536177 -269.705455 
L 239.718545 -269.705455 
L 240.900913 -269.705455 
L 242.083281 -269.705455 
L 243.265649 -269.705455 
L 244.448017 -269.705455 
L 245.630385 -269.705455 
L 246.812753 -269.705455 
L 247.995121 -269.705455 
L 249.177489 -269.705455 
L 250.359858 -269.705455 
L 251.542226 -269.705174 
L 252.724594 -269.705174 
L 253.907076 -269.705174 
L 255.089482 -269.704894 
L 256.27185 -269.704054 
L 257.454218 -269.702653 
L 258.636624 -269.700972 
L 259.818992 -269.696209 
L 261.00136 -269.684723 
L 262.183766 -269.660069 
L 263.366134 -269.638778 
L 264.548502 -269.556692 
L 265.730908 -269.458358 
L 266.913276 -269.294187 
L 268.095644 -269.018514 
L 269.278051 -268.508632 
L 270.460419 -267.63707 
L 271.642825 -266.260388 
L 272.825193 -264.319474 
L 274.007561 -261.765021 
L 275.189967 -258.733464 
L 276.372335 -255.090328 
L 277.554703 -251.145185 
L 278.737109 -247.158019 
L 279.919477 -243.395817 
L 281.101845 -240.083545 
L 282.284251 -237.366882 
L 283.466619 -235.309983 
L 284.648987 -234.339246 
L 285.831393 -235.983196 
L 287.013761 -238.463408 
L 288.196148 -241.540071 
L 289.378528 -244.687612 
L 290.56091 -247.725893 
L 291.743291 -250.401374 
L 292.925674 -252.666427 
L 294.108053 -254.438687 
L 295.290452 -255.724599 
L 296.47282 -256.595041 
L 297.655188 -257.156471 
L 298.837594 -257.510867 
L 300.019962 -257.704174 
L 301.20233 -257.801388 
L 302.384736 -257.834446 
z
" style="stroke: #1f77b4; stroke-opacity: 0.2"/>
    </defs>
    <g clip-path="url(#pd83fe5e9c4)">
     <use xlink:href="#m2d7a32935f" x="0" y="295.2" style="fill: #1f77b4; fill-opacity: 0.2; stroke: #1f77b4; stroke-opacity: 0.2"/>
    </g>
   </g>
   <g id="PolyCollection_2">
    <defs>
     <path id="me0cab2d35f" d="M 328.909091 -257.849855 
L 328.909091 -257.375272 
L 327.593454 -257.375272 
L 326.27778 -257.375272 
L 324.962105 -257.361545 
L 323.646431 -257.334089 
L 322.330756 -257.288144 
L 321.015081 -257.215024 
L 319.699407 -257.102401 
L 318.38377 -256.934588 
L 317.068096 -256.688612 
L 315.752421 -256.256333 
L 314.436746 -255.678373 
L 313.121072 -254.920274 
L 311.805397 -253.965786 
L 310.489722 -252.856092 
L 309.174086 -251.574943 
L 307.858396 -250.208347 
L 306.542729 -248.819618 
L 305.227059 -247.516057 
L 303.911391 -246.351173 
L 302.59572 -245.337011 
L 301.280038 -244.482258 
L 299.964364 -243.79784 
L 298.648727 -243.261903 
L 297.333052 -242.916752 
L 296.017378 -242.612784 
L 294.701703 -242.125314 
L 293.386029 -241.929766 
L 292.070354 -242.235976 
L 290.754679 -243.14816 
L 289.439043 -244.520079 
L 288.123368 -246.277772 
L 286.807694 -248.566358 
L 285.492019 -251.328126 
L 284.176344 -254.282641 
L 282.86067 -257.422899 
L 281.544995 -260.2096 
L 280.229321 -262.662358 
L 278.913684 -264.721777 
L 277.598009 -266.273276 
L 276.282335 -267.423032 
L 274.96666 -268.253131 
L 273.650986 -268.81232 
L 272.335311 -269.163635 
L 271.019636 -269.337051 
L 269.704 -269.402607 
L 268.388325 -269.44379 
L 267.07246 -269.463401 
L 265.7569 -269.465642 
L 264.441339 -269.466482 
L 263.125779 -269.466762 
L 261.809838 -269.466762 
L 260.494278 -269.466762 
L 259.178717 -269.466762 
L 257.862776 -269.466762 
L 256.547216 -269.466762 
L 255.231655 -269.466762 
L 253.916095 -269.466762 
L 252.600154 -269.466762 
L 251.284593 -269.466762 
L 249.969033 -269.466762 
L 248.653092 -269.466762 
L 247.337531 -269.466762 
L 246.021971 -269.466762 
L 244.706411 -269.466762 
L 243.39047 -269.466762 
L 242.074909 -269.466762 
L 240.759349 -269.466762 
L 239.443408 -269.466762 
L 238.127847 -269.466762 
L 236.812287 -269.466762 
L 235.496726 -269.466762 
L 234.180785 -269.466762 
L 232.865225 -269.466762 
L 231.549664 -269.466762 
L 230.233724 -269.466762 
L 228.918163 -269.466762 
L 227.602603 -269.466762 
L 226.287042 -269.466762 
L 224.971101 -269.466762 
L 223.655541 -269.466762 
L 222.33998 -269.466762 
L 221.024039 -269.466762 
L 219.708479 -269.466762 
L 218.392918 -269.466762 
L 217.077358 -269.466762 
L 215.761417 -269.466762 
L 214.445857 -269.466762 
L 213.130296 -269.466762 
L 211.814355 -269.466762 
L 210.498795 -269.466762 
L 209.183234 -269.466762 
L 207.867674 -269.466762 
L 206.551733 -269.466762 
L 205.236172 -269.466762 
L 203.920612 -269.466762 
L 202.604671 -269.466762 
L 201.28911 -269.466762 
L 199.97355 -269.466762 
L 198.65799 -269.466762 
L 197.342049 -269.466762 
L 196.026488 -269.466762 
L 194.710928 -269.466762 
L 193.394987 -269.466762 
L 192.079426 -269.466762 
L 190.763866 -269.466762 
L 189.448305 -269.466762 
L 188.132364 -269.466762 
L 186.816804 -269.466762 
L 185.501243 -269.466762 
L 184.185302 -269.466762 
L 182.869742 -269.466762 
L 181.554182 -269.466762 
L 180.238621 -269.466762 
L 178.92268 -269.466762 
L 177.60712 -269.466762 
L 176.291559 -269.466762 
L 174.975618 -269.466762 
L 173.660058 -269.466762 
L 172.344497 -269.466762 
L 171.028937 -269.466762 
L 169.712996 -269.466762 
L 168.397435 -269.466762 
L 167.081875 -269.466762 
L 165.765934 -269.466762 
L 164.450374 -269.466762 
L 163.134813 -269.466762 
L 161.819253 -269.466762 
L 160.503312 -269.466762 
L 159.187751 -269.466762 
L 157.872191 -269.466762 
L 156.55625 -269.466762 
L 155.240689 -269.466762 
L 153.925129 -269.466762 
L 152.609568 -269.466762 
L 151.293627 -269.466762 
L 149.978067 -269.466762 
L 148.662507 -269.466762 
L 147.346566 -269.466762 
L 146.031005 -269.466762 
L 144.715445 -269.466762 
L 143.399884 -269.466762 
L 142.083943 -269.466762 
L 140.768383 -269.466762 
L 139.452822 -269.466762 
L 138.136881 -269.466762 
L 136.821321 -269.466762 
L 135.50576 -269.466762 
L 134.1902 -269.466762 
L 132.874259 -269.466762 
L 131.558699 -269.466762 
L 130.243138 -269.466762 
L 128.927197 -269.466762 
L 127.611637 -269.466762 
L 126.296076 -269.466762 
L 124.980516 -269.466762 
L 123.664575 -269.466762 
L 122.349014 -269.466762 
L 121.033454 -269.466762 
L 119.717513 -269.466762 
L 118.401952 -269.466762 
L 117.086392 -269.466762 
L 115.770832 -269.466762 
L 114.454891 -269.466762 
L 113.13933 -269.466762 
L 111.82377 -269.466762 
L 110.507829 -269.466762 
L 109.192268 -269.466762 
L 107.876708 -269.466762 
L 106.561147 -269.466762 
L 105.245206 -269.466762 
L 103.929646 -269.466762 
L 102.614086 -269.466762 
L 101.298145 -269.465642 
L 99.982584 -268.916538 
L 98.667024 -265.143971 
L 97.351463 -250.004394 
L 96.035522 -212.511529 
L 94.719962 -155.176405 
L 93.404401 -101.015242 
L 92.08846 -69.440539 
L 90.7729 -58.171052 
L 89.457339 -55.559167 
L 88.141779 -55.181238 
L 86.825838 -55.154623 
L 85.510278 -55.269767 
L 84.194717 -57.331147 
L 82.878776 -61.193364 
L 81.563216 -67.673546 
L 80.247655 -77.226467 
L 78.932095 -89.638959 
L 77.616154 -103.849486 
L 76.300593 -117.840988 
L 74.985033 -129.898019 
L 73.669092 -138.927415 
L 72.353531 -144.765285 
L 71.037971 -148.086522 
L 69.722411 -149.753445 
L 68.40647 -150.481848 
L 67.090909 -150.754999 
L 67.090909 -150.760602 
L 67.090909 -150.760602 
L 68.40647 -150.760042 
L 69.722411 -150.759762 
L 71.037971 -150.681878 
L 72.353531 -150.251 
L 73.669092 -149.158956 
L 74.985033 -146.759988 
L 76.300593 -142.191501 
L 77.616154 -134.646366 
L 78.932095 -123.843589 
L 80.247655 -110.432232 
L 81.563216 -95.995873 
L 82.878776 -82.521957 
L 84.194717 -71.618548 
L 85.510278 -63.91451 
L 86.825838 -59.230598 
L 88.141779 -61.363418 
L 89.457339 -80.837525 
L 90.7729 -123.5018 
L 92.08846 -181.682151 
L 93.404401 -232.271982 
L 94.719962 -259.328233 
L 96.035522 -267.825054 
L 97.351463 -269.455556 
L 98.667024 -269.67968 
L 99.982584 -269.704054 
L 101.298145 -269.705174 
L 102.614086 -269.705455 
L 103.929646 -269.705455 
L 105.245206 -269.705455 
L 106.561147 -269.705455 
L 107.876708 -269.705455 
L 109.192268 -269.705455 
L 110.507829 -269.705455 
L 111.82377 -269.705455 
L 113.13933 -269.705455 
L 114.454891 -269.705455 
L 115.770832 -269.705455 
L 117.086392 -269.705455 
L 118.401952 -269.705455 
L 119.717513 -269.705455 
L 121.033454 -269.705455 
L 122.349014 -269.705455 
L 123.664575 -269.705455 
L 124.980516 -269.705455 
L 126.296076 -269.705455 
L 127.611637 -269.705455 
L 128.927197 -269.705455 
L 130.243138 -269.705455 
L 131.558699 -269.705455 
L 132.874259 -269.705455 
L 134.1902 -269.705455 
L 135.50576 -269.705455 
L 136.821321 -269.705455 
L 138.136881 -269.705455 
L 139.452822 -269.705455 
L 140.768383 -269.705455 
L 142.083943 -269.705455 
L 143.399884 -269.705455 
L 144.715445 -269.705455 
L 146.031005 -269.705455 
L 147.346566 -269.705455 
L 148.662507 -269.705455 
L 149.978067 -269.705455 
L 151.293627 -269.705455 
L 152.609568 -269.705455 
L 153.925129 -269.705455 
L 155.240689 -269.705455 
L 156.55625 -269.705455 
L 157.872191 -269.705455 
L 159.187751 -269.705455 
L 160.503312 -269.705455 
L 161.819253 -269.705455 
L 163.134813 -269.705455 
L 164.450374 -269.705455 
L 165.765934 -269.705455 
L 167.081875 -269.705455 
L 168.397435 -269.705455 
L 169.712996 -269.705455 
L 171.028937 -269.705455 
L 172.344497 -269.705455 
L 173.660058 -269.705455 
L 174.975618 -269.705455 
L 176.291559 -269.705455 
L 177.60712 -269.705455 
L 178.92268 -269.705455 
L 180.238621 -269.705455 
L 181.554182 -269.705455 
L 182.869742 -269.705455 
L 184.185302 -269.705455 
L 185.501243 -269.705455 
L 186.816804 -269.705455 
L 188.132364 -269.705455 
L 189.448305 -269.705455 
L 190.763866 -269.705455 
L 192.079426 -269.705455 
L 193.394987 -269.705455 
L 194.710928 -269.705455 
L 196.026488 -269.705455 
L 197.342049 -269.705455 
L 198.65799 -269.705455 
L 199.97355 -269.705455 
L 201.28911 -269.705455 
L 202.604671 -269.705455 
L 203.920612 -269.705455 
L 205.236172 -269.705455 
L 206.551733 -269.705455 
L 207.867674 -269.705455 
L 209.183234 -269.705455 
L 210.498795 -269.705455 
L 211.814355 -269.705455 
L 213.130296 -269.705455 
L 214.445857 -269.705455 
L 215.761417 -269.705455 
L 217.077358 -269.705455 
L 218.392918 -269.705455 
L 219.708479 -269.705455 
L 221.024039 -269.705455 
L 222.33998 -269.705455 
L 223.655541 -269.705455 
L 224.971101 -269.705455 
L 226.287042 -269.705455 
L 227.602603 -269.705455 
L 228.918163 -269.705455 
L 230.233724 -269.705455 
L 231.549664 -269.705455 
L 232.865225 -269.705455 
L 234.180785 -269.705455 
L 235.496726 -269.705455 
L 236.812287 -269.705455 
L 238.127847 -269.705455 
L 239.443408 -269.705455 
L 240.759349 -269.705455 
L 242.074909 -269.705455 
L 243.39047 -269.705455 
L 244.706411 -269.705455 
L 246.021971 -269.705455 
L 247.337531 -269.705455 
L 248.653092 -269.705455 
L 249.969033 -269.705455 
L 251.284593 -269.705455 
L 252.600154 -269.705455 
L 253.916095 -269.705455 
L 255.231655 -269.705455 
L 256.547216 -269.705455 
L 257.862776 -269.705455 
L 259.178717 -269.705455 
L 260.494278 -269.705174 
L 261.809838 -269.705174 
L 263.125779 -269.705174 
L 264.441339 -269.704614 
L 265.7569 -269.702933 
L 267.07246 -269.698171 
L 268.388325 -269.686684 
L 269.704 -269.665673 
L 271.019636 -269.648303 
L 272.335311 -269.622529 
L 273.650986 -269.564256 
L 274.96666 -269.453035 
L 276.282335 -269.273175 
L 277.598009 -268.907293 
L 278.913684 -268.268259 
L 280.229321 -267.315732 
L 281.544995 -265.877977 
L 282.86067 -263.880752 
L 284.176344 -261.483745 
L 285.492019 -258.832078 
L 286.807694 -255.974497 
L 288.123368 -253.082457 
L 289.439043 -250.306121 
L 290.754679 -247.893986 
L 292.070354 -245.956714 
L 293.386029 -244.741962 
L 294.701703 -243.902618 
L 296.017378 -244.384204 
L 297.333052 -245.11737 
L 298.648727 -245.959796 
L 299.964364 -246.920448 
L 301.280038 -248.039106 
L 302.59572 -249.193065 
L 303.911391 -250.335257 
L 305.227059 -251.466523 
L 306.542729 -252.539236 
L 307.858396 -253.496246 
L 309.174086 -254.331108 
L 310.489722 -255.043822 
L 311.805397 -255.656521 
L 313.121072 -256.167524 
L 314.436746 -256.595041 
L 315.752421 -256.920581 
L 317.068096 -257.193452 
L 318.38377 -257.38956 
L 319.699407 -257.540844 
L 321.015081 -257.662431 
L 322.330756 -257.740875 
L 323.646431 -257.789902 
L 324.962105 -257.819038 
L 326.27778 -257.839489 
L 327.593454 -257.849575 
L 328.909091 -257.849855 
z
" style="stroke: #ff7f0e; stroke-opacity: 0.2"/>
    </defs>
    <g clip-path="url(#pd83fe5e9c4)">
     <use xlink:href="#me0cab2d35f" x="0" y="295.2" style="fill: #ff7f0e; fill-opacity: 0.2; stroke: #ff7f0e; stroke-opacity: 0.2"/>
    </g>
   </g>
   <g id="PolyCollection_3">
    <defs>
     <path id="m104cd3db3e" d="M 326.816143 -257.863022 
L 326.816143 -257.383957 
L 325.510972 -257.383957 
L 324.205839 -257.383957 
L 322.900667 -257.383957 
L 321.595534 -257.383397 
L 320.290362 -257.319802 
L 318.985229 -257.295148 
L 317.680058 -257.194012 
L 316.374924 -257.026759 
L 315.069753 -256.785826 
L 313.764619 -256.464768 
L 312.459448 -255.90698 
L 311.154315 -254.756663 
L 309.849162 -253.373818 
L 308.54401 -252.005821 
L 307.238859 -250.866151 
L 305.933709 -250.067429 
L 304.628556 -249.596768 
L 303.3234 -249.365921 
L 302.018267 -248.875089 
L 300.713095 -248.594934 
L 299.407962 -248.372771 
L 298.10279 -248.114748 
L 296.797657 -247.61159 
L 295.492486 -247.420524 
L 294.187352 -247.570967 
L 292.882181 -248.071324 
L 291.577047 -248.886015 
L 290.271876 -250.001032 
L 288.966743 -251.277979 
L 287.661571 -252.983002 
L 286.356438 -254.908788 
L 285.051266 -257.114168 
L 283.746133 -259.508092 
L 282.440962 -261.707589 
L 281.135828 -263.559134 
L 279.830657 -265.159939 
L 278.525523 -266.453135 
L 277.220352 -267.453288 
L 275.915219 -268.186174 
L 274.610047 -268.694935 
L 273.304914 -269.029441 
L 271.99978 -269.237876 
L 270.694609 -269.360864 
L 269.389628 -269.427261 
L 268.084342 -269.453315 
L 266.779057 -269.466202 
L 265.474151 -269.466762 
L 264.168866 -269.466762 
L 262.86358 -269.466762 
L 261.558675 -269.466762 
L 260.25339 -269.466762 
L 258.948104 -269.466762 
L 257.643199 -269.466762 
L 256.337913 -269.466762 
L 255.032628 -269.466762 
L 253.727723 -269.466762 
L 252.422437 -269.466762 
L 251.117151 -269.466762 
L 249.812246 -269.466762 
L 248.506961 -269.466762 
L 247.202056 -269.466762 
L 245.89677 -269.466762 
L 244.591485 -269.466762 
L 243.28658 -269.466762 
L 241.981294 -269.466762 
L 240.676008 -269.466762 
L 239.371103 -269.466762 
L 238.065818 -269.466762 
L 236.760532 -269.466762 
L 235.455627 -269.466762 
L 234.150341 -269.466762 
L 232.845056 -269.466762 
L 231.540151 -269.466762 
L 230.234865 -269.466762 
L 228.92958 -269.466762 
L 227.624674 -269.466762 
L 226.319389 -269.466762 
L 225.014484 -269.466762 
L 223.709198 -269.466762 
L 222.403913 -269.466762 
L 221.099008 -269.466762 
L 219.793722 -269.466762 
L 218.488436 -269.466762 
L 217.183531 -269.466762 
L 215.878246 -269.466762 
L 214.57296 -269.466762 
L 213.268055 -269.466762 
L 211.962769 -269.466762 
L 210.657484 -269.466762 
L 209.352579 -269.466762 
L 208.047293 -269.466762 
L 206.742008 -269.466762 
L 205.437103 -269.466762 
L 204.131817 -269.466762 
L 202.826531 -269.466762 
L 201.521626 -269.466762 
L 200.216341 -269.466762 
L 198.911436 -269.466762 
L 197.60615 -269.466762 
L 196.300864 -269.466762 
L 194.995959 -269.466762 
L 193.690674 -269.466762 
L 192.385388 -269.466762 
L 191.080483 -269.466762 
L 189.775198 -269.466762 
L 188.469912 -269.466762 
L 187.165007 -269.466762 
L 185.859721 -269.466762 
L 184.554436 -269.466762 
L 183.249531 -269.466762 
L 181.944245 -269.466762 
L 180.638959 -269.466762 
L 179.334054 -269.466762 
L 178.028769 -269.466762 
L 176.723864 -269.466762 
L 175.418578 -269.466762 
L 174.113293 -269.466762 
L 172.808387 -269.466762 
L 171.503102 -269.466762 
L 170.197816 -269.466762 
L 168.892911 -269.466762 
L 167.587626 -269.466762 
L 166.28234 -269.466762 
L 164.977435 -269.466762 
L 163.672149 -269.466762 
L 162.366864 -269.466762 
L 161.061959 -269.466762 
L 159.756673 -269.466762 
L 158.451387 -269.466762 
L 157.146482 -269.466762 
L 155.841197 -269.466762 
L 154.536292 -269.466762 
L 153.231006 -269.466762 
L 151.925721 -269.466762 
L 150.620816 -269.466762 
L 149.31553 -269.466762 
L 148.010244 -269.466762 
L 146.705339 -269.466762 
L 145.400054 -269.466762 
L 144.094768 -269.466762 
L 142.789863 -269.466762 
L 141.484577 -269.466762 
L 140.179292 -269.466762 
L 138.874387 -269.466762 
L 137.569101 -269.466762 
L 136.263816 -269.466762 
L 134.95891 -269.466762 
L 133.653625 -269.466762 
L 132.348339 -269.466762 
L 131.043434 -269.466762 
L 129.738149 -269.466762 
L 128.433244 -269.466762 
L 127.127958 -269.466762 
L 125.822672 -269.466762 
L 124.517767 -269.466762 
L 123.212482 -269.466762 
L 121.907196 -269.466762 
L 120.602291 -269.466762 
L 119.297005 -269.466762 
L 117.99172 -269.466762 
L 116.686815 -269.466762 
L 115.381529 -269.466762 
L 114.076244 -269.466762 
L 112.771339 -269.466762 
L 111.466053 -269.466762 
L 110.160767 -269.466762 
L 108.855862 -269.466762 
L 107.550577 -269.466762 
L 106.245672 -269.466762 
L 104.940386 -269.466762 
L 103.6351 -269.466762 
L 102.330195 -269.466762 
L 101.02491 -269.464521 
L 99.719624 -268.678686 
L 98.414719 -263.790822 
L 97.109434 -246.113881 
L 95.804148 -205.937972 
L 94.499243 -148.494988 
L 93.193957 -96.794566 
L 91.888672 -67.541032 
L 90.583767 -57.283801 
L 89.278481 -55.551603 
L 87.973195 -55.802061 
L 86.66829 -55.035277 
L 85.363005 -55.363338 
L 84.0581 -57.559474 
L 82.752814 -61.697363 
L 81.447529 -68.602063 
L 80.142623 -78.597602 
L 78.837338 -91.351239 
L 77.532052 -105.539689 
L 76.227147 -119.228147 
L 74.921862 -130.870437 
L 73.616576 -139.394153 
L 72.311671 -144.990529 
L 71.006385 -148.1913 
L 69.7011 -149.792106 
L 68.396195 -150.493054 
L 67.090909 -150.755279 
L 67.090909 -150.760322 
L 67.090909 -150.760322 
L 68.396195 -150.759201 
L 69.7011 -150.75696 
L 71.006385 -150.626408 
L 72.311671 -150.127732 
L 73.616576 -148.930069 
L 74.921862 -146.411476 
L 76.227147 -141.77379 
L 77.532052 -134.298133 
L 78.837338 -123.751978 
L 80.142623 -110.729421 
L 81.447529 -96.656618 
L 82.752814 -83.348331 
L 84.0581 -72.334849 
L 85.363005 -64.359396 
L 86.66829 -59.307361 
L 87.973195 -60.017273 
L 89.278481 -75.540635 
L 90.583767 -113.578541 
L 91.888672 -169.717851 
L 93.193957 -223.443738 
L 94.499243 -255.561549 
L 95.804148 -266.886535 
L 97.109434 -269.312117 
L 98.414719 -269.665673 
L 99.719624 -269.702373 
L 101.02491 -269.705174 
L 102.330195 -269.705455 
L 103.6351 -269.705455 
L 104.940386 -269.705455 
L 106.245672 -269.705455 
L 107.550577 -269.705455 
L 108.855862 -269.705455 
L 110.160767 -269.705455 
L 111.466053 -269.705455 
L 112.771339 -269.705455 
L 114.076244 -269.705455 
L 115.381529 -269.705455 
L 116.686815 -269.705455 
L 117.99172 -269.705455 
L 119.297005 -269.705455 
L 120.602291 -269.705455 
L 121.907196 -269.705455 
L 123.212482 -269.705455 
L 124.517767 -269.705455 
L 125.822672 -269.705455 
L 127.127958 -269.705455 
L 128.433244 -269.705455 
L 129.738149 -269.705455 
L 131.043434 -269.705455 
L 132.348339 -269.705455 
L 133.653625 -269.705455 
L 134.95891 -269.705455 
L 136.263816 -269.705455 
L 137.569101 -269.705455 
L 138.874387 -269.705455 
L 140.179292 -269.705455 
L 141.484577 -269.705455 
L 142.789863 -269.705455 
L 144.094768 -269.705455 
L 145.400054 -269.705455 
L 146.705339 -269.705455 
L 148.010244 -269.705455 
L 149.31553 -269.705455 
L 150.620816 -269.705455 
L 151.925721 -269.705455 
L 153.231006 -269.705455 
L 154.536292 -269.705455 
L 155.841197 -269.705455 
L 157.146482 -269.705455 
L 158.451387 -269.705455 
L 159.756673 -269.705455 
L 161.061959 -269.705455 
L 162.366864 -269.705455 
L 163.672149 -269.705455 
L 164.977435 -269.705455 
L 166.28234 -269.705455 
L 167.587626 -269.705455 
L 168.892911 -269.705455 
L 170.197816 -269.705455 
L 171.503102 -269.705455 
L 172.808387 -269.705455 
L 174.113293 -269.705455 
L 175.418578 -269.705455 
L 176.723864 -269.705455 
L 178.028769 -269.705455 
L 179.334054 -269.705455 
L 180.638959 -269.705455 
L 181.944245 -269.705455 
L 183.249531 -269.705455 
L 184.554436 -269.705455 
L 185.859721 -269.705455 
L 187.165007 -269.705455 
L 188.469912 -269.705455 
L 189.775198 -269.705455 
L 191.080483 -269.705455 
L 192.385388 -269.705455 
L 193.690674 -269.705455 
L 194.995959 -269.705455 
L 196.300864 -269.705455 
L 197.60615 -269.705455 
L 198.911436 -269.705455 
L 200.216341 -269.705455 
L 201.521626 -269.705455 
L 202.826531 -269.705455 
L 204.131817 -269.705455 
L 205.437103 -269.705455 
L 206.742008 -269.705455 
L 208.047293 -269.705455 
L 209.352579 -269.705455 
L 210.657484 -269.705455 
L 211.962769 -269.705455 
L 213.268055 -269.705455 
L 214.57296 -269.705455 
L 215.878246 -269.705455 
L 217.183531 -269.705455 
L 218.488436 -269.705455 
L 219.793722 -269.705455 
L 221.099008 -269.705455 
L 222.403913 -269.705455 
L 223.709198 -269.705455 
L 225.014484 -269.705455 
L 226.319389 -269.705455 
L 227.624674 -269.705455 
L 228.92958 -269.705455 
L 230.234865 -269.705455 
L 231.540151 -269.705455 
L 232.845056 -269.705455 
L 234.150341 -269.705455 
L 235.455627 -269.705455 
L 236.760532 -269.705455 
L 238.065818 -269.705455 
L 239.371103 -269.705455 
L 240.676008 -269.705455 
L 241.981294 -269.705455 
L 243.28658 -269.705455 
L 244.591485 -269.705455 
L 245.89677 -269.705455 
L 247.202056 -269.705455 
L 248.506961 -269.705455 
L 249.812246 -269.705455 
L 251.117151 -269.705455 
L 252.422437 -269.705455 
L 253.727723 -269.705455 
L 255.032628 -269.705455 
L 256.337913 -269.705455 
L 257.643199 -269.705455 
L 258.948104 -269.705174 
L 260.25339 -269.705174 
L 261.558675 -269.705174 
L 262.86358 -269.704894 
L 264.168866 -269.704054 
L 265.474151 -269.702093 
L 266.779057 -269.69705 
L 268.084342 -269.685564 
L 269.389628 -269.662311 
L 270.694609 -269.626171 
L 271.99978 -269.619167 
L 273.304914 -269.601237 
L 274.610047 -269.559774 
L 275.915219 -269.470685 
L 277.220352 -269.294467 
L 278.525523 -268.972569 
L 279.830657 -268.430469 
L 281.135828 -267.587763 
L 282.440962 -266.378614 
L 283.746133 -264.778088 
L 285.051266 -262.823447 
L 286.356438 -260.620588 
L 287.661571 -258.32948 
L 288.966743 -256.131104 
L 290.271876 -254.184307 
L 291.577047 -252.593867 
L 292.882181 -251.394803 
L 294.187352 -250.560782 
L 295.492486 -250.025406 
L 296.797657 -249.697064 
L 298.10279 -249.499835 
L 299.407962 -249.474901 
L 300.713095 -250.007195 
L 302.018267 -250.703661 
L 303.3234 -251.622009 
L 304.628556 -252.551563 
L 305.933709 -253.482238 
L 307.238859 -254.412633 
L 308.54401 -255.261223 
L 309.849162 -256.040894 
L 311.154315 -256.682169 
L 312.459448 -257.138261 
L 313.764619 -257.415054 
L 315.069753 -257.64226 
L 316.374924 -257.765808 
L 317.680058 -257.826602 
L 318.985229 -257.853497 
L 320.290362 -257.858259 
L 321.595534 -257.861901 
L 322.900667 -257.863022 
L 324.205839 -257.863022 
L 325.510972 -257.863022 
L 326.816143 -257.863022 
z
" style="stroke: #2ca02c; stroke-opacity: 0.2"/>
    </defs>
    <g clip-path="url(#pd83fe5e9c4)">
     <use xlink:href="#m104cd3db3e" x="0" y="295.2" style="fill: #2ca02c; fill-opacity: 0.2; stroke: #2ca02c; stroke-opacity: 0.2"/>
    </g>
   </g>
   <g id="matplotlib.axis_1">
    <g id="xtick_1">
     <g id="line2d_1">
      <defs>
       <path id="mc8ac1ed513" d="M 0 0 
L 0 3.5 
" style="stroke: #000000; stroke-width: 0.8"/>
      </defs>
      <g>
       <use xlink:href="#mc8ac1ed513" x="67.090909" y="250.92" style="stroke: #000000; stroke-width: 0.8"/>
      </g>
     </g>
     <g id="text_1">
      <!-- 0 -->
      <g transform="translate(63.909659 265.518438) scale(0.1 -0.1)">
       <defs>
        <path id="DejaVuSans-30" d="M 2034 4250 
Q 1547 4250 1301 3770 
Q 1056 3291 1056 2328 
Q 1056 1369 1301 889 
Q 1547 409 2034 409 
Q 2525 409 2770 889 
Q 3016 1369 3016 2328 
Q 3016 3291 2770 3770 
Q 2525 4250 2034 4250 
z
M 2034 4750 
Q 2819 4750 3233 4129 
Q 3647 3509 3647 2328 
Q 3647 1150 3233 529 
Q 2819 -91 2034 -91 
Q 1250 -91 836 529 
Q 422 1150 422 2328 
Q 422 3509 836 4129 
Q 1250 4750 2034 4750 
z
" transform="scale(0.015625)"/>
       </defs>
       <use xlink:href="#DejaVuSans-30"/>
      </g>
     </g>
    </g>
    <g id="xtick_2">
     <g id="line2d_2">
      <g>
       <use xlink:href="#mc8ac1ed513" x="105.145883" y="250.92" style="stroke: #000000; stroke-width: 0.8"/>
      </g>
     </g>
     <g id="text_2">
      <!-- 100 -->
      <g transform="translate(95.602133 265.518438) scale(0.1 -0.1)">
       <defs>
        <path id="DejaVuSans-31" d="M 794 531 
L 1825 531 
L 1825 4091 
L 703 3866 
L 703 4441 
L 1819 4666 
L 2450 4666 
L 2450 531 
L 3481 531 
L 3481 0 
L 794 0 
L 794 531 
z
" transform="scale(0.015625)"/>
       </defs>
       <use xlink:href="#DejaVuSans-31"/>
       <use xlink:href="#DejaVuSans-30" x="63.623047"/>
       <use xlink:href="#DejaVuSans-30" x="127.246094"/>
      </g>
     </g>
    </g>
    <g id="xtick_3">
     <g id="line2d_3">
      <g>
       <use xlink:href="#mc8ac1ed513" x="143.200857" y="250.92" style="stroke: #000000; stroke-width: 0.8"/>
      </g>
     </g>
     <g id="text_3">
      <!-- 200 -->
      <g transform="translate(133.657107 265.518438) scale(0.1 -0.1)">
       <defs>
        <path id="DejaVuSans-32" d="M 1228 531 
L 3431 531 
L 3431 0 
L 469 0 
L 469 531 
Q 828 903 1448 1529 
Q 2069 2156 2228 2338 
Q 2531 2678 2651 2914 
Q 2772 3150 2772 3378 
Q 2772 3750 2511 3984 
Q 2250 4219 1831 4219 
Q 1534 4219 1204 4116 
Q 875 4013 500 3803 
L 500 4441 
Q 881 4594 1212 4672 
Q 1544 4750 1819 4750 
Q 2544 4750 2975 4387 
Q 3406 4025 3406 3419 
Q 3406 3131 3298 2873 
Q 3191 2616 2906 2266 
Q 2828 2175 2409 1742 
Q 1991 1309 1228 531 
z
" transform="scale(0.015625)"/>
       </defs>
       <use xlink:href="#DejaVuSans-32"/>
       <use xlink:href="#DejaVuSans-30" x="63.623047"/>
       <use xlink:href="#DejaVuSans-30" x="127.246094"/>
      </g>
     </g>
    </g>
    <g id="xtick_4">
     <g id="line2d_4">
      <g>
       <use xlink:href="#mc8ac1ed513" x="181.255831" y="250.92" style="stroke: #000000; stroke-width: 0.8"/>
      </g>
     </g>
     <g id="text_4">
      <!-- 300 -->
      <g transform="translate(171.712081 265.518438) scale(0.1 -0.1)">
       <defs>
        <path id="DejaVuSans-33" d="M 2597 2516 
Q 3050 2419 3304 2112 
Q 3559 1806 3559 1356 
Q 3559 666 3084 287 
Q 2609 -91 1734 -91 
Q 1441 -91 1130 -33 
Q 819 25 488 141 
L 488 750 
Q 750 597 1062 519 
Q 1375 441 1716 441 
Q 2309 441 2620 675 
Q 2931 909 2931 1356 
Q 2931 1769 2642 2001 
Q 2353 2234 1838 2234 
L 1294 2234 
L 1294 2753 
L 1863 2753 
Q 2328 2753 2575 2939 
Q 2822 3125 2822 3475 
Q 2822 3834 2567 4026 
Q 2313 4219 1838 4219 
Q 1578 4219 1281 4162 
Q 984 4106 628 3988 
L 628 4550 
Q 988 4650 1302 4700 
Q 1616 4750 1894 4750 
Q 2613 4750 3031 4423 
Q 3450 4097 3450 3541 
Q 3450 3153 3228 2886 
Q 3006 2619 2597 2516 
z
" transform="scale(0.015625)"/>
       </defs>
       <use xlink:href="#DejaVuSans-33"/>
       <use xlink:href="#DejaVuSans-30" x="63.623047"/>
       <use xlink:href="#DejaVuSans-30" x="127.246094"/>
      </g>
     </g>
    </g>
    <g id="xtick_5">
     <g id="line2d_5">
      <g>
       <use xlink:href="#mc8ac1ed513" x="219.310804" y="250.92" style="stroke: #000000; stroke-width: 0.8"/>
      </g>
     </g>
     <g id="text_5">
      <!-- 400 -->
      <g transform="translate(209.767054 265.518438) scale(0.1 -0.1)">
       <defs>
        <path id="DejaVuSans-34" d="M 2419 4116 
L 825 1625 
L 2419 1625 
L 2419 4116 
z
M 2253 4666 
L 3047 4666 
L 3047 1625 
L 3713 1625 
L 3713 1100 
L 3047 1100 
L 3047 0 
L 2419 0 
L 2419 1100 
L 313 1100 
L 313 1709 
L 2253 4666 
z
" transform="scale(0.015625)"/>
       </defs>
       <use xlink:href="#DejaVuSans-34"/>
       <use xlink:href="#DejaVuSans-30" x="63.623047"/>
       <use xlink:href="#DejaVuSans-30" x="127.246094"/>
      </g>
     </g>
    </g>
    <g id="xtick_6">
     <g id="line2d_6">
      <g>
       <use xlink:href="#mc8ac1ed513" x="257.365778" y="250.92" style="stroke: #000000; stroke-width: 0.8"/>
      </g>
     </g>
     <g id="text_6">
      <!-- 500 -->
      <g transform="translate(247.822028 265.518438) scale(0.1 -0.1)">
       <defs>
        <path id="DejaVuSans-35" d="M 691 4666 
L 3169 4666 
L 3169 4134 
L 1269 4134 
L 1269 2991 
Q 1406 3038 1543 3061 
Q 1681 3084 1819 3084 
Q 2600 3084 3056 2656 
Q 3513 2228 3513 1497 
Q 3513 744 3044 326 
Q 2575 -91 1722 -91 
Q 1428 -91 1123 -41 
Q 819 9 494 109 
L 494 744 
Q 775 591 1075 516 
Q 1375 441 1709 441 
Q 2250 441 2565 725 
Q 2881 1009 2881 1497 
Q 2881 1984 2565 2268 
Q 2250 2553 1709 2553 
Q 1456 2553 1204 2497 
Q 953 2441 691 2322 
L 691 4666 
z
" transform="scale(0.015625)"/>
       </defs>
       <use xlink:href="#DejaVuSans-35"/>
       <use xlink:href="#DejaVuSans-30" x="63.623047"/>
       <use xlink:href="#DejaVuSans-30" x="127.246094"/>
      </g>
     </g>
    </g>
    <g id="xtick_7">
     <g id="line2d_7">
      <g>
       <use xlink:href="#mc8ac1ed513" x="295.420752" y="250.92" style="stroke: #000000; stroke-width: 0.8"/>
      </g>
     </g>
     <g id="text_7">
      <!-- 600 -->
      <g transform="translate(285.877002 265.518438) scale(0.1 -0.1)">
       <defs>
        <path id="DejaVuSans-36" d="M 2113 2584 
Q 1688 2584 1439 2293 
Q 1191 2003 1191 1497 
Q 1191 994 1439 701 
Q 1688 409 2113 409 
Q 2538 409 2786 701 
Q 3034 994 3034 1497 
Q 3034 2003 2786 2293 
Q 2538 2584 2113 2584 
z
M 3366 4563 
L 3366 3988 
Q 3128 4100 2886 4159 
Q 2644 4219 2406 4219 
Q 1781 4219 1451 3797 
Q 1122 3375 1075 2522 
Q 1259 2794 1537 2939 
Q 1816 3084 2150 3084 
Q 2853 3084 3261 2657 
Q 3669 2231 3669 1497 
Q 3669 778 3244 343 
Q 2819 -91 2113 -91 
Q 1303 -91 875 529 
Q 447 1150 447 2328 
Q 447 3434 972 4092 
Q 1497 4750 2381 4750 
Q 2619 4750 2861 4703 
Q 3103 4656 3366 4563 
z
" transform="scale(0.015625)"/>
       </defs>
       <use xlink:href="#DejaVuSans-36"/>
       <use xlink:href="#DejaVuSans-30" x="63.623047"/>
       <use xlink:href="#DejaVuSans-30" x="127.246094"/>
      </g>
     </g>
    </g>
    <g id="xtick_8">
     <g id="line2d_8">
      <g>
       <use xlink:href="#mc8ac1ed513" x="333.475726" y="250.92" style="stroke: #000000; stroke-width: 0.8"/>
      </g>
     </g>
     <g id="text_8">
      <!-- 700 -->
      <g transform="translate(323.931976 265.518438) scale(0.1 -0.1)">
       <defs>
        <path id="DejaVuSans-37" d="M 525 4666 
L 3525 4666 
L 3525 4397 
L 1831 0 
L 1172 0 
L 2766 4134 
L 525 4134 
L 525 4666 
z
" transform="scale(0.015625)"/>
       </defs>
       <use xlink:href="#DejaVuSans-37"/>
       <use xlink:href="#DejaVuSans-30" x="63.623047"/>
       <use xlink:href="#DejaVuSans-30" x="127.246094"/>
      </g>
     </g>
    </g>
    <g id="text_9">
     <!-- z ($\AA$) -->
     <g transform="translate(180.675 284.528594) scale(0.15 -0.15)">
      <defs>
       <path id="DejaVuSans-7a" d="M 353 3500 
L 3084 3500 
L 3084 2975 
L 922 459 
L 3084 459 
L 3084 0 
L 275 0 
L 275 525 
L 2438 3041 
L 353 3041 
L 353 3500 
z
" transform="scale(0.015625)"/>
       <path id="DejaVuSans-20" transform="scale(0.015625)"/>
       <path id="DejaVuSans-28" d="M 1984 4856 
Q 1566 4138 1362 3434 
Q 1159 2731 1159 2009 
Q 1159 1288 1364 580 
Q 1569 -128 1984 -844 
L 1484 -844 
Q 1016 -109 783 600 
Q 550 1309 550 2009 
Q 550 2706 781 3412 
Q 1013 4119 1484 4856 
L 1984 4856 
z
" transform="scale(0.015625)"/>
       <path id="DejaVuSans-Oblique-c5" d="M 3188 5081 
Q 3188 5278 3048 5417 
Q 2909 5556 2713 5556 
Q 2513 5556 2377 5420 
Q 2241 5284 2241 5081 
Q 2241 4884 2377 4746 
Q 2513 4609 2713 4609 
Q 2909 4609 3048 4746 
Q 3188 4884 3188 5081 
z
M 2203 4397 
Q 2034 4513 1945 4689 
Q 1856 4866 1856 5081 
Q 1856 5438 2106 5689 
Q 2356 5941 2713 5941 
Q 3069 5941 3320 5689 
Q 3572 5438 3572 5081 
Q 3572 4834 3458 4643 
Q 3344 4453 3128 4341 
L 3938 0 
L 3278 0 
L 3084 1197 
L 984 1197 
L 325 0 
L -341 0 
L 2203 4397 
z
M 2584 4044 
L 1275 1722 
L 2988 1722 
L 2584 4044 
z
" transform="scale(0.015625)"/>
       <path id="DejaVuSans-29" d="M 513 4856 
L 1013 4856 
Q 1481 4119 1714 3412 
Q 1947 2706 1947 2009 
Q 1947 1309 1714 600 
Q 1481 -109 1013 -844 
L 513 -844 
Q 928 -128 1133 580 
Q 1338 1288 1338 2009 
Q 1338 2731 1133 3434 
Q 928 4138 513 4856 
z
" transform="scale(0.015625)"/>
      </defs>
      <use xlink:href="#DejaVuSans-7a" transform="translate(0 0.171875)"/>
      <use xlink:href="#DejaVuSans-20" transform="translate(52.490234 0.171875)"/>
      <use xlink:href="#DejaVuSans-28" transform="translate(84.277344 0.171875)"/>
      <use xlink:href="#DejaVuSans-Oblique-c5" transform="translate(123.291016 0.171875)"/>
      <use xlink:href="#DejaVuSans-29" transform="translate(191.699219 0.171875)"/>
     </g>
    </g>
   </g>
   <g id="matplotlib.axis_2">
    <g id="ytick_1">
     <g id="line2d_9">
      <defs>
       <path id="m0949be482c" d="M 0 0 
L -3.5 0 
" style="stroke: #000000; stroke-width: 0.8"/>
      </defs>
      <g>
       <use xlink:href="#m0949be482c" x="54" y="230.320076" style="stroke: #000000; stroke-width: 0.8"/>
      </g>
     </g>
     <g id="text_10">
      <!-- −1 -->
      <g transform="translate(32.257812 234.119295) scale(0.1 -0.1)">
       <defs>
        <path id="DejaVuSans-2212" d="M 678 2272 
L 4684 2272 
L 4684 1741 
L 678 1741 
L 678 2272 
z
" transform="scale(0.015625)"/>
       </defs>
       <use xlink:href="#DejaVuSans-2212"/>
       <use xlink:href="#DejaVuSans-31" x="83.789062"/>
      </g>
     </g>
    </g>
    <g id="ytick_2">
     <g id="line2d_10">
      <g>
       <use xlink:href="#m0949be482c" x="54" y="202.304575" style="stroke: #000000; stroke-width: 0.8"/>
      </g>
     </g>
     <g id="text_11">
      <!-- 0 -->
      <g transform="translate(40.6375 206.103794) scale(0.1 -0.1)">
       <use xlink:href="#DejaVuSans-30"/>
      </g>
     </g>
    </g>
    <g id="ytick_3">
     <g id="line2d_11">
      <g>
       <use xlink:href="#m0949be482c" x="54" y="174.289074" style="stroke: #000000; stroke-width: 0.8"/>
      </g>
     </g>
     <g id="text_12">
      <!-- 1 -->
      <g transform="translate(40.6375 178.088293) scale(0.1 -0.1)">
       <use xlink:href="#DejaVuSans-31"/>
      </g>
     </g>
    </g>
    <g id="ytick_4">
     <g id="line2d_12">
      <g>
       <use xlink:href="#m0949be482c" x="54" y="146.273573" style="stroke: #000000; stroke-width: 0.8"/>
      </g>
     </g>
     <g id="text_13">
      <!-- 2 -->
      <g transform="translate(40.6375 150.072792) scale(0.1 -0.1)">
       <use xlink:href="#DejaVuSans-32"/>
      </g>
     </g>
    </g>
    <g id="ytick_5">
     <g id="line2d_13">
      <g>
       <use xlink:href="#m0949be482c" x="54" y="118.258072" style="stroke: #000000; stroke-width: 0.8"/>
      </g>
     </g>
     <g id="text_14">
      <!-- 3 -->
      <g transform="translate(40.6375 122.057291) scale(0.1 -0.1)">
       <use xlink:href="#DejaVuSans-33"/>
      </g>
     </g>
    </g>
    <g id="ytick_6">
     <g id="line2d_14">
      <g>
       <use xlink:href="#m0949be482c" x="54" y="90.242571" style="stroke: #000000; stroke-width: 0.8"/>
      </g>
     </g>
     <g id="text_15">
      <!-- 4 -->
      <g transform="translate(40.6375 94.041789) scale(0.1 -0.1)">
       <use xlink:href="#DejaVuSans-34"/>
      </g>
     </g>
    </g>
    <g id="ytick_7">
     <g id="line2d_15">
      <g>
       <use xlink:href="#m0949be482c" x="54" y="62.22707" style="stroke: #000000; stroke-width: 0.8"/>
      </g>
     </g>
     <g id="text_16">
      <!-- 5 -->
      <g transform="translate(40.6375 66.026288) scale(0.1 -0.1)">
       <use xlink:href="#DejaVuSans-35"/>
      </g>
     </g>
    </g>
    <g id="ytick_8">
     <g id="line2d_16">
      <g>
       <use xlink:href="#m0949be482c" x="54" y="34.211569" style="stroke: #000000; stroke-width: 0.8"/>
      </g>
     </g>
     <g id="text_17">
      <!-- 6 -->
      <g transform="translate(40.6375 38.010787) scale(0.1 -0.1)">
       <use xlink:href="#DejaVuSans-36"/>
      </g>
     </g>
    </g>
    <g id="text_18">
     <!-- SLD ($10^{-6}/{\AA}^2$) -->
     <g transform="translate(25.138281 185.34) rotate(-90) scale(0.15 -0.15)">
      <defs>
       <path id="DejaVuSans-53" d="M 3425 4513 
L 3425 3897 
Q 3066 4069 2747 4153 
Q 2428 4238 2131 4238 
Q 1616 4238 1336 4038 
Q 1056 3838 1056 3469 
Q 1056 3159 1242 3001 
Q 1428 2844 1947 2747 
L 2328 2669 
Q 3034 2534 3370 2195 
Q 3706 1856 3706 1288 
Q 3706 609 3251 259 
Q 2797 -91 1919 -91 
Q 1588 -91 1214 -16 
Q 841 59 441 206 
L 441 856 
Q 825 641 1194 531 
Q 1563 422 1919 422 
Q 2459 422 2753 634 
Q 3047 847 3047 1241 
Q 3047 1584 2836 1778 
Q 2625 1972 2144 2069 
L 1759 2144 
Q 1053 2284 737 2584 
Q 422 2884 422 3419 
Q 422 4038 858 4394 
Q 1294 4750 2059 4750 
Q 2388 4750 2728 4690 
Q 3069 4631 3425 4513 
z
" transform="scale(0.015625)"/>
       <path id="DejaVuSans-4c" d="M 628 4666 
L 1259 4666 
L 1259 531 
L 3531 531 
L 3531 0 
L 628 0 
L 628 4666 
z
" transform="scale(0.015625)"/>
       <path id="DejaVuSans-44" d="M 1259 4147 
L 1259 519 
L 2022 519 
Q 2988 519 3436 956 
Q 3884 1394 3884 2338 
Q 3884 3275 3436 3711 
Q 2988 4147 2022 4147 
L 1259 4147 
z
M 628 4666 
L 1925 4666 
Q 3281 4666 3915 4102 
Q 4550 3538 4550 2338 
Q 4550 1131 3912 565 
Q 3275 0 1925 0 
L 628 0 
L 628 4666 
z
" transform="scale(0.015625)"/>
       <path id="DejaVuSans-2f" d="M 1625 4666 
L 2156 4666 
L 531 -594 
L 0 -594 
L 1625 4666 
z
" transform="scale(0.015625)"/>
      </defs>
      <use xlink:href="#DejaVuSans-53" transform="translate(0 0.171875)"/>
      <use xlink:href="#DejaVuSans-4c" transform="translate(63.476562 0.171875)"/>
      <use xlink:href="#DejaVuSans-44" transform="translate(119.189453 0.171875)"/>
      <use xlink:href="#DejaVuSans-20" transform="translate(196.191406 0.171875)"/>
      <use xlink:href="#DejaVuSans-28" transform="translate(227.978516 0.171875)"/>
      <use xlink:href="#DejaVuSans-31" transform="translate(266.992188 0.171875)"/>
      <use xlink:href="#DejaVuSans-30" transform="translate(330.615234 0.171875)"/>
      <use xlink:href="#DejaVuSans-2212" transform="translate(395.195312 38.453125) scale(0.7)"/>
      <use xlink:href="#DejaVuSans-36" transform="translate(453.847656 38.453125) scale(0.7)"/>
      <use xlink:href="#DejaVuSans-2f" transform="translate(501.118164 0.171875)"/>
      <use xlink:href="#DejaVuSans-Oblique-c5" transform="translate(534.80957 0.171875)"/>
      <use xlink:href="#DejaVuSans-32" transform="translate(613.023607 38.453125) scale(0.7)"/>
      <use xlink:href="#DejaVuSans-29" transform="translate(660.294115 0.171875)"/>
     </g>
    </g>
   </g>
   <g id="line2d_17">
    <path d="M 302.384736 37.529164 
L 300.019962 37.681569 
L 298.837594 37.932307 
L 297.655188 38.42594 
L 296.47282 39.304787 
L 295.290452 40.72069 
L 294.108053 42.782911 
L 292.925674 45.499574 
L 290.56091 52.205645 
L 289.378528 55.559661 
L 288.196148 58.446378 
L 287.013761 60.607494 
L 285.831393 61.907693 
L 284.648987 62.315599 
L 283.466619 61.857545 
L 282.284251 60.577517 
L 281.101845 58.52202 
L 279.919477 55.75661 
L 278.737109 52.389707 
L 274.007561 36.985103 
L 272.825193 33.813188 
L 271.642825 31.23128 
L 270.460419 29.259829 
L 269.278051 27.847848 
L 268.095644 26.899523 
L 266.913276 26.302232 
L 265.730908 25.948957 
L 263.366134 25.651432 
L 259.818992 25.569347 
L 225.529748 25.563183 
L 100.197595 25.581113 
L 99.015227 25.753969 
L 97.832859 26.956114 
L 96.650491 32.566218 
L 95.468123 50.148747 
L 94.285754 87.181037 
L 91.921018 189.545195 
L 90.73827 221.487293 
L 89.555902 235.150509 
L 88.373534 238.856959 
L 87.191166 238.964259 
L 86.008798 237.6282 
L 84.82643 234.873716 
L 83.644062 230.137779 
L 82.461694 222.900843 
L 81.279326 213.04541 
L 78.914589 188.139041 
L 77.732221 175.656426 
L 76.549853 164.926293 
L 75.367485 156.704584 
L 74.185117 151.089437 
L 73.002749 147.671266 
L 71.820381 145.81664 
L 70.638013 144.919584 
L 69.455645 144.53297 
L 67.090909 144.441919 
L 67.090909 144.441919 
" clip-path="url(#pd83fe5e9c4)" style="fill: none; stroke: #1f77b4; stroke-width: 2; stroke-linecap: square"/>
   </g>
   <g id="line2d_18">
    <path d="M 328.909091 37.513756 
L 322.330756 37.604806 
L 319.699407 37.799234 
L 317.068096 38.225349 
L 315.752421 38.572181 
L 314.436746 39.034717 
L 313.121072 39.629206 
L 311.805397 40.366574 
L 310.489722 41.248222 
L 307.858396 43.39589 
L 301.280038 49.412499 
L 299.964364 50.378474 
L 298.648727 51.169351 
L 297.333052 51.74591 
L 296.017378 52.062205 
L 294.701703 52.062766 
L 293.386029 51.681475 
L 292.070354 50.851656 
L 290.754679 49.520919 
L 289.439043 47.673297 
L 288.123368 45.349131 
L 285.492019 39.752194 
L 282.86067 34.116316 
L 281.544995 31.733598 
L 280.229321 29.7868 
L 278.913684 28.300578 
L 277.598009 27.239911 
L 276.282335 26.53252 
L 274.96666 26.091276 
L 273.650986 25.834093 
L 271.019636 25.622296 
L 264.441339 25.563744 
L 99.982584 25.595121 
L 98.667024 25.959323 
L 97.351463 28.621075 
L 96.035522 40.542792 
L 94.719962 73.281146 
L 92.08846 185.64003 
L 90.7729 221.966106 
L 89.457339 236.043643 
L 88.141779 239.077161 
L 86.825838 238.62359 
L 85.510278 236.532233 
L 84.194717 232.377815 
L 82.878776 225.362705 
L 81.563216 215.090317 
L 80.247655 202.041756 
L 77.616154 173.914226 
L 76.300593 162.511357 
L 74.985033 154.307018 
L 73.669092 149.184944 
L 72.353531 146.411409 
L 71.037971 145.108408 
L 69.722411 144.577514 
L 68.40647 144.44388 
L 67.090909 144.44388 
L 67.090909 144.44388 
" clip-path="url(#pd83fe5e9c4)" style="fill: none; stroke: #ff7f0e; stroke-width: 2; stroke-linecap: square"/>
   </g>
   <g id="line2d_19">
    <path d="M 326.816143 37.50423 
L 316.374924 37.61125 
L 315.069753 37.761133 
L 313.764619 38.042688 
L 312.459448 38.51587 
L 311.154315 39.228024 
L 309.849162 40.187835 
L 304.628556 44.864463 
L 303.3234 45.678593 
L 302.018267 46.238343 
L 300.713095 46.572008 
L 299.407962 46.725252 
L 298.10279 46.735058 
L 296.797657 46.61291 
L 295.492486 46.34088 
L 294.187352 45.874702 
L 292.882181 45.156665 
L 291.577047 44.130457 
L 290.271876 42.76246 
L 288.966743 41.056876 
L 286.356438 36.901897 
L 283.746133 32.58751 
L 282.440962 30.710752 
L 281.135828 29.146646 
L 279.830657 27.927131 
L 278.525523 27.03848 
L 277.220352 26.432504 
L 275.915219 26.046451 
L 273.304914 25.687852 
L 269.389628 25.573549 
L 245.89677 25.563183 
L 99.719624 25.626498 
L 98.414719 26.245081 
L 97.109434 30.20227 
L 95.804148 45.825114 
L 94.499243 83.939643 
L 91.888672 195.180233 
L 90.583767 226.186893 
L 89.278481 237.134006 
L 87.973195 239.144679 
L 86.66829 238.377614 
L 85.363005 236.010865 
L 84.0581 231.48412 
L 82.752814 224.03844 
L 81.447529 213.395043 
L 78.837338 185.868329 
L 77.532052 172.433327 
L 76.227147 161.456293 
L 74.921862 153.658459 
L 73.616576 148.842034 
L 72.311671 146.255083 
L 71.006385 145.047334 
L 69.7011 144.557063 
L 68.396195 144.439958 
L 67.090909 144.439958 
L 67.090909 144.439958 
" clip-path="url(#pd83fe5e9c4)" style="fill: none; stroke: #2ca02c; stroke-width: 2; stroke-linecap: square"/>
   </g>
   <g id="patch_3">
    <path d="M 54 250.92 
L 54 14.76 
" style="fill: none; stroke: #000000; stroke-width: 0.8; stroke-linejoin: miter; stroke-linecap: square"/>
   </g>
   <g id="patch_4">
    <path d="M 342 250.92 
L 342 14.76 
" style="fill: none; stroke: #000000; stroke-width: 0.8; stroke-linejoin: miter; stroke-linecap: square"/>
   </g>
   <g id="patch_5">
    <path d="M 54 250.92 
L 342 250.92 
" style="fill: none; stroke: #000000; stroke-width: 0.8; stroke-linejoin: miter; stroke-linecap: square"/>
   </g>
   <g id="patch_6">
    <path d="M 54 14.76 
L 342 14.76 
" style="fill: none; stroke: #000000; stroke-width: 0.8; stroke-linejoin: miter; stroke-linecap: square"/>
   </g>
   <g id="text_19">
    <!-- d-THF + LiBF$_4$ + EtOH -->
    <g transform="translate(142.85 8.76) scale(0.1 -0.1)">
     <defs>
      <path id="DejaVuSans-64" d="M 2906 2969 
L 2906 4863 
L 3481 4863 
L 3481 0 
L 2906 0 
L 2906 525 
Q 2725 213 2448 61 
Q 2172 -91 1784 -91 
Q 1150 -91 751 415 
Q 353 922 353 1747 
Q 353 2572 751 3078 
Q 1150 3584 1784 3584 
Q 2172 3584 2448 3432 
Q 2725 3281 2906 2969 
z
M 947 1747 
Q 947 1113 1208 752 
Q 1469 391 1925 391 
Q 2381 391 2643 752 
Q 2906 1113 2906 1747 
Q 2906 2381 2643 2742 
Q 2381 3103 1925 3103 
Q 1469 3103 1208 2742 
Q 947 2381 947 1747 
z
" transform="scale(0.015625)"/>
      <path id="DejaVuSans-2d" d="M 313 2009 
L 1997 2009 
L 1997 1497 
L 313 1497 
L 313 2009 
z
" transform="scale(0.015625)"/>
      <path id="DejaVuSans-54" d="M -19 4666 
L 3928 4666 
L 3928 4134 
L 2272 4134 
L 2272 0 
L 1638 0 
L 1638 4134 
L -19 4134 
L -19 4666 
z
" transform="scale(0.015625)"/>
      <path id="DejaVuSans-48" d="M 628 4666 
L 1259 4666 
L 1259 2753 
L 3553 2753 
L 3553 4666 
L 4184 4666 
L 4184 0 
L 3553 0 
L 3553 2222 
L 1259 2222 
L 1259 0 
L 628 0 
L 628 4666 
z
" transform="scale(0.015625)"/>
      <path id="DejaVuSans-46" d="M 628 4666 
L 3309 4666 
L 3309 4134 
L 1259 4134 
L 1259 2759 
L 3109 2759 
L 3109 2228 
L 1259 2228 
L 1259 0 
L 628 0 
L 628 4666 
z
" transform="scale(0.015625)"/>
      <path id="DejaVuSans-2b" d="M 2944 4013 
L 2944 2272 
L 4684 2272 
L 4684 1741 
L 2944 1741 
L 2944 0 
L 2419 0 
L 2419 1741 
L 678 1741 
L 678 2272 
L 2419 2272 
L 2419 4013 
L 2944 4013 
z
" transform="scale(0.015625)"/>
      <path id="DejaVuSans-69" d="M 603 3500 
L 1178 3500 
L 1178 0 
L 603 0 
L 603 3500 
z
M 603 4863 
L 1178 4863 
L 1178 4134 
L 603 4134 
L 603 4863 
z
" transform="scale(0.015625)"/>
      <path id="DejaVuSans-42" d="M 1259 2228 
L 1259 519 
L 2272 519 
Q 2781 519 3026 730 
Q 3272 941 3272 1375 
Q 3272 1813 3026 2020 
Q 2781 2228 2272 2228 
L 1259 2228 
z
M 1259 4147 
L 1259 2741 
L 2194 2741 
Q 2656 2741 2882 2914 
Q 3109 3088 3109 3444 
Q 3109 3797 2882 3972 
Q 2656 4147 2194 4147 
L 1259 4147 
z
M 628 4666 
L 2241 4666 
Q 2963 4666 3353 4366 
Q 3744 4066 3744 3513 
Q 3744 3084 3544 2831 
Q 3344 2578 2956 2516 
Q 3422 2416 3680 2098 
Q 3938 1781 3938 1306 
Q 3938 681 3513 340 
Q 3088 0 2303 0 
L 628 0 
L 628 4666 
z
" transform="scale(0.015625)"/>
      <path id="DejaVuSans-45" d="M 628 4666 
L 3578 4666 
L 3578 4134 
L 1259 4134 
L 1259 2753 
L 3481 2753 
L 3481 2222 
L 1259 2222 
L 1259 531 
L 3634 531 
L 3634 0 
L 628 0 
L 628 4666 
z
" transform="scale(0.015625)"/>
      <path id="DejaVuSans-74" d="M 1172 4494 
L 1172 3500 
L 2356 3500 
L 2356 3053 
L 1172 3053 
L 1172 1153 
Q 1172 725 1289 603 
Q 1406 481 1766 481 
L 2356 481 
L 2356 0 
L 1766 0 
Q 1100 0 847 248 
Q 594 497 594 1153 
L 594 3053 
L 172 3053 
L 172 3500 
L 594 3500 
L 594 4494 
L 1172 4494 
z
" transform="scale(0.015625)"/>
      <path id="DejaVuSans-4f" d="M 2522 4238 
Q 1834 4238 1429 3725 
Q 1025 3213 1025 2328 
Q 1025 1447 1429 934 
Q 1834 422 2522 422 
Q 3209 422 3611 934 
Q 4013 1447 4013 2328 
Q 4013 3213 3611 3725 
Q 3209 4238 2522 4238 
z
M 2522 4750 
Q 3503 4750 4090 4092 
Q 4678 3434 4678 2328 
Q 4678 1225 4090 567 
Q 3503 -91 2522 -91 
Q 1538 -91 948 565 
Q 359 1222 359 2328 
Q 359 3434 948 4092 
Q 1538 4750 2522 4750 
z
" transform="scale(0.015625)"/>
     </defs>
     <use xlink:href="#DejaVuSans-64" transform="translate(0 0.015625)"/>
     <use xlink:href="#DejaVuSans-2d" transform="translate(63.476562 0.015625)"/>
     <use xlink:href="#DejaVuSans-54" transform="translate(99.560547 0.015625)"/>
     <use xlink:href="#DejaVuSans-48" transform="translate(160.644531 0.015625)"/>
     <use xlink:href="#DejaVuSans-46" transform="translate(235.839844 0.015625)"/>
     <use xlink:href="#DejaVuSans-20" transform="translate(293.359375 0.015625)"/>
     <use xlink:href="#DejaVuSans-2b" transform="translate(325.146484 0.015625)"/>
     <use xlink:href="#DejaVuSans-20" transform="translate(408.935547 0.015625)"/>
     <use xlink:href="#DejaVuSans-4c" transform="translate(440.722656 0.015625)"/>
     <use xlink:href="#DejaVuSans-69" transform="translate(496.435547 0.015625)"/>
     <use xlink:href="#DejaVuSans-42" transform="translate(524.21875 0.015625)"/>
     <use xlink:href="#DejaVuSans-46" transform="translate(592.822266 0.015625)"/>
     <use xlink:href="#DejaVuSans-34" transform="translate(651.298828 -16.390625) scale(0.7)"/>
     <use xlink:href="#DejaVuSans-20" transform="translate(698.569336 0.015625)"/>
     <use xlink:href="#DejaVuSans-2b" transform="translate(730.356445 0.015625)"/>
     <use xlink:href="#DejaVuSans-20" transform="translate(814.145508 0.015625)"/>
     <use xlink:href="#DejaVuSans-45" transform="translate(845.932617 0.015625)"/>
     <use xlink:href="#DejaVuSans-74" transform="translate(909.116211 0.015625)"/>
     <use xlink:href="#DejaVuSans-4f" transform="translate(948.325195 0.015625)"/>
     <use xlink:href="#DejaVuSans-48" transform="translate(1027.036133 0.015625)"/>
    </g>
   </g>
   <g id="legend_1">
    <g id="line2d_20">
     <path d="M 252.45625 206.984062 
L 262.45625 206.984062 
L 272.45625 206.984062 
" style="fill: none; stroke: #1f77b4; stroke-width: 2; stroke-linecap: square"/>
    </g>
    <g id="text_20">
     <!-- Initial OCV -->
     <g transform="translate(280.45625 210.484062) scale(0.1 -0.1)">
      <defs>
       <path id="DejaVuSans-49" d="M 628 4666 
L 1259 4666 
L 1259 0 
L 628 0 
L 628 4666 
z
" transform="scale(0.015625)"/>
       <path id="DejaVuSans-6e" d="M 3513 2113 
L 3513 0 
L 2938 0 
L 2938 2094 
Q 2938 2591 2744 2837 
Q 2550 3084 2163 3084 
Q 1697 3084 1428 2787 
Q 1159 2491 1159 1978 
L 1159 0 
L 581 0 
L 581 3500 
L 1159 3500 
L 1159 2956 
Q 1366 3272 1645 3428 
Q 1925 3584 2291 3584 
Q 2894 3584 3203 3211 
Q 3513 2838 3513 2113 
z
" transform="scale(0.015625)"/>
       <path id="DejaVuSans-61" d="M 2194 1759 
Q 1497 1759 1228 1600 
Q 959 1441 959 1056 
Q 959 750 1161 570 
Q 1363 391 1709 391 
Q 2188 391 2477 730 
Q 2766 1069 2766 1631 
L 2766 1759 
L 2194 1759 
z
M 3341 1997 
L 3341 0 
L 2766 0 
L 2766 531 
Q 2569 213 2275 61 
Q 1981 -91 1556 -91 
Q 1019 -91 701 211 
Q 384 513 384 1019 
Q 384 1609 779 1909 
Q 1175 2209 1959 2209 
L 2766 2209 
L 2766 2266 
Q 2766 2663 2505 2880 
Q 2244 3097 1772 3097 
Q 1472 3097 1187 3025 
Q 903 2953 641 2809 
L 641 3341 
Q 956 3463 1253 3523 
Q 1550 3584 1831 3584 
Q 2591 3584 2966 3190 
Q 3341 2797 3341 1997 
z
" transform="scale(0.015625)"/>
       <path id="DejaVuSans-6c" d="M 603 4863 
L 1178 4863 
L 1178 0 
L 603 0 
L 603 4863 
z
" transform="scale(0.015625)"/>
       <path id="DejaVuSans-43" d="M 4122 4306 
L 4122 3641 
Q 3803 3938 3442 4084 
Q 3081 4231 2675 4231 
Q 1875 4231 1450 3742 
Q 1025 3253 1025 2328 
Q 1025 1406 1450 917 
Q 1875 428 2675 428 
Q 3081 428 3442 575 
Q 3803 722 4122 1019 
L 4122 359 
Q 3791 134 3420 21 
Q 3050 -91 2638 -91 
Q 1578 -91 968 557 
Q 359 1206 359 2328 
Q 359 3453 968 4101 
Q 1578 4750 2638 4750 
Q 3056 4750 3426 4639 
Q 3797 4528 4122 4306 
z
" transform="scale(0.015625)"/>
       <path id="DejaVuSans-56" d="M 1831 0 
L 50 4666 
L 709 4666 
L 2188 738 
L 3669 4666 
L 4325 4666 
L 2547 0 
L 1831 0 
z
" transform="scale(0.015625)"/>
      </defs>
      <use xlink:href="#DejaVuSans-49"/>
      <use xlink:href="#DejaVuSans-6e" x="29.492188"/>
      <use xlink:href="#DejaVuSans-69" x="92.871094"/>
      <use xlink:href="#DejaVuSans-74" x="120.654297"/>
      <use xlink:href="#DejaVuSans-69" x="159.863281"/>
      <use xlink:href="#DejaVuSans-61" x="187.646484"/>
      <use xlink:href="#DejaVuSans-6c" x="248.925781"/>
      <use xlink:href="#DejaVuSans-20" x="276.708984"/>
      <use xlink:href="#DejaVuSans-4f" x="308.496094"/>
      <use xlink:href="#DejaVuSans-43" x="387.207031"/>
      <use xlink:href="#DejaVuSans-56" x="457.03125"/>
     </g>
    </g>
    <g id="line2d_21">
     <path d="M 252.45625 221.662187 
L 262.45625 221.662187 
L 272.45625 221.662187 
" style="fill: none; stroke: #ff7f0e; stroke-width: 2; stroke-linecap: square"/>
    </g>
    <g id="text_21">
     <!-- -0.8 V -->
     <g transform="translate(280.45625 225.162187) scale(0.1 -0.1)">
      <defs>
       <path id="DejaVuSans-2e" d="M 684 794 
L 1344 794 
L 1344 0 
L 684 0 
L 684 794 
z
" transform="scale(0.015625)"/>
       <path id="DejaVuSans-38" d="M 2034 2216 
Q 1584 2216 1326 1975 
Q 1069 1734 1069 1313 
Q 1069 891 1326 650 
Q 1584 409 2034 409 
Q 2484 409 2743 651 
Q 3003 894 3003 1313 
Q 3003 1734 2745 1975 
Q 2488 2216 2034 2216 
z
M 1403 2484 
Q 997 2584 770 2862 
Q 544 3141 544 3541 
Q 544 4100 942 4425 
Q 1341 4750 2034 4750 
Q 2731 4750 3128 4425 
Q 3525 4100 3525 3541 
Q 3525 3141 3298 2862 
Q 3072 2584 2669 2484 
Q 3125 2378 3379 2068 
Q 3634 1759 3634 1313 
Q 3634 634 3220 271 
Q 2806 -91 2034 -91 
Q 1263 -91 848 271 
Q 434 634 434 1313 
Q 434 1759 690 2068 
Q 947 2378 1403 2484 
z
M 1172 3481 
Q 1172 3119 1398 2916 
Q 1625 2713 2034 2713 
Q 2441 2713 2670 2916 
Q 2900 3119 2900 3481 
Q 2900 3844 2670 4047 
Q 2441 4250 2034 4250 
Q 1625 4250 1398 4047 
Q 1172 3844 1172 3481 
z
" transform="scale(0.015625)"/>
      </defs>
      <use xlink:href="#DejaVuSans-2d"/>
      <use xlink:href="#DejaVuSans-30" x="36.083984"/>
      <use xlink:href="#DejaVuSans-2e" x="99.707031"/>
      <use xlink:href="#DejaVuSans-38" x="131.494141"/>
      <use xlink:href="#DejaVuSans-20" x="195.117188"/>
      <use xlink:href="#DejaVuSans-56" x="226.904297"/>
     </g>
    </g>
    <g id="line2d_22">
     <path d="M 252.45625 236.340312 
L 262.45625 236.340312 
L 272.45625 236.340312 
" style="fill: none; stroke: #2ca02c; stroke-width: 2; stroke-linecap: square"/>
    </g>
    <g id="text_22">
     <!-- Final OCV -->
     <g transform="translate(280.45625 239.840312) scale(0.1 -0.1)">
      <use xlink:href="#DejaVuSans-46"/>
      <use xlink:href="#DejaVuSans-69" x="50.269531"/>
      <use xlink:href="#DejaVuSans-6e" x="78.052734"/>
      <use xlink:href="#DejaVuSans-61" x="141.431641"/>
      <use xlink:href="#DejaVuSans-6c" x="202.710938"/>
      <use xlink:href="#DejaVuSans-20" x="230.494141"/>
      <use xlink:href="#DejaVuSans-4f" x="262.28125"/>
      <use xlink:href="#DejaVuSans-43" x="340.992188"/>
      <use xlink:href="#DejaVuSans-56" x="410.816406"/>
     </g>
    </g>
   </g>
  </g>
 </g>
 <defs>
  <clipPath id="pd83fe5e9c4">
   <rect x="54" y="14.76" width="288" height="236.16"/>
  </clipPath>
 </defs>
</svg>
