<?xml version="1.0" encoding="utf-8" standalone="no"?>
<!DOCTYPE svg PUBLIC "-//W3C//DTD SVG 1.1//EN"
  "http://www.w3.org/Graphics/SVG/1.1/DTD/svg11.dtd">
<svg xmlns:xlink="http://www.w3.org/1999/xlink" width="360pt" height="295.2pt" viewBox="0 0 360 295.2" xmlns="http://www.w3.org/2000/svg" version="1.1">
 <metadata>
  <rdf:RDF xmlns:dc="http://purl.org/dc/elements/1.1/" xmlns:cc="http://creativecommons.org/ns#" xmlns:rdf="http://www.w3.org/1999/02/22-rdf-syntax-ns#">
   <cc:Work>
    <dc:type rdf:resource="http://purl.org/dc/dcmitype/StillImage"/>
    <dc:date>2025-06-14T13:29:04.168147</dc:date>
    <dc:format>image/svg+xml</dc:format>
    <dc:creator>
     <cc:Agent>
      <dc:title>Matplotlib v3.7.3, https://matplotlib.org/</dc:title>
     </cc:Agent>
    </dc:creator>
   </cc:Work>
  </rdf:RDF>
 </metadata>
 <defs>
  <style type="text/css">*{stroke-linejoin: round; stroke-linecap: butt}</style>
 </defs>
 <g id="figure_1">
  <g id="patch_1">
   <path d="M 0 295.2 
L 360 295.2 
L 360 0 
L 0 0 
z
" style="fill: #ffffff"/>
  </g>
  <g id="axes_1">
   <g id="patch_2">
    <path d="M 54 250.92 
L 342 250.92 
L 342 14.76 
L 54 14.76 
z
" style="fill: #ffffff"/>
   </g>
   <g id="matplotlib.axis_1">
    <g id="xtick_1">
     <g id="line2d_1">
      <defs>
       <path id="m2cd5efe8fb" d="M 0 0 
L 0 3.5 
" style="stroke: #000000; stroke-width: 0.8"/>
      </defs>
      <g>
       <use xlink:href="#m2cd5efe8fb" x="67.090909" y="250.92" style="stroke: #000000; stroke-width: 0.8"/>
      </g>
     </g>
     <g id="text_1">
      <!-- 0 -->
      <g transform="translate(63.909659 265.518438) scale(0.1 -0.1)">
       <defs>
        <path id="DejaVuSans-30" d="M 2034 4250 
Q 1547 4250 1301 3770 
Q 1056 3291 1056 2328 
Q 1056 1369 1301 889 
Q 1547 409 2034 409 
Q 2525 409 2770 889 
Q 3016 1369 3016 2328 
Q 3016 3291 2770 3770 
Q 2525 4250 2034 4250 
z
M 2034 4750 
Q 2819 4750 3233 4129 
Q 3647 3509 3647 2328 
Q 3647 1150 3233 529 
Q 2819 -91 2034 -91 
Q 1250 -91 836 529 
Q 422 1150 422 2328 
Q 422 3509 836 4129 
Q 1250 4750 2034 4750 
z
" transform="scale(0.015625)"/>
       </defs>
       <use xlink:href="#DejaVuSans-30"/>
      </g>
     </g>
    </g>
    <g id="xtick_2">
     <g id="line2d_2">
      <g>
       <use xlink:href="#m2cd5efe8fb" x="119.038961" y="250.92" style="stroke: #000000; stroke-width: 0.8"/>
      </g>
     </g>
     <g id="text_2">
      <!-- 1000 -->
      <g transform="translate(106.313961 265.518438) scale(0.1 -0.1)">
       <defs>
        <path id="DejaVuSans-31" d="M 794 531 
L 1825 531 
L 1825 4091 
L 703 3866 
L 703 4441 
L 1819 4666 
L 2450 4666 
L 2450 531 
L 3481 531 
L 3481 0 
L 794 0 
L 794 531 
z
" transform="scale(0.015625)"/>
       </defs>
       <use xlink:href="#DejaVuSans-31"/>
       <use xlink:href="#DejaVuSans-30" x="63.623047"/>
       <use xlink:href="#DejaVuSans-30" x="127.246094"/>
       <use xlink:href="#DejaVuSans-30" x="190.869141"/>
      </g>
     </g>
    </g>
    <g id="xtick_3">
     <g id="line2d_3">
      <g>
       <use xlink:href="#m2cd5efe8fb" x="170.987013" y="250.92" style="stroke: #000000; stroke-width: 0.8"/>
      </g>
     </g>
     <g id="text_3">
      <!-- 2000 -->
      <g transform="translate(158.262013 265.518438) scale(0.1 -0.1)">
       <defs>
        <path id="DejaVuSans-32" d="M 1228 531 
L 3431 531 
L 3431 0 
L 469 0 
L 469 531 
Q 828 903 1448 1529 
Q 2069 2156 2228 2338 
Q 2531 2678 2651 2914 
Q 2772 3150 2772 3378 
Q 2772 3750 2511 3984 
Q 2250 4219 1831 4219 
Q 1534 4219 1204 4116 
Q 875 4013 500 3803 
L 500 4441 
Q 881 4594 1212 4672 
Q 1544 4750 1819 4750 
Q 2544 4750 2975 4387 
Q 3406 4025 3406 3419 
Q 3406 3131 3298 2873 
Q 3191 2616 2906 2266 
Q 2828 2175 2409 1742 
Q 1991 1309 1228 531 
z
" transform="scale(0.015625)"/>
       </defs>
       <use xlink:href="#DejaVuSans-32"/>
       <use xlink:href="#DejaVuSans-30" x="63.623047"/>
       <use xlink:href="#DejaVuSans-30" x="127.246094"/>
       <use xlink:href="#DejaVuSans-30" x="190.869141"/>
      </g>
     </g>
    </g>
    <g id="xtick_4">
     <g id="line2d_4">
      <g>
       <use xlink:href="#m2cd5efe8fb" x="222.935065" y="250.92" style="stroke: #000000; stroke-width: 0.8"/>
      </g>
     </g>
     <g id="text_4">
      <!-- 3000 -->
      <g transform="translate(210.210065 265.518438) scale(0.1 -0.1)">
       <defs>
        <path id="DejaVuSans-33" d="M 2597 2516 
Q 3050 2419 3304 2112 
Q 3559 1806 3559 1356 
Q 3559 666 3084 287 
Q 2609 -91 1734 -91 
Q 1441 -91 1130 -33 
Q 819 25 488 141 
L 488 750 
Q 750 597 1062 519 
Q 1375 441 1716 441 
Q 2309 441 2620 675 
Q 2931 909 2931 1356 
Q 2931 1769 2642 2001 
Q 2353 2234 1838 2234 
L 1294 2234 
L 1294 2753 
L 1863 2753 
Q 2328 2753 2575 2939 
Q 2822 3125 2822 3475 
Q 2822 3834 2567 4026 
Q 2313 4219 1838 4219 
Q 1578 4219 1281 4162 
Q 984 4106 628 3988 
L 628 4550 
Q 988 4650 1302 4700 
Q 1616 4750 1894 4750 
Q 2613 4750 3031 4423 
Q 3450 4097 3450 3541 
Q 3450 3153 3228 2886 
Q 3006 2619 2597 2516 
z
" transform="scale(0.015625)"/>
       </defs>
       <use xlink:href="#DejaVuSans-33"/>
       <use xlink:href="#DejaVuSans-30" x="63.623047"/>
       <use xlink:href="#DejaVuSans-30" x="127.246094"/>
       <use xlink:href="#DejaVuSans-30" x="190.869141"/>
      </g>
     </g>
    </g>
    <g id="xtick_5">
     <g id="line2d_5">
      <g>
       <use xlink:href="#m2cd5efe8fb" x="274.883117" y="250.92" style="stroke: #000000; stroke-width: 0.8"/>
      </g>
     </g>
     <g id="text_5">
      <!-- 4000 -->
      <g transform="translate(262.158117 265.518438) scale(0.1 -0.1)">
       <defs>
        <path id="DejaVuSans-34" d="M 2419 4116 
L 825 1625 
L 2419 1625 
L 2419 4116 
z
M 2253 4666 
L 3047 4666 
L 3047 1625 
L 3713 1625 
L 3713 1100 
L 3047 1100 
L 3047 0 
L 2419 0 
L 2419 1100 
L 313 1100 
L 313 1709 
L 2253 4666 
z
" transform="scale(0.015625)"/>
       </defs>
       <use xlink:href="#DejaVuSans-34"/>
       <use xlink:href="#DejaVuSans-30" x="63.623047"/>
       <use xlink:href="#DejaVuSans-30" x="127.246094"/>
       <use xlink:href="#DejaVuSans-30" x="190.869141"/>
      </g>
     </g>
    </g>
    <g id="xtick_6">
     <g id="line2d_6">
      <g>
       <use xlink:href="#m2cd5efe8fb" x="326.831169" y="250.92" style="stroke: #000000; stroke-width: 0.8"/>
      </g>
     </g>
     <g id="text_6">
      <!-- 5000 -->
      <g transform="translate(314.106169 265.518438) scale(0.1 -0.1)">
       <defs>
        <path id="DejaVuSans-35" d="M 691 4666 
L 3169 4666 
L 3169 4134 
L 1269 4134 
L 1269 2991 
Q 1406 3038 1543 3061 
Q 1681 3084 1819 3084 
Q 2600 3084 3056 2656 
Q 3513 2228 3513 1497 
Q 3513 744 3044 326 
Q 2575 -91 1722 -91 
Q 1428 -91 1123 -41 
Q 819 9 494 109 
L 494 744 
Q 775 591 1075 516 
Q 1375 441 1709 441 
Q 2250 441 2565 725 
Q 2881 1009 2881 1497 
Q 2881 1984 2565 2268 
Q 2250 2553 1709 2553 
Q 1456 2553 1204 2497 
Q 953 2441 691 2322 
L 691 4666 
z
" transform="scale(0.015625)"/>
       </defs>
       <use xlink:href="#DejaVuSans-35"/>
       <use xlink:href="#DejaVuSans-30" x="63.623047"/>
       <use xlink:href="#DejaVuSans-30" x="127.246094"/>
       <use xlink:href="#DejaVuSans-30" x="190.869141"/>
      </g>
     </g>
    </g>
    <g id="text_7">
     <!-- Time (s) -->
     <g transform="translate(167.506641 282.995781) scale(0.15 -0.15)">
      <defs>
       <path id="DejaVuSans-54" d="M -19 4666 
L 3928 4666 
L 3928 4134 
L 2272 4134 
L 2272 0 
L 1638 0 
L 1638 4134 
L -19 4134 
L -19 4666 
z
" transform="scale(0.015625)"/>
       <path id="DejaVuSans-69" d="M 603 3500 
L 1178 3500 
L 1178 0 
L 603 0 
L 603 3500 
z
M 603 4863 
L 1178 4863 
L 1178 4134 
L 603 4134 
L 603 4863 
z
" transform="scale(0.015625)"/>
       <path id="DejaVuSans-6d" d="M 3328 2828 
Q 3544 3216 3844 3400 
Q 4144 3584 4550 3584 
Q 5097 3584 5394 3201 
Q 5691 2819 5691 2113 
L 5691 0 
L 5113 0 
L 5113 2094 
Q 5113 2597 4934 2840 
Q 4756 3084 4391 3084 
Q 3944 3084 3684 2787 
Q 3425 2491 3425 1978 
L 3425 0 
L 2847 0 
L 2847 2094 
Q 2847 2600 2669 2842 
Q 2491 3084 2119 3084 
Q 1678 3084 1418 2786 
Q 1159 2488 1159 1978 
L 1159 0 
L 581 0 
L 581 3500 
L 1159 3500 
L 1159 2956 
Q 1356 3278 1631 3431 
Q 1906 3584 2284 3584 
Q 2666 3584 2933 3390 
Q 3200 3197 3328 2828 
z
" transform="scale(0.015625)"/>
       <path id="DejaVuSans-65" d="M 3597 1894 
L 3597 1613 
L 953 1613 
Q 991 1019 1311 708 
Q 1631 397 2203 397 
Q 2534 397 2845 478 
Q 3156 559 3463 722 
L 3463 178 
Q 3153 47 2828 -22 
Q 2503 -91 2169 -91 
Q 1331 -91 842 396 
Q 353 884 353 1716 
Q 353 2575 817 3079 
Q 1281 3584 2069 3584 
Q 2775 3584 3186 3129 
Q 3597 2675 3597 1894 
z
M 3022 2063 
Q 3016 2534 2758 2815 
Q 2500 3097 2075 3097 
Q 1594 3097 1305 2825 
Q 1016 2553 972 2059 
L 3022 2063 
z
" transform="scale(0.015625)"/>
       <path id="DejaVuSans-20" transform="scale(0.015625)"/>
       <path id="DejaVuSans-28" d="M 1984 4856 
Q 1566 4138 1362 3434 
Q 1159 2731 1159 2009 
Q 1159 1288 1364 580 
Q 1569 -128 1984 -844 
L 1484 -844 
Q 1016 -109 783 600 
Q 550 1309 550 2009 
Q 550 2706 781 3412 
Q 1013 4119 1484 4856 
L 1984 4856 
z
" transform="scale(0.015625)"/>
       <path id="DejaVuSans-73" d="M 2834 3397 
L 2834 2853 
Q 2591 2978 2328 3040 
Q 2066 3103 1784 3103 
Q 1356 3103 1142 2972 
Q 928 2841 928 2578 
Q 928 2378 1081 2264 
Q 1234 2150 1697 2047 
L 1894 2003 
Q 2506 1872 2764 1633 
Q 3022 1394 3022 966 
Q 3022 478 2636 193 
Q 2250 -91 1575 -91 
Q 1294 -91 989 -36 
Q 684 19 347 128 
L 347 722 
Q 666 556 975 473 
Q 1284 391 1588 391 
Q 1994 391 2212 530 
Q 2431 669 2431 922 
Q 2431 1156 2273 1281 
Q 2116 1406 1581 1522 
L 1381 1569 
Q 847 1681 609 1914 
Q 372 2147 372 2553 
Q 372 3047 722 3315 
Q 1072 3584 1716 3584 
Q 2034 3584 2315 3537 
Q 2597 3491 2834 3397 
z
" transform="scale(0.015625)"/>
       <path id="DejaVuSans-29" d="M 513 4856 
L 1013 4856 
Q 1481 4119 1714 3412 
Q 1947 2706 1947 2009 
Q 1947 1309 1714 600 
Q 1481 -109 1013 -844 
L 513 -844 
Q 928 -128 1133 580 
Q 1338 1288 1338 2009 
Q 1338 2731 1133 3434 
Q 928 4138 513 4856 
z
" transform="scale(0.015625)"/>
      </defs>
      <use xlink:href="#DejaVuSans-54"/>
      <use xlink:href="#DejaVuSans-69" x="57.958984"/>
      <use xlink:href="#DejaVuSans-6d" x="85.742188"/>
      <use xlink:href="#DejaVuSans-65" x="183.154297"/>
      <use xlink:href="#DejaVuSans-20" x="244.677734"/>
      <use xlink:href="#DejaVuSans-28" x="276.464844"/>
      <use xlink:href="#DejaVuSans-73" x="315.478516"/>
      <use xlink:href="#DejaVuSans-29" x="367.578125"/>
     </g>
    </g>
   </g>
   <g id="matplotlib.axis_2">
    <g id="ytick_1">
     <g id="line2d_7">
      <defs>
       <path id="m1760338327" d="M 0 0 
L -3.5 0 
" style="stroke: #000000; stroke-width: 0.8"/>
      </defs>
      <g>
       <use xlink:href="#m1760338327" x="54" y="218.326649" style="stroke: #000000; stroke-width: 0.8"/>
      </g>
     </g>
     <g id="text_8">
      <!-- 480 -->
      <g transform="translate(27.9125 222.125868) scale(0.1 -0.1)">
       <defs>
        <path id="DejaVuSans-38" d="M 2034 2216 
Q 1584 2216 1326 1975 
Q 1069 1734 1069 1313 
Q 1069 891 1326 650 
Q 1584 409 2034 409 
Q 2484 409 2743 651 
Q 3003 894 3003 1313 
Q 3003 1734 2745 1975 
Q 2488 2216 2034 2216 
z
M 1403 2484 
Q 997 2584 770 2862 
Q 544 3141 544 3541 
Q 544 4100 942 4425 
Q 1341 4750 2034 4750 
Q 2731 4750 3128 4425 
Q 3525 4100 3525 3541 
Q 3525 3141 3298 2862 
Q 3072 2584 2669 2484 
Q 3125 2378 3379 2068 
Q 3634 1759 3634 1313 
Q 3634 634 3220 271 
Q 2806 -91 2034 -91 
Q 1263 -91 848 271 
Q 434 634 434 1313 
Q 434 1759 690 2068 
Q 947 2378 1403 2484 
z
M 1172 3481 
Q 1172 3119 1398 2916 
Q 1625 2713 2034 2713 
Q 2441 2713 2670 2916 
Q 2900 3119 2900 3481 
Q 2900 3844 2670 4047 
Q 2441 4250 2034 4250 
Q 1625 4250 1398 4047 
Q 1172 3844 1172 3481 
z
" transform="scale(0.015625)"/>
       </defs>
       <use xlink:href="#DejaVuSans-34"/>
       <use xlink:href="#DejaVuSans-38" x="63.623047"/>
       <use xlink:href="#DejaVuSans-30" x="127.246094"/>
      </g>
     </g>
    </g>
    <g id="ytick_2">
     <g id="line2d_8">
      <g>
       <use xlink:href="#m1760338327" x="54" y="184.657049" style="stroke: #000000; stroke-width: 0.8"/>
      </g>
     </g>
     <g id="text_9">
      <!-- 485 -->
      <g transform="translate(27.9125 188.456268) scale(0.1 -0.1)">
       <use xlink:href="#DejaVuSans-34"/>
       <use xlink:href="#DejaVuSans-38" x="63.623047"/>
       <use xlink:href="#DejaVuSans-35" x="127.246094"/>
      </g>
     </g>
    </g>
    <g id="ytick_3">
     <g id="line2d_9">
      <g>
       <use xlink:href="#m1760338327" x="54" y="150.98745" style="stroke: #000000; stroke-width: 0.8"/>
      </g>
     </g>
     <g id="text_10">
      <!-- 490 -->
      <g transform="translate(27.9125 154.786668) scale(0.1 -0.1)">
       <defs>
        <path id="DejaVuSans-39" d="M 703 97 
L 703 672 
Q 941 559 1184 500 
Q 1428 441 1663 441 
Q 2288 441 2617 861 
Q 2947 1281 2994 2138 
Q 2813 1869 2534 1725 
Q 2256 1581 1919 1581 
Q 1219 1581 811 2004 
Q 403 2428 403 3163 
Q 403 3881 828 4315 
Q 1253 4750 1959 4750 
Q 2769 4750 3195 4129 
Q 3622 3509 3622 2328 
Q 3622 1225 3098 567 
Q 2575 -91 1691 -91 
Q 1453 -91 1209 -44 
Q 966 3 703 97 
z
M 1959 2075 
Q 2384 2075 2632 2365 
Q 2881 2656 2881 3163 
Q 2881 3666 2632 3958 
Q 2384 4250 1959 4250 
Q 1534 4250 1286 3958 
Q 1038 3666 1038 3163 
Q 1038 2656 1286 2365 
Q 1534 2075 1959 2075 
z
" transform="scale(0.015625)"/>
       </defs>
       <use xlink:href="#DejaVuSans-34"/>
       <use xlink:href="#DejaVuSans-39" x="63.623047"/>
       <use xlink:href="#DejaVuSans-30" x="127.246094"/>
      </g>
     </g>
    </g>
    <g id="ytick_4">
     <g id="line2d_10">
      <g>
       <use xlink:href="#m1760338327" x="54" y="117.31785" style="stroke: #000000; stroke-width: 0.8"/>
      </g>
     </g>
     <g id="text_11">
      <!-- 495 -->
      <g transform="translate(27.9125 121.117069) scale(0.1 -0.1)">
       <use xlink:href="#DejaVuSans-34"/>
       <use xlink:href="#DejaVuSans-39" x="63.623047"/>
       <use xlink:href="#DejaVuSans-35" x="127.246094"/>
      </g>
     </g>
    </g>
    <g id="ytick_5">
     <g id="line2d_11">
      <g>
       <use xlink:href="#m1760338327" x="54" y="83.648251" style="stroke: #000000; stroke-width: 0.8"/>
      </g>
     </g>
     <g id="text_12">
      <!-- 500 -->
      <g transform="translate(27.9125 87.447469) scale(0.1 -0.1)">
       <use xlink:href="#DejaVuSans-35"/>
       <use xlink:href="#DejaVuSans-30" x="63.623047"/>
       <use xlink:href="#DejaVuSans-30" x="127.246094"/>
      </g>
     </g>
    </g>
    <g id="ytick_6">
     <g id="line2d_12">
      <g>
       <use xlink:href="#m1760338327" x="54" y="49.978651" style="stroke: #000000; stroke-width: 0.8"/>
      </g>
     </g>
     <g id="text_13">
      <!-- 505 -->
      <g transform="translate(27.9125 53.77787) scale(0.1 -0.1)">
       <use xlink:href="#DejaVuSans-35"/>
       <use xlink:href="#DejaVuSans-30" x="63.623047"/>
       <use xlink:href="#DejaVuSans-35" x="127.246094"/>
      </g>
     </g>
    </g>
    <g id="ytick_7">
     <g id="line2d_13">
      <g>
       <use xlink:href="#m1760338327" x="54" y="16.309052" style="stroke: #000000; stroke-width: 0.8"/>
      </g>
     </g>
     <g id="text_14">
      <!-- 510 -->
      <g transform="translate(27.9125 20.10827) scale(0.1 -0.1)">
       <use xlink:href="#DejaVuSans-35"/>
       <use xlink:href="#DejaVuSans-31" x="63.623047"/>
       <use xlink:href="#DejaVuSans-30" x="127.246094"/>
      </g>
     </g>
    </g>
    <g id="text_15">
     <!-- Cu thickness ($\AA$) -->
     <g transform="translate(20.792969 194.04) rotate(-90) scale(0.15 -0.15)">
      <defs>
       <path id="DejaVuSans-43" d="M 4122 4306 
L 4122 3641 
Q 3803 3938 3442 4084 
Q 3081 4231 2675 4231 
Q 1875 4231 1450 3742 
Q 1025 3253 1025 2328 
Q 1025 1406 1450 917 
Q 1875 428 2675 428 
Q 3081 428 3442 575 
Q 3803 722 4122 1019 
L 4122 359 
Q 3791 134 3420 21 
Q 3050 -91 2638 -91 
Q 1578 -91 968 557 
Q 359 1206 359 2328 
Q 359 3453 968 4101 
Q 1578 4750 2638 4750 
Q 3056 4750 3426 4639 
Q 3797 4528 4122 4306 
z
" transform="scale(0.015625)"/>
       <path id="DejaVuSans-75" d="M 544 1381 
L 544 3500 
L 1119 3500 
L 1119 1403 
Q 1119 906 1312 657 
Q 1506 409 1894 409 
Q 2359 409 2629 706 
Q 2900 1003 2900 1516 
L 2900 3500 
L 3475 3500 
L 3475 0 
L 2900 0 
L 2900 538 
Q 2691 219 2414 64 
Q 2138 -91 1772 -91 
Q 1169 -91 856 284 
Q 544 659 544 1381 
z
M 1991 3584 
L 1991 3584 
z
" transform="scale(0.015625)"/>
       <path id="DejaVuSans-74" d="M 1172 4494 
L 1172 3500 
L 2356 3500 
L 2356 3053 
L 1172 3053 
L 1172 1153 
Q 1172 725 1289 603 
Q 1406 481 1766 481 
L 2356 481 
L 2356 0 
L 1766 0 
Q 1100 0 847 248 
Q 594 497 594 1153 
L 594 3053 
L 172 3053 
L 172 3500 
L 594 3500 
L 594 4494 
L 1172 4494 
z
" transform="scale(0.015625)"/>
       <path id="DejaVuSans-68" d="M 3513 2113 
L 3513 0 
L 2938 0 
L 2938 2094 
Q 2938 2591 2744 2837 
Q 2550 3084 2163 3084 
Q 1697 3084 1428 2787 
Q 1159 2491 1159 1978 
L 1159 0 
L 581 0 
L 581 4863 
L 1159 4863 
L 1159 2956 
Q 1366 3272 1645 3428 
Q 1925 3584 2291 3584 
Q 2894 3584 3203 3211 
Q 3513 2838 3513 2113 
z
" transform="scale(0.015625)"/>
       <path id="DejaVuSans-63" d="M 3122 3366 
L 3122 2828 
Q 2878 2963 2633 3030 
Q 2388 3097 2138 3097 
Q 1578 3097 1268 2742 
Q 959 2388 959 1747 
Q 959 1106 1268 751 
Q 1578 397 2138 397 
Q 2388 397 2633 464 
Q 2878 531 3122 666 
L 3122 134 
Q 2881 22 2623 -34 
Q 2366 -91 2075 -91 
Q 1284 -91 818 406 
Q 353 903 353 1747 
Q 353 2603 823 3093 
Q 1294 3584 2113 3584 
Q 2378 3584 2631 3529 
Q 2884 3475 3122 3366 
z
" transform="scale(0.015625)"/>
       <path id="DejaVuSans-6b" d="M 581 4863 
L 1159 4863 
L 1159 1991 
L 2875 3500 
L 3609 3500 
L 1753 1863 
L 3688 0 
L 2938 0 
L 1159 1709 
L 1159 0 
L 581 0 
L 581 4863 
z
" transform="scale(0.015625)"/>
       <path id="DejaVuSans-6e" d="M 3513 2113 
L 3513 0 
L 2938 0 
L 2938 2094 
Q 2938 2591 2744 2837 
Q 2550 3084 2163 3084 
Q 1697 3084 1428 2787 
Q 1159 2491 1159 1978 
L 1159 0 
L 581 0 
L 581 3500 
L 1159 3500 
L 1159 2956 
Q 1366 3272 1645 3428 
Q 1925 3584 2291 3584 
Q 2894 3584 3203 3211 
Q 3513 2838 3513 2113 
z
" transform="scale(0.015625)"/>
       <path id="DejaVuSans-Oblique-c5" d="M 3188 5081 
Q 3188 5278 3048 5417 
Q 2909 5556 2713 5556 
Q 2513 5556 2377 5420 
Q 2241 5284 2241 5081 
Q 2241 4884 2377 4746 
Q 2513 4609 2713 4609 
Q 2909 4609 3048 4746 
Q 3188 4884 3188 5081 
z
M 2203 4397 
Q 2034 4513 1945 4689 
Q 1856 4866 1856 5081 
Q 1856 5438 2106 5689 
Q 2356 5941 2713 5941 
Q 3069 5941 3320 5689 
Q 3572 5438 3572 5081 
Q 3572 4834 3458 4643 
Q 3344 4453 3128 4341 
L 3938 0 
L 3278 0 
L 3084 1197 
L 984 1197 
L 325 0 
L -341 0 
L 2203 4397 
z
M 2584 4044 
L 1275 1722 
L 2988 1722 
L 2584 4044 
z
" transform="scale(0.015625)"/>
      </defs>
      <use xlink:href="#DejaVuSans-43" transform="translate(0 0.171875)"/>
      <use xlink:href="#DejaVuSans-75" transform="translate(69.824219 0.171875)"/>
      <use xlink:href="#DejaVuSans-20" transform="translate(133.203125 0.171875)"/>
      <use xlink:href="#DejaVuSans-74" transform="translate(164.990234 0.171875)"/>
      <use xlink:href="#DejaVuSans-68" transform="translate(204.199219 0.171875)"/>
      <use xlink:href="#DejaVuSans-69" transform="translate(267.578125 0.171875)"/>
      <use xlink:href="#DejaVuSans-63" transform="translate(295.361328 0.171875)"/>
      <use xlink:href="#DejaVuSans-6b" transform="translate(350.341797 0.171875)"/>
      <use xlink:href="#DejaVuSans-6e" transform="translate(408.251953 0.171875)"/>
      <use xlink:href="#DejaVuSans-65" transform="translate(471.630859 0.171875)"/>
      <use xlink:href="#DejaVuSans-73" transform="translate(533.154297 0.171875)"/>
      <use xlink:href="#DejaVuSans-73" transform="translate(585.253906 0.171875)"/>
      <use xlink:href="#DejaVuSans-20" transform="translate(637.353516 0.171875)"/>
      <use xlink:href="#DejaVuSans-28" transform="translate(669.140625 0.171875)"/>
      <use xlink:href="#DejaVuSans-Oblique-c5" transform="translate(708.154297 0.171875)"/>
      <use xlink:href="#DejaVuSans-29" transform="translate(776.5625 0.171875)"/>
     </g>
    </g>
   </g>
   <g id="LineCollection_1">
    <path d="M 67.090909 240.185455 
L 67.090909 205.835698 
" clip-path="url(#p517c9a9f91)" style="fill: none; stroke: #1f77b4; stroke-width: 1.5"/>
    <path d="M 79.558442 237.645117 
L 79.558442 202.557714 
" clip-path="url(#p517c9a9f91)" style="fill: none; stroke: #1f77b4; stroke-width: 1.5"/>
    <path d="M 92.025974 220.601783 
L 92.025974 184.338863 
" clip-path="url(#p517c9a9f91)" style="fill: none; stroke: #1f77b4; stroke-width: 1.5"/>
    <path d="M 104.493506 203.409054 
L 104.493506 168.679802 
" clip-path="url(#p517c9a9f91)" style="fill: none; stroke: #1f77b4; stroke-width: 1.5"/>
    <path d="M 116.961039 177.944208 
L 116.961039 139.109157 
" clip-path="url(#p517c9a9f91)" style="fill: none; stroke: #1f77b4; stroke-width: 1.5"/>
    <path d="M 129.428571 158.184244 
L 129.428571 116.892659 
" clip-path="url(#p517c9a9f91)" style="fill: none; stroke: #1f77b4; stroke-width: 1.5"/>
    <path d="M 141.896104 150.117043 
L 141.896104 107.369327 
" clip-path="url(#p517c9a9f91)" style="fill: none; stroke: #1f77b4; stroke-width: 1.5"/>
    <path d="M 154.363636 143.846704 
L 154.363636 100.792428 
" clip-path="url(#p517c9a9f91)" style="fill: none; stroke: #1f77b4; stroke-width: 1.5"/>
    <path d="M 166.831169 133.73226 
L 166.831169 89.601827 
" clip-path="url(#p517c9a9f91)" style="fill: none; stroke: #1f77b4; stroke-width: 1.5"/>
    <path d="M 179.298701 132.988276 
L 179.298701 89.651375 
" clip-path="url(#p517c9a9f91)" style="fill: none; stroke: #1f77b4; stroke-width: 1.5"/>
    <path d="M 191.766234 113.434184 
L 191.766234 68.228228 
" clip-path="url(#p517c9a9f91)" style="fill: none; stroke: #1f77b4; stroke-width: 1.5"/>
    <path d="M 204.233766 119.914164 
L 204.233766 74.049554 
" clip-path="url(#p517c9a9f91)" style="fill: none; stroke: #1f77b4; stroke-width: 1.5"/>
    <path d="M 216.701299 115.841793 
L 216.701299 67.875087 
" clip-path="url(#p517c9a9f91)" style="fill: none; stroke: #1f77b4; stroke-width: 1.5"/>
    <path d="M 229.168831 119.643767 
L 229.168831 70.904882 
" clip-path="url(#p517c9a9f91)" style="fill: none; stroke: #1f77b4; stroke-width: 1.5"/>
    <path d="M 241.636364 127.530752 
L 241.636364 76.113705 
" clip-path="url(#p517c9a9f91)" style="fill: none; stroke: #1f77b4; stroke-width: 1.5"/>
    <path d="M 254.103896 117.697628 
L 254.103896 63.653122 
" clip-path="url(#p517c9a9f91)" style="fill: none; stroke: #1f77b4; stroke-width: 1.5"/>
    <path d="M 266.571429 107.338031 
L 266.571429 50.436392 
" clip-path="url(#p517c9a9f91)" style="fill: none; stroke: #1f77b4; stroke-width: 1.5"/>
    <path d="M 279.038961 84.055377 
L 279.038961 25.494545 
" clip-path="url(#p517c9a9f91)" style="fill: none; stroke: #1f77b4; stroke-width: 1.5"/>
    <path d="M 291.506494 93.172614 
L 291.506494 33.410451 
" clip-path="url(#p517c9a9f91)" style="fill: none; stroke: #1f77b4; stroke-width: 1.5"/>
    <path d="M 303.974026 110.196383 
L 303.974026 46.146453 
" clip-path="url(#p517c9a9f91)" style="fill: none; stroke: #1f77b4; stroke-width: 1.5"/>
    <path d="M 316.441558 106.238625 
L 316.441558 40.902487 
" clip-path="url(#p517c9a9f91)" style="fill: none; stroke: #1f77b4; stroke-width: 1.5"/>
    <path d="M 328.909091 110.879621 
L 328.909091 40.519034 
" clip-path="url(#p517c9a9f91)" style="fill: none; stroke: #1f77b4; stroke-width: 1.5"/>
   </g>
   <g id="line2d_14">
    <defs>
     <path id="m71209a65ad" d="M 5 0 
L -5 -0 
" style="stroke: #1f77b4"/>
    </defs>
    <g clip-path="url(#p517c9a9f91)">
     <use xlink:href="#m71209a65ad" x="67.090909" y="240.185455" style="fill: #1f77b4; stroke: #1f77b4"/>
     <use xlink:href="#m71209a65ad" x="79.558442" y="237.645117" style="fill: #1f77b4; stroke: #1f77b4"/>
     <use xlink:href="#m71209a65ad" x="92.025974" y="220.601783" style="fill: #1f77b4; stroke: #1f77b4"/>
     <use xlink:href="#m71209a65ad" x="104.493506" y="203.409054" style="fill: #1f77b4; stroke: #1f77b4"/>
     <use xlink:href="#m71209a65ad" x="116.961039" y="177.944208" style="fill: #1f77b4; stroke: #1f77b4"/>
     <use xlink:href="#m71209a65ad" x="129.428571" y="158.184244" style="fill: #1f77b4; stroke: #1f77b4"/>
     <use xlink:href="#m71209a65ad" x="141.896104" y="150.117043" style="fill: #1f77b4; stroke: #1f77b4"/>
     <use xlink:href="#m71209a65ad" x="154.363636" y="143.846704" style="fill: #1f77b4; stroke: #1f77b4"/>
     <use xlink:href="#m71209a65ad" x="166.831169" y="133.73226" style="fill: #1f77b4; stroke: #1f77b4"/>
     <use xlink:href="#m71209a65ad" x="179.298701" y="132.988276" style="fill: #1f77b4; stroke: #1f77b4"/>
     <use xlink:href="#m71209a65ad" x="191.766234" y="113.434184" style="fill: #1f77b4; stroke: #1f77b4"/>
     <use xlink:href="#m71209a65ad" x="204.233766" y="119.914164" style="fill: #1f77b4; stroke: #1f77b4"/>
     <use xlink:href="#m71209a65ad" x="216.701299" y="115.841793" style="fill: #1f77b4; stroke: #1f77b4"/>
     <use xlink:href="#m71209a65ad" x="229.168831" y="119.643767" style="fill: #1f77b4; stroke: #1f77b4"/>
     <use xlink:href="#m71209a65ad" x="241.636364" y="127.530752" style="fill: #1f77b4; stroke: #1f77b4"/>
     <use xlink:href="#m71209a65ad" x="254.103896" y="117.697628" style="fill: #1f77b4; stroke: #1f77b4"/>
     <use xlink:href="#m71209a65ad" x="266.571429" y="107.338031" style="fill: #1f77b4; stroke: #1f77b4"/>
     <use xlink:href="#m71209a65ad" x="279.038961" y="84.055377" style="fill: #1f77b4; stroke: #1f77b4"/>
     <use xlink:href="#m71209a65ad" x="291.506494" y="93.172614" style="fill: #1f77b4; stroke: #1f77b4"/>
     <use xlink:href="#m71209a65ad" x="303.974026" y="110.196383" style="fill: #1f77b4; stroke: #1f77b4"/>
     <use xlink:href="#m71209a65ad" x="316.441558" y="106.238625" style="fill: #1f77b4; stroke: #1f77b4"/>
     <use xlink:href="#m71209a65ad" x="328.909091" y="110.879621" style="fill: #1f77b4; stroke: #1f77b4"/>
    </g>
   </g>
   <g id="line2d_15">
    <g clip-path="url(#p517c9a9f91)">
     <use xlink:href="#m71209a65ad" x="67.090909" y="205.835698" style="fill: #1f77b4; stroke: #1f77b4"/>
     <use xlink:href="#m71209a65ad" x="79.558442" y="202.557714" style="fill: #1f77b4; stroke: #1f77b4"/>
     <use xlink:href="#m71209a65ad" x="92.025974" y="184.338863" style="fill: #1f77b4; stroke: #1f77b4"/>
     <use xlink:href="#m71209a65ad" x="104.493506" y="168.679802" style="fill: #1f77b4; stroke: #1f77b4"/>
     <use xlink:href="#m71209a65ad" x="116.961039" y="139.109157" style="fill: #1f77b4; stroke: #1f77b4"/>
     <use xlink:href="#m71209a65ad" x="129.428571" y="116.892659" style="fill: #1f77b4; stroke: #1f77b4"/>
     <use xlink:href="#m71209a65ad" x="141.896104" y="107.369327" style="fill: #1f77b4; stroke: #1f77b4"/>
     <use xlink:href="#m71209a65ad" x="154.363636" y="100.792428" style="fill: #1f77b4; stroke: #1f77b4"/>
     <use xlink:href="#m71209a65ad" x="166.831169" y="89.601827" style="fill: #1f77b4; stroke: #1f77b4"/>
     <use xlink:href="#m71209a65ad" x="179.298701" y="89.651375" style="fill: #1f77b4; stroke: #1f77b4"/>
     <use xlink:href="#m71209a65ad" x="191.766234" y="68.228228" style="fill: #1f77b4; stroke: #1f77b4"/>
     <use xlink:href="#m71209a65ad" x="204.233766" y="74.049554" style="fill: #1f77b4; stroke: #1f77b4"/>
     <use xlink:href="#m71209a65ad" x="216.701299" y="67.875087" style="fill: #1f77b4; stroke: #1f77b4"/>
     <use xlink:href="#m71209a65ad" x="229.168831" y="70.904882" style="fill: #1f77b4; stroke: #1f77b4"/>
     <use xlink:href="#m71209a65ad" x="241.636364" y="76.113705" style="fill: #1f77b4; stroke: #1f77b4"/>
     <use xlink:href="#m71209a65ad" x="254.103896" y="63.653122" style="fill: #1f77b4; stroke: #1f77b4"/>
     <use xlink:href="#m71209a65ad" x="266.571429" y="50.436392" style="fill: #1f77b4; stroke: #1f77b4"/>
     <use xlink:href="#m71209a65ad" x="279.038961" y="25.494545" style="fill: #1f77b4; stroke: #1f77b4"/>
     <use xlink:href="#m71209a65ad" x="291.506494" y="33.410451" style="fill: #1f77b4; stroke: #1f77b4"/>
     <use xlink:href="#m71209a65ad" x="303.974026" y="46.146453" style="fill: #1f77b4; stroke: #1f77b4"/>
     <use xlink:href="#m71209a65ad" x="316.441558" y="40.902487" style="fill: #1f77b4; stroke: #1f77b4"/>
     <use xlink:href="#m71209a65ad" x="328.909091" y="40.519034" style="fill: #1f77b4; stroke: #1f77b4"/>
    </g>
   </g>
   <g id="line2d_16">
    <defs>
     <path id="m02a243423b" d="M 0 3 
C 0.795609 3 1.55874 2.683901 2.12132 2.12132 
C 2.683901 1.55874 3 0.795609 3 0 
C 3 -0.795609 2.683901 -1.55874 2.12132 -2.12132 
C 1.55874 -2.683901 0.795609 -3 0 -3 
C -0.795609 -3 -1.55874 -2.683901 -2.12132 -2.12132 
C -2.683901 -1.55874 -3 -0.795609 -3 0 
C -3 0.795609 -2.683901 1.55874 -2.12132 2.12132 
C -1.55874 2.683901 -0.795609 3 0 3 
z
" style="stroke: #1f77b4"/>
    </defs>
    <g clip-path="url(#p517c9a9f91)">
     <use xlink:href="#m02a243423b" x="67.090909" y="223.010576" style="fill: #1f77b4; stroke: #1f77b4"/>
     <use xlink:href="#m02a243423b" x="79.558442" y="220.101415" style="fill: #1f77b4; stroke: #1f77b4"/>
     <use xlink:href="#m02a243423b" x="92.025974" y="202.470323" style="fill: #1f77b4; stroke: #1f77b4"/>
     <use xlink:href="#m02a243423b" x="104.493506" y="186.044428" style="fill: #1f77b4; stroke: #1f77b4"/>
     <use xlink:href="#m02a243423b" x="116.961039" y="158.526682" style="fill: #1f77b4; stroke: #1f77b4"/>
     <use xlink:href="#m02a243423b" x="129.428571" y="137.538452" style="fill: #1f77b4; stroke: #1f77b4"/>
     <use xlink:href="#m02a243423b" x="141.896104" y="128.743185" style="fill: #1f77b4; stroke: #1f77b4"/>
     <use xlink:href="#m02a243423b" x="154.363636" y="122.319566" style="fill: #1f77b4; stroke: #1f77b4"/>
     <use xlink:href="#m02a243423b" x="166.831169" y="111.667043" style="fill: #1f77b4; stroke: #1f77b4"/>
     <use xlink:href="#m02a243423b" x="179.298701" y="111.319826" style="fill: #1f77b4; stroke: #1f77b4"/>
     <use xlink:href="#m02a243423b" x="191.766234" y="90.831206" style="fill: #1f77b4; stroke: #1f77b4"/>
     <use xlink:href="#m02a243423b" x="204.233766" y="96.981859" style="fill: #1f77b4; stroke: #1f77b4"/>
     <use xlink:href="#m02a243423b" x="216.701299" y="91.85844" style="fill: #1f77b4; stroke: #1f77b4"/>
     <use xlink:href="#m02a243423b" x="229.168831" y="95.274325" style="fill: #1f77b4; stroke: #1f77b4"/>
     <use xlink:href="#m02a243423b" x="241.636364" y="101.822228" style="fill: #1f77b4; stroke: #1f77b4"/>
     <use xlink:href="#m02a243423b" x="254.103896" y="90.675375" style="fill: #1f77b4; stroke: #1f77b4"/>
     <use xlink:href="#m02a243423b" x="266.571429" y="78.887212" style="fill: #1f77b4; stroke: #1f77b4"/>
     <use xlink:href="#m02a243423b" x="279.038961" y="54.774961" style="fill: #1f77b4; stroke: #1f77b4"/>
     <use xlink:href="#m02a243423b" x="291.506494" y="63.291532" style="fill: #1f77b4; stroke: #1f77b4"/>
     <use xlink:href="#m02a243423b" x="303.974026" y="78.171418" style="fill: #1f77b4; stroke: #1f77b4"/>
     <use xlink:href="#m02a243423b" x="316.441558" y="73.570556" style="fill: #1f77b4; stroke: #1f77b4"/>
     <use xlink:href="#m02a243423b" x="328.909091" y="75.699327" style="fill: #1f77b4; stroke: #1f77b4"/>
    </g>
   </g>
   <g id="patch_3">
    <path d="M 54 250.92 
L 54 14.76 
" style="fill: none; stroke: #000000; stroke-width: 0.8; stroke-linejoin: miter; stroke-linecap: square"/>
   </g>
   <g id="patch_4">
    <path d="M 342 250.92 
L 342 14.76 
" style="fill: none; stroke: #000000; stroke-width: 0.8; stroke-linejoin: miter; stroke-linecap: square"/>
   </g>
   <g id="patch_5">
    <path d="M 54 250.92 
L 342 250.92 
" style="fill: none; stroke: #000000; stroke-width: 0.8; stroke-linejoin: miter; stroke-linecap: square"/>
   </g>
   <g id="patch_6">
    <path d="M 54 14.76 
L 342 14.76 
" style="fill: none; stroke: #000000; stroke-width: 0.8; stroke-linejoin: miter; stroke-linecap: square"/>
   </g>
  </g>
 </g>
 <defs>
  <clipPath id="p517c9a9f91">
   <rect x="54" y="14.76" width="288" height="236.16"/>
  </clipPath>
 </defs>
</svg>
