<?xml version="1.0" encoding="utf-8" standalone="no"?>
<!DOCTYPE svg PUBLIC "-//W3C//DTD SVG 1.1//EN"
  "http://www.w3.org/Graphics/SVG/1.1/DTD/svg11.dtd">
<svg xmlns:xlink="http://www.w3.org/1999/xlink" width="360pt" height="295.2pt" viewBox="0 0 360 295.2" xmlns="http://www.w3.org/2000/svg" version="1.1">
 <metadata>
  <rdf:RDF xmlns:dc="http://purl.org/dc/elements/1.1/" xmlns:cc="http://creativecommons.org/ns#" xmlns:rdf="http://www.w3.org/1999/02/22-rdf-syntax-ns#">
   <cc:Work>
    <dc:type rdf:resource="http://purl.org/dc/dcmitype/StillImage"/>
    <dc:date>2025-06-14T10:22:21.783569</dc:date>
    <dc:format>image/svg+xml</dc:format>
    <dc:creator>
     <cc:Agent>
      <dc:title>Matplotlib v3.7.3, https://matplotlib.org/</dc:title>
     </cc:Agent>
    </dc:creator>
   </cc:Work>
  </rdf:RDF>
 </metadata>
 <defs>
  <style type="text/css">*{stroke-linejoin: round; stroke-linecap: butt}</style>
 </defs>
 <g id="figure_1">
  <g id="patch_1">
   <path d="M 0 295.2 
L 360 295.2 
L 360 0 
L 0 0 
z
" style="fill: #ffffff"/>
  </g>
  <g id="axes_1">
   <g id="patch_2">
    <path d="M 54 250.92 
L 342 250.92 
L 342 14.76 
L 54 14.76 
z
" style="fill: #ffffff"/>
   </g>
   <g id="PolyCollection_1">
    <path d="M 224.879726 100.669451 
L 224.879726 100.669451 
L 220.644069 100.9584 
L 216.408549 101.657156 
L 212.172891 103.13385 
L 207.937371 105.958046 
L 203.701851 110.852115 
L 199.466194 118.530093 
L 195.230633 129.440685 
L 190.995058 143.471368 
L 186.759483 159.794191 
L 182.523909 176.940796 
L 178.28832 193.137205 
L 174.052745 206.751134 
L 169.817143 216.635125 
L 165.581623 222.240452 
L 161.345966 223.565726 
L 157.110446 223.208708 
L 152.874926 219.410699 
L 148.639269 211.664651 
L 144.403749 200.220616 
L 140.168091 185.457837 
L 135.932571 168.007002 
L 131.696914 148.804416 
L 127.461394 129.025321 
L 123.225874 109.91581 
L 118.990217 92.594168 
L 114.754697 77.853617 
L 110.51904 66.081736 
L 106.28352 57.254908 
L 102.047863 51.042511 
L 97.812343 46.938884 
L 93.576823 44.393912 
L 89.341166 42.911661 
L 85.105646 42.10316 
L 80.869989 41.687797 
L 76.634469 41.487755 
L 72.398811 41.397459 
L 68.163291 41.358562 
L 63.927771 41.343281 
L 59.692114 41.337724 
L 55.456594 41.336335 
L 51.220937 41.334946 
L 46.985143 41.334946 
L 42.750171 41.334946 
L 38.513829 41.334946 
L 34.278857 41.334946 
L 30.042514 41.334946 
L 25.807543 41.334946 
L 21.572571 41.334946 
L 17.336229 41.334946 
L 13.101257 41.334946 
L 8.864914 41.334946 
L 4.629943 41.334946 
L 0.3936 41.334946 
L -3.841371 41.334946 
L -8.077714 41.334946 
L -12.312686 41.334946 
L -16.547657 41.334946 
L -20.784 41.334946 
L -25.018971 41.334946 
L -29.255314 41.334946 
L -33.490286 41.334946 
L -37.726629 41.334946 
L -41.9616 41.334946 
L -46.197943 41.334946 
L -50.432914 41.334946 
L -54.667886 41.334946 
L -58.904229 41.334946 
L -63.1392 41.334946 
L -67.375543 41.334946 
L -71.610514 41.334946 
L -75.846857 41.334946 
L -80.081829 41.334946 
L -84.318171 41.334946 
L -88.553143 41.334946 
L -92.788114 41.334946 
L -97.024457 41.334946 
L -101.259429 41.334946 
L -105.495771 41.334946 
L -109.730743 41.334946 
L -113.967086 41.334946 
L -118.202057 41.334946 
L -122.437029 41.334946 
L -126.673371 41.334946 
L -130.908343 41.334946 
L -135.144686 41.334946 
L -139.379657 41.334946 
L -143.616 41.334946 
L -147.850971 41.334946 
L -152.087314 41.334946 
L -156.322286 41.334946 
L -160.557257 41.334946 
L -164.7936 41.334946 
L -169.028571 41.334946 
L -173.264914 41.334946 
L -177.499886 41.334946 
L -181.736229 41.334946 
L -185.9712 41.334946 
L -190.207543 41.334946 
L -194.442514 41.334946 
L -198.677486 41.334946 
L -202.913829 41.334946 
L -207.1488 41.334946 
L -211.385143 41.334946 
L -215.620114 41.334946 
L -219.856457 41.334946 
L -224.091429 41.334946 
L -228.327771 41.334946 
L -232.562743 41.334946 
L -236.797714 41.334946 
L -241.034057 41.334946 
L -245.269029 41.334946 
L -249.505371 41.334946 
L -253.740343 41.334946 
L -257.976686 41.334946 
L -262.211657 41.334946 
L -266.448 41.334946 
L -270.682971 41.334946 
L -274.917943 41.334946 
L -279.154286 41.334946 
L -283.389257 41.334946 
L -287.6256 41.334946 
L -291.860571 41.334946 
L -296.096914 41.334946 
L -300.331886 41.334946 
L -304.568229 41.334946 
L -308.8032 41.334946 
L -313.038171 41.334946 
L -317.274514 41.334946 
L -321.509486 41.334946 
L -325.745829 41.334946 
L -329.9808 41.334946 
L -334.217143 41.334946 
L -338.452114 41.334946 
L -342.687086 41.334946 
L -346.923429 41.334946 
L -351.1584 41.334946 
L -355.394743 41.334946 
L -359.629714 41.334946 
L -363.866057 41.334946 
L -368.101029 41.334946 
L -372.337371 41.334946 
L -376.572343 41.334946 
L -380.807314 41.334946 
L -385.043657 41.334946 
L -389.278629 41.334946 
L -393.514971 41.334946 
L -397.749943 41.334946 
L -401.986286 41.334946 
L -406.221257 41.334946 
L -410.4576 41.334946 
L -414.692571 41.334946 
L -418.927543 41.334946 
L -423.163886 41.334946 
L -427.398857 41.334946 
L -431.6352 41.334946 
L -435.870171 41.334946 
L -440.106514 41.334946 
L -444.341486 41.334946 
L -448.577829 41.334946 
L -452.8128 41.334946 
L -457.047771 41.334946 
L -461.284114 41.334946 
L -465.519086 41.334946 
L -469.755429 41.334946 
L -473.9904 41.334946 
L -478.226743 41.334946 
L -482.461714 41.334946 
L -486.698057 41.336335 
L -490.933029 41.354394 
L -495.168 41.590554 
L -499.404343 43.629865 
L -503.639314 55.483708 
L -507.875657 101.989169 
L -512.110629 225.135496 
L -516.346971 445.301907 
L -520.581943 711.169446 
L -524.818286 928.013891 
L -529.053257 1047.303614 
L -533.288229 1091.052254 
L -537.524571 1100.318061 
L -541.759543 1100.412525 
L -545.995886 1100.418082 
L -550.230857 1100.402801 
L -554.4672 1096.442259 
L -558.702171 1086.130402 
L -562.937143 1067.400136 
L -567.173486 1037.376003 
L -571.408457 994.44281 
L -575.6448 939.645633 
L -579.879771 877.22021 
L -584.116114 813.745542 
L -588.351086 756.139866 
L -592.587429 709.47604 
L -596.8224 675.7385 
L -601.057371 653.965937 
L -605.293714 641.424452 
L -609.528686 634.978673 
L -613.765029 632.019727 
L -618 630.818089 
L -618 630.797252 
L -618 630.797252 
L -613.765029 630.797252 
L -609.528686 630.80003 
L -605.293714 630.979234 
L -601.057371 632.460096 
L -596.8224 635.987215 
L -592.587429 643.491546 
L -588.351086 657.736162 
L -584.116114 681.874492 
L -579.879771 718.38205 
L -575.6448 767.664474 
L -571.408457 827.0426 
L -567.173486 890.897902 
L -562.937143 952.190452 
L -558.702171 1004.702017 
L -554.4672 1044.857274 
L -550.230857 1072.263642 
L -545.995886 1088.943484 
L -541.759543 1061.501692 
L -537.524571 961.803136 
L -533.288229 764.519379 
L -529.053257 501.448252 
L -524.818286 264.545043 
L -520.581943 120.438822 
L -516.346971 61.240456 
L -512.110629 44.827336 
L -507.875657 41.757256 
L -503.639314 41.369675 
L -499.404343 41.336335 
L -495.168 41.334946 
L -490.933029 41.334946 
L -486.698057 41.334946 
L -482.461714 41.334946 
L -478.226743 41.334946 
L -473.9904 41.334946 
L -469.755429 41.334946 
L -465.519086 41.334946 
L -461.284114 41.334946 
L -457.047771 41.334946 
L -452.8128 41.334946 
L -448.577829 41.334946 
L -444.341486 41.334946 
L -440.106514 41.334946 
L -435.870171 41.334946 
L -431.6352 41.334946 
L -427.398857 41.334946 
L -423.163886 41.334946 
L -418.927543 41.334946 
L -414.692571 41.334946 
L -410.4576 41.334946 
L -406.221257 41.334946 
L -401.986286 41.334946 
L -397.749943 41.334946 
L -393.514971 41.334946 
L -389.278629 41.334946 
L -385.043657 41.334946 
L -380.807314 41.334946 
L -376.572343 41.334946 
L -372.337371 41.334946 
L -368.101029 41.334946 
L -363.866057 41.334946 
L -359.629714 41.334946 
L -355.394743 41.334946 
L -351.1584 41.334946 
L -346.923429 41.334946 
L -342.687086 41.334946 
L -338.452114 41.334946 
L -334.217143 41.334946 
L -329.9808 41.334946 
L -325.745829 41.334946 
L -321.509486 41.334946 
L -317.274514 41.334946 
L -313.038171 41.334946 
L -308.8032 41.334946 
L -304.568229 41.334946 
L -300.331886 41.334946 
L -296.096914 41.334946 
L -291.860571 41.334946 
L -287.6256 41.334946 
L -283.389257 41.334946 
L -279.154286 41.334946 
L -274.917943 41.334946 
L -270.682971 41.334946 
L -266.448 41.334946 
L -262.211657 41.334946 
L -257.976686 41.334946 
L -253.740343 41.334946 
L -249.505371 41.334946 
L -245.269029 41.334946 
L -241.034057 41.334946 
L -236.797714 41.334946 
L -232.562743 41.334946 
L -228.327771 41.334946 
L -224.091429 41.334946 
L -219.856457 41.334946 
L -215.620114 41.334946 
L -211.385143 41.334946 
L -207.1488 41.334946 
L -202.913829 41.334946 
L -198.677486 41.334946 
L -194.442514 41.334946 
L -190.207543 41.334946 
L -185.9712 41.334946 
L -181.736229 41.334946 
L -177.499886 41.334946 
L -173.264914 41.334946 
L -169.028571 41.334946 
L -164.7936 41.334946 
L -160.557257 41.334946 
L -156.322286 41.334946 
L -152.087314 41.334946 
L -147.850971 41.334946 
L -143.616 41.334946 
L -139.379657 41.334946 
L -135.144686 41.334946 
L -130.908343 41.334946 
L -126.673371 41.334946 
L -122.437029 41.334946 
L -118.202057 41.334946 
L -113.967086 41.334946 
L -109.730743 41.334946 
L -105.495771 41.334946 
L -101.259429 41.334946 
L -97.024457 41.334946 
L -92.788114 41.334946 
L -88.553143 41.334946 
L -84.318171 41.334946 
L -80.081829 41.334946 
L -75.846857 41.334946 
L -71.610514 41.334946 
L -67.375543 41.334946 
L -63.1392 41.334946 
L -58.904229 41.334946 
L -54.667886 41.334946 
L -50.432914 41.334946 
L -46.197943 41.334946 
L -41.9616 41.334946 
L -37.726629 41.334946 
L -33.490286 41.334946 
L -29.255314 41.334946 
L -25.018971 41.334946 
L -20.784 41.334946 
L -16.547657 41.334946 
L -12.312686 41.334946 
L -8.077714 41.334946 
L -3.841371 41.334946 
L 0.3936 41.334946 
L 4.629943 41.334946 
L 8.864914 41.334946 
L 13.101257 41.334946 
L 17.336229 41.334946 
L 21.572571 41.334946 
L 25.807543 41.334946 
L 30.042514 41.334946 
L 34.278857 41.334946 
L 38.513829 41.334946 
L 42.750171 41.334946 
L 46.985143 41.334946 
L 51.220937 41.334946 
L 55.456594 41.334946 
L 59.692114 41.336335 
L 63.927771 41.339113 
L 68.163291 41.346059 
L 72.398811 41.364119 
L 76.634469 41.409961 
L 80.869989 41.516928 
L 85.105646 41.75031 
L 89.341166 42.228186 
L 93.576823 43.14921 
L 97.812343 44.812055 
L 102.047863 47.632083 
L 106.28352 52.121901 
L 110.51904 58.830234 
L 114.754697 68.240516 
L 118.990217 80.630581 
L 123.225874 95.944862 
L 127.461394 113.709651 
L 131.696914 133.053933 
L 135.932571 152.819136 
L 140.168091 171.753611 
L 144.403749 188.721013 
L 148.639269 202.847548 
L 152.874926 213.560877 
L 157.110446 220.517873 
L 161.345966 222.843354 
L 165.581623 218.135435 
L 169.817143 209.100232 
L 174.052745 196.175334 
L 178.28832 180.387343 
L 182.523909 163.289359 
L 186.759483 146.663695 
L 190.995058 132.073175 
L 195.230633 120.493 
L 199.466194 112.176 
L 203.701851 106.766547 
L 207.937371 103.579776 
L 212.172891 101.880813 
L 216.408549 101.058421 
L 220.644069 100.700013 
L 224.879726 100.669451 
z
" clip-path="url(#p7cb799fa90)" style="fill: #440154; fill-opacity: 0.2; stroke: #440154; stroke-opacity: 0.2"/>
   </g>
   <g id="PolyCollection_2">
    <path d="M 256.697006 100.647224 
L 256.697006 100.67223 
L 252.301577 100.863936 
L 247.906149 101.327921 
L 243.510583 102.210048 
L 239.115154 103.788152 
L 234.719726 106.422031 
L 230.324297 111.01187 
L 225.928731 118.331441 
L 221.533303 128.486321 
L 217.137874 141.283415 
L 212.742405 155.912832 
L 208.346949 171.065969 
L 203.951482 185.227234 
L 199.556023 197.054682 
L 195.160553 205.649517 
L 190.765097 210.660277 
L 186.3696 213.780367 
L 181.974171 216.422581 
L 177.578743 215.483497 
L 173.183177 211.693824 
L 168.787749 208.493161 
L 164.39232 204.353416 
L 159.996891 197.806227 
L 155.601326 188.616824 
L 151.205897 176.938018 
L 146.810469 163.110155 
L 142.41504 147.683351 
L 138.019474 131.396646 
L 133.624046 115.097438 
L 129.228617 99.620623 
L 124.833189 85.67468 
L 120.437623 73.7486 
L 116.042194 64.068819 
L 111.646766 56.61172 
L 107.251337 51.157813 
L 102.855771 47.373696 
L 98.460343 44.880124 
L 94.064914 43.321468 
L 89.669486 42.397666 
L 85.27392 41.876725 
L 80.878491 41.600279 
L 76.483063 41.458583 
L 72.087634 41.390513 
L 67.692069 41.358562 
L 63.296914 41.34467 
L 58.901486 41.339113 
L 54.506057 41.336335 
L 50.110629 41.334946 
L 45.7152 41.334946 
L 41.319771 41.334946 
L 36.924343 41.334946 
L 32.528914 41.334946 
L 28.133486 41.334946 
L 23.738057 41.334946 
L 19.342629 41.334946 
L 14.9472 41.334946 
L 10.551771 41.334946 
L 6.154971 41.334946 
L 1.759543 41.334946 
L -2.635886 41.334946 
L -7.031314 41.334946 
L -11.426743 41.334946 
L -15.822171 41.334946 
L -20.2176 41.334946 
L -24.613029 41.334946 
L -29.008457 41.334946 
L -33.403886 41.334946 
L -37.799314 41.334946 
L -42.194743 41.334946 
L -46.590171 41.334946 
L -50.9856 41.334946 
L -55.381029 41.334946 
L -59.776457 41.334946 
L -64.171886 41.334946 
L -68.567314 41.334946 
L -72.962743 41.334946 
L -77.358171 41.334946 
L -81.7536 41.334946 
L -86.149029 41.334946 
L -90.544457 41.334946 
L -94.939886 41.334946 
L -99.335314 41.334946 
L -103.730743 41.334946 
L -108.126171 41.334946 
L -112.5216 41.334946 
L -116.917029 41.334946 
L -121.312457 41.334946 
L -125.707886 41.334946 
L -130.103314 41.334946 
L -134.498743 41.334946 
L -138.894171 41.334946 
L -143.2896 41.334946 
L -147.685029 41.334946 
L -152.080457 41.334946 
L -156.475886 41.334946 
L -160.871314 41.334946 
L -165.266743 41.334946 
L -169.663543 41.334946 
L -174.058971 41.334946 
L -178.4544 41.334946 
L -182.849829 41.334946 
L -187.245257 41.334946 
L -191.640686 41.334946 
L -196.036114 41.334946 
L -200.431543 41.334946 
L -204.826971 41.334946 
L -209.2224 41.334946 
L -213.617829 41.334946 
L -218.013257 41.334946 
L -222.408686 41.334946 
L -226.804114 41.334946 
L -231.199543 41.334946 
L -235.594971 41.334946 
L -239.9904 41.334946 
L -244.385829 41.334946 
L -248.781257 41.334946 
L -253.176686 41.334946 
L -257.572114 41.334946 
L -261.967543 41.334946 
L -266.362971 41.334946 
L -270.7584 41.334946 
L -275.153829 41.334946 
L -279.549257 41.334946 
L -283.944686 41.334946 
L -288.340114 41.334946 
L -292.735543 41.334946 
L -297.130971 41.334946 
L -301.5264 41.334946 
L -305.921829 41.334946 
L -310.317257 41.334946 
L -314.712686 41.334946 
L -319.108114 41.334946 
L -323.503543 41.334946 
L -327.898971 41.334946 
L -332.2944 41.334946 
L -336.689829 41.334946 
L -341.085257 41.334946 
L -345.482057 41.334946 
L -349.877486 41.334946 
L -354.272914 41.334946 
L -358.668343 41.334946 
L -363.063771 41.334946 
L -367.4592 41.334946 
L -371.854629 41.334946 
L -376.250057 41.334946 
L -380.645486 41.334946 
L -385.040914 41.334946 
L -389.436343 41.334946 
L -393.831771 41.334946 
L -398.2272 41.334946 
L -402.622629 41.334946 
L -407.018057 41.334946 
L -411.413486 41.334946 
L -415.808914 41.334946 
L -420.204343 41.334946 
L -424.599771 41.334946 
L -428.9952 41.334946 
L -433.390629 41.334946 
L -437.786057 41.334946 
L -442.181486 41.334946 
L -446.576914 41.334946 
L -450.972343 41.334946 
L -455.367771 41.334946 
L -459.7632 41.334946 
L -464.158629 41.334946 
L -468.554057 41.334946 
L -472.949486 41.334946 
L -477.344914 41.334946 
L -481.740343 41.334946 
L -486.135771 41.336335 
L -490.5312 41.351616 
L -494.926629 41.571106 
L -499.322057 43.650703 
L -503.717486 56.497807 
L -508.112914 108.469677 
L -512.508343 246.289875 
L -516.903771 486.004777 
L -521.300571 759.562797 
L -525.696 964.339773 
L -530.091429 1064.649566 
L -534.486857 1096.054679 
L -538.882286 1100.412525 
L -543.277714 1100.418082 
L -547.673143 1100.341677 
L -552.068571 1099.401205 
L -556.464 1092.283064 
L -560.859429 1077.528621 
L -565.254857 1052.028203 
L -569.650286 1013.123483 
L -574.045714 960.605805 
L -578.441143 897.873791 
L -582.836571 831.568259 
L -587.232 769.553754 
L -591.627429 718.23063 
L -596.022857 680.64646 
L -600.418286 656.291418 
L -604.813714 642.326027 
L -609.209143 635.241227 
L -613.604571 632.060013 
L -618 630.818089 
L -618 630.795863 
L -618 630.795863 
L -613.604571 630.795863 
L -609.209143 630.795863 
L -604.813714 631.062584 
L -600.418286 632.762936 
L -596.022857 636.886012 
L -591.627429 645.732288 
L -587.232 662.521875 
L -582.836571 690.722157 
L -578.441143 732.632222 
L -574.045714 787.746548 
L -569.650286 851.881631 
L -565.254857 917.920959 
L -560.859429 978.092342 
L -556.464 1026.605163 
L -552.068571 1061.215522 
L -547.673143 1083.057544 
L -543.277714 1079.320659 
L -538.882286 1005.518992 
L -534.486857 833.488518 
L -530.091429 571.754473 
L -525.696 310.625416 
L -521.300571 139.698364 
L -516.903771 66.305393 
L -512.508343 45.644171 
L -508.112914 41.83366 
L -503.717486 41.373843 
L -499.322057 41.336335 
L -494.926629 41.334946 
L -490.5312 41.334946 
L -486.135771 41.334946 
L -481.740343 41.334946 
L -477.344914 41.334946 
L -472.949486 41.334946 
L -468.554057 41.334946 
L -464.158629 41.334946 
L -459.7632 41.334946 
L -455.367771 41.334946 
L -450.972343 41.334946 
L -446.576914 41.334946 
L -442.181486 41.334946 
L -437.786057 41.334946 
L -433.390629 41.334946 
L -428.9952 41.334946 
L -424.599771 41.334946 
L -420.204343 41.334946 
L -415.808914 41.334946 
L -411.413486 41.334946 
L -407.018057 41.334946 
L -402.622629 41.334946 
L -398.2272 41.334946 
L -393.831771 41.334946 
L -389.436343 41.334946 
L -385.040914 41.334946 
L -380.645486 41.334946 
L -376.250057 41.334946 
L -371.854629 41.334946 
L -367.4592 41.334946 
L -363.063771 41.334946 
L -358.668343 41.334946 
L -354.272914 41.334946 
L -349.877486 41.334946 
L -345.482057 41.334946 
L -341.085257 41.334946 
L -336.689829 41.334946 
L -332.2944 41.334946 
L -327.898971 41.334946 
L -323.503543 41.334946 
L -319.108114 41.334946 
L -314.712686 41.334946 
L -310.317257 41.334946 
L -305.921829 41.334946 
L -301.5264 41.334946 
L -297.130971 41.334946 
L -292.735543 41.334946 
L -288.340114 41.334946 
L -283.944686 41.334946 
L -279.549257 41.334946 
L -275.153829 41.334946 
L -270.7584 41.334946 
L -266.362971 41.334946 
L -261.967543 41.334946 
L -257.572114 41.334946 
L -253.176686 41.334946 
L -248.781257 41.334946 
L -244.385829 41.334946 
L -239.9904 41.334946 
L -235.594971 41.334946 
L -231.199543 41.334946 
L -226.804114 41.334946 
L -222.408686 41.334946 
L -218.013257 41.334946 
L -213.617829 41.334946 
L -209.2224 41.334946 
L -204.826971 41.334946 
L -200.431543 41.334946 
L -196.036114 41.334946 
L -191.640686 41.334946 
L -187.245257 41.334946 
L -182.849829 41.334946 
L -178.4544 41.334946 
L -174.058971 41.334946 
L -169.663543 41.334946 
L -165.266743 41.334946 
L -160.871314 41.334946 
L -156.475886 41.334946 
L -152.080457 41.334946 
L -147.685029 41.334946 
L -143.2896 41.334946 
L -138.894171 41.334946 
L -134.498743 41.334946 
L -130.103314 41.334946 
L -125.707886 41.334946 
L -121.312457 41.334946 
L -116.917029 41.334946 
L -112.5216 41.334946 
L -108.126171 41.334946 
L -103.730743 41.334946 
L -99.335314 41.334946 
L -94.939886 41.334946 
L -90.544457 41.334946 
L -86.149029 41.334946 
L -81.7536 41.334946 
L -77.358171 41.334946 
L -72.962743 41.334946 
L -68.567314 41.334946 
L -64.171886 41.334946 
L -59.776457 41.334946 
L -55.381029 41.334946 
L -50.9856 41.334946 
L -46.590171 41.334946 
L -42.194743 41.334946 
L -37.799314 41.334946 
L -33.403886 41.334946 
L -29.008457 41.334946 
L -24.613029 41.334946 
L -20.2176 41.334946 
L -15.822171 41.334946 
L -11.426743 41.334946 
L -7.031314 41.334946 
L -2.635886 41.334946 
L 1.759543 41.334946 
L 6.154971 41.334946 
L 10.551771 41.334946 
L 14.9472 41.334946 
L 19.342629 41.334946 
L 23.738057 41.334946 
L 28.133486 41.334946 
L 32.528914 41.334946 
L 36.924343 41.334946 
L 41.319771 41.334946 
L 45.7152 41.334946 
L 50.110629 41.334946 
L 54.506057 41.334946 
L 58.901486 41.334946 
L 63.296914 41.334946 
L 67.692069 41.334946 
L 72.087634 41.336335 
L 76.483063 41.340503 
L 80.878491 41.348838 
L 85.27392 41.368286 
L 89.669486 41.415518 
L 94.064914 41.516928 
L 98.460343 41.726694 
L 102.855771 42.135112 
L 107.251337 42.889434 
L 111.646766 44.21193 
L 116.042194 46.344316 
L 120.437623 49.563038 
L 124.833189 54.287627 
L 129.228617 60.886216 
L 133.624046 69.663032 
L 138.019474 80.522225 
L 142.41504 93.347102 
L 146.810469 107.90845 
L 151.205897 124.15209 
L 155.601326 141.34176 
L 159.996891 158.199416 
L 164.39232 173.840154 
L 168.787749 186.980375 
L 173.183177 197.332518 
L 177.578743 203.999176 
L 181.974171 203.073984 
L 186.3696 195.297374 
L 190.765097 185.121656 
L 195.160553 173.237252 
L 199.556023 160.513784 
L 203.951482 147.88756 
L 208.346949 136.21292 
L 212.742405 126.009419 
L 217.137874 115.329431 
L 221.533303 108.265468 
L 225.928731 104.143782 
L 230.324297 102.023898 
L 234.719726 101.062588 
L 239.115154 100.680565 
L 243.510583 100.651392 
L 247.906149 100.650003 
L 252.301577 100.650003 
L 256.697006 100.647224 
z
" clip-path="url(#p7cb799fa90)" style="fill: #472a7a; fill-opacity: 0.2; stroke: #472a7a; stroke-opacity: 0.2"/>
   </g>
   <g id="PolyCollection_3">
    <path d="M 311.143131 100.602771 
L 311.143131 100.679176 
L 306.474103 100.697235 
L 301.805074 100.763915 
L 297.136046 100.994519 
L 292.46688 101.37932 
L 287.797851 101.997504 
L 283.128823 102.951868 
L 278.459794 104.36605 
L 273.790766 106.5929 
L 269.1216 109.374031 
L 264.452571 112.987279 
L 259.783543 117.763268 
L 255.114514 125.038385 
L 250.445349 133.624885 
L 245.77632 143.085176 
L 241.107278 152.892762 
L 236.438222 168.019505 
L 231.769166 178.229952 
L 227.100096 184.975793 
L 222.43104 192.600983 
L 217.761984 193.858187 
L 213.092983 194.719477 
L 208.423817 198.20492 
L 203.754789 196.255906 
L 199.08576 196.446223 
L 194.416731 193.969321 
L 189.747566 191.029824 
L 185.078537 187.911123 
L 180.409509 182.387757 
L 175.74048 177.232523 
L 171.071451 171.880026 
L 166.402286 162.273871 
L 161.733257 150.627016 
L 157.064229 139.242714 
L 152.3952 127.479168 
L 147.726034 115.375273 
L 143.057006 103.410296 
L 138.387977 92.037109 
L 133.718949 81.632177 
L 129.04992 72.470558 
L 124.380754 64.830088 
L 119.711726 58.812175 
L 115.042697 53.973673 
L 110.373669 50.214562 
L 105.704503 47.393144 
L 101.035474 45.345498 
L 96.366446 43.910479 
L 91.697829 42.942223 
L 87.028114 42.32404 
L 82.359771 41.925346 
L 77.690057 41.678072 
L 73.021714 41.528041 
L 68.352 41.440523 
L 63.683657 41.390513 
L 59.013943 41.364119 
L 54.344229 41.348838 
L 49.675886 41.341892 
L 45.006171 41.337724 
L 40.337829 41.336335 
L 35.668114 41.334946 
L 30.999771 41.334946 
L 26.330057 41.334946 
L 21.661714 41.334946 
L 16.992 41.334946 
L 12.323657 41.334946 
L 7.653943 41.334946 
L 2.9856 41.334946 
L -1.684114 41.334946 
L -6.352457 41.334946 
L -11.022171 41.334946 
L -15.690514 41.334946 
L -20.360229 41.334946 
L -25.028571 41.334946 
L -29.698286 41.334946 
L -34.366629 41.334946 
L -39.036343 41.334946 
L -43.704686 41.334946 
L -48.3744 41.334946 
L -53.044114 41.334946 
L -57.712457 41.334946 
L -62.382171 41.334946 
L -67.050514 41.334946 
L -71.720229 41.334946 
L -76.388571 41.334946 
L -81.058286 41.334946 
L -85.726629 41.334946 
L -90.396343 41.334946 
L -95.064686 41.334946 
L -99.7344 41.334946 
L -104.402743 41.334946 
L -109.072457 41.334946 
L -113.7408 41.334946 
L -118.410514 41.334946 
L -123.078857 41.334946 
L -127.748571 41.334946 
L -132.416914 41.334946 
L -137.086629 41.334946 
L -141.754971 41.334946 
L -146.424686 41.334946 
L -151.0944 41.334946 
L -155.762743 41.334946 
L -160.432457 41.334946 
L -165.1008 41.334946 
L -169.770514 41.334946 
L -174.438857 41.334946 
L -179.108571 41.334946 
L -183.776914 41.334946 
L -188.446629 41.334946 
L -193.114971 41.334946 
L -197.784686 41.334946 
L -202.453029 41.334946 
L -207.122743 41.334946 
L -211.791086 41.334946 
L -216.4608 41.334946 
L -221.129143 41.334946 
L -225.798857 41.334946 
L -230.4672 41.334946 
L -235.136914 41.334946 
L -239.805257 41.334946 
L -244.474971 41.334946 
L -249.143314 41.334946 
L -253.813029 41.334946 
L -258.482743 41.334946 
L -263.151086 41.334946 
L -267.8208 41.334946 
L -272.489143 41.334946 
L -277.158857 41.334946 
L -281.8272 41.334946 
L -286.496914 41.334946 
L -291.165257 41.334946 
L -295.834971 41.334946 
L -300.503314 41.334946 
L -305.173029 41.334946 
L -309.841371 41.334946 
L -314.511086 41.334946 
L -319.179429 41.334946 
L -323.849143 41.334946 
L -328.517486 41.334946 
L -333.1872 41.334946 
L -337.855543 41.334946 
L -342.525257 41.334946 
L -347.1936 41.334946 
L -351.863314 41.334946 
L -356.533029 41.334946 
L -361.201371 41.334946 
L -365.871086 41.334946 
L -370.539429 41.334946 
L -375.209143 41.334946 
L -379.877486 41.334946 
L -384.5472 41.334946 
L -389.215543 41.334946 
L -393.885257 41.334946 
L -398.5536 41.334946 
L -403.223314 41.334946 
L -407.891657 41.334946 
L -412.561371 41.334946 
L -417.229714 41.334946 
L -421.899429 41.334946 
L -426.567771 41.334946 
L -431.237486 41.334946 
L -435.905829 41.334946 
L -440.575543 41.334946 
L -445.243886 41.334946 
L -449.9136 41.334946 
L -454.581943 41.334946 
L -459.251657 41.334946 
L -463.921371 41.334946 
L -468.589714 41.334946 
L -473.259429 41.334946 
L -477.927771 41.334946 
L -482.597486 41.334946 
L -487.265829 41.336335 
L -491.935543 41.371064 
L -496.603886 41.887838 
L -501.2736 46.634654 
L -505.941943 73.674974 
L -510.611657 169.476751 
L -515.28 380.712147 
L -519.949714 670.783307 
L -524.618057 918.888308 
L -529.287771 1050.870741 
L -533.956114 1093.848666 
L -538.625829 1100.415304 
L -543.294171 1100.409747 
L -547.963886 1100.363904 
L -552.632229 1098.91916 
L -557.301943 1090.320158 
L -561.970286 1072.560926 
L -566.64 1041.833593 
L -571.309714 995.571794 
L -575.978057 934.892982 
L -580.647771 865.551961 
L -585.316114 796.514613 
L -589.985829 736.630272 
L -594.654171 691.372292 
L -599.323886 661.574456 
L -603.992229 644.48064 
L -608.661943 635.938594 
L -613.330286 632.218379 
L -618 630.818089 
L -618 630.795863 
L -618 630.795863 
L -613.330286 630.797252 
L -608.661943 630.797252 
L -603.992229 631.304301 
L -599.323886 633.586718 
L -594.654171 639.219829 
L -589.985829 651.332058 
L -585.316114 674.020088 
L -580.647771 711.047198 
L -575.978057 763.692819 
L -571.309714 828.907569 
L -566.64 899.290056 
L -561.970286 965.469868 
L -557.301943 1019.685675 
L -552.632229 1058.381602 
L -547.963886 1082.43936 
L -543.294171 1078.885847 
L -538.625829 996.619372 
L -533.956114 801.947127 
L -529.287771 516.398569 
L -524.618057 255.586244 
L -519.949714 107.201359 
L -515.28 54.641867 
L -510.611657 43.061692 
L -505.941943 41.476642 
L -501.2736 41.341892 
L -496.603886 41.334946 
L -491.935543 41.334946 
L -487.265829 41.334946 
L -482.597486 41.334946 
L -477.927771 41.334946 
L -473.259429 41.334946 
L -468.589714 41.334946 
L -463.921371 41.334946 
L -459.251657 41.334946 
L -454.581943 41.334946 
L -449.9136 41.334946 
L -445.243886 41.334946 
L -440.575543 41.334946 
L -435.905829 41.334946 
L -431.237486 41.334946 
L -426.567771 41.334946 
L -421.899429 41.334946 
L -417.229714 41.334946 
L -412.561371 41.334946 
L -407.891657 41.334946 
L -403.223314 41.334946 
L -398.5536 41.334946 
L -393.885257 41.334946 
L -389.215543 41.334946 
L -384.5472 41.334946 
L -379.877486 41.334946 
L -375.209143 41.334946 
L -370.539429 41.334946 
L -365.871086 41.334946 
L -361.201371 41.334946 
L -356.533029 41.334946 
L -351.863314 41.334946 
L -347.1936 41.334946 
L -342.525257 41.334946 
L -337.855543 41.334946 
L -333.1872 41.334946 
L -328.517486 41.334946 
L -323.849143 41.334946 
L -319.179429 41.334946 
L -314.511086 41.334946 
L -309.841371 41.334946 
L -305.173029 41.334946 
L -300.503314 41.334946 
L -295.834971 41.334946 
L -291.165257 41.334946 
L -286.496914 41.334946 
L -281.8272 41.334946 
L -277.158857 41.334946 
L -272.489143 41.334946 
L -267.8208 41.334946 
L -263.151086 41.334946 
L -258.482743 41.334946 
L -253.813029 41.334946 
L -249.143314 41.334946 
L -244.474971 41.334946 
L -239.805257 41.334946 
L -235.136914 41.334946 
L -230.4672 41.334946 
L -225.798857 41.334946 
L -221.129143 41.334946 
L -216.4608 41.334946 
L -211.791086 41.334946 
L -207.122743 41.334946 
L -202.453029 41.334946 
L -197.784686 41.334946 
L -193.114971 41.334946 
L -188.446629 41.334946 
L -183.776914 41.334946 
L -179.108571 41.334946 
L -174.438857 41.334946 
L -169.770514 41.334946 
L -165.1008 41.334946 
L -160.432457 41.334946 
L -155.762743 41.334946 
L -151.0944 41.334946 
L -146.424686 41.334946 
L -141.754971 41.334946 
L -137.086629 41.334946 
L -132.416914 41.334946 
L -127.748571 41.334946 
L -123.078857 41.334946 
L -118.410514 41.334946 
L -113.7408 41.334946 
L -109.072457 41.334946 
L -104.402743 41.334946 
L -99.7344 41.334946 
L -95.064686 41.334946 
L -90.396343 41.334946 
L -85.726629 41.334946 
L -81.058286 41.334946 
L -76.388571 41.334946 
L -71.720229 41.334946 
L -67.050514 41.334946 
L -62.382171 41.334946 
L -57.712457 41.334946 
L -53.044114 41.334946 
L -48.3744 41.334946 
L -43.704686 41.334946 
L -39.036343 41.334946 
L -34.366629 41.334946 
L -29.698286 41.334946 
L -25.028571 41.334946 
L -20.360229 41.334946 
L -15.690514 41.334946 
L -11.022171 41.334946 
L -6.352457 41.334946 
L -1.684114 41.334946 
L 2.9856 41.334946 
L 7.653943 41.334946 
L 12.323657 41.334946 
L 16.992 41.334946 
L 21.661714 41.334946 
L 26.330057 41.334946 
L 30.999771 41.334946 
L 35.668114 41.334946 
L 40.337829 41.334946 
L 45.006171 41.334946 
L 49.675886 41.334946 
L 54.344229 41.334946 
L 59.013943 41.334946 
L 63.683657 41.334946 
L 68.352 41.334946 
L 73.021714 41.334946 
L 77.690057 41.334946 
L 82.359771 41.336335 
L 87.028114 41.340503 
L 91.697829 41.348838 
L 96.366446 41.372454 
L 101.035474 41.425242 
L 105.704503 41.543322 
L 110.373669 41.787817 
L 115.042697 42.264305 
L 119.711726 42.988066 
L 124.380754 44.166088 
L 129.04992 46.015081 
L 133.718949 48.796213 
L 138.387977 52.8151 
L 143.057006 58.389865 
L 147.726034 65.809457 
L 152.3952 75.272527 
L 157.064229 86.83881 
L 161.733257 98.688486 
L 166.402286 110.01722 
L 171.071451 121.811328 
L 175.74048 133.677673 
L 180.409509 145.212006 
L 185.078537 156.892201 
L 189.747566 168.300119 
L 194.416731 175.440486 
L 199.08576 180.095616 
L 203.754789 177.859042 
L 208.423817 173.235863 
L 213.092983 167.594417 
L 217.761984 161.169476 
L 222.43104 154.222204 
L 227.100096 147.031827 
L 231.769166 139.320508 
L 236.438222 130.193619 
L 241.107278 122.417009 
L 245.77632 115.611433 
L 250.445349 109.032294 
L 255.114514 105.224561 
L 259.783543 102.950479 
L 264.452571 101.689107 
L 269.1216 101.044529 
L 273.790766 100.647224 
L 278.459794 100.619441 
L 283.128823 100.619441 
L 287.797851 100.612495 
L 292.46688 100.612495 
L 297.136046 100.611106 
L 301.805074 100.60416 
L 306.474103 100.60416 
L 311.143131 100.602771 
z
" clip-path="url(#p7cb799fa90)" style="fill: #2a788e; fill-opacity: 0.2; stroke: #2a788e; stroke-opacity: 0.2"/>
   </g>
   <g id="PolyCollection_4">
    <path d="M 370.1136 100.549982 
L 370.1136 100.680565 
L 365.148206 100.680565 
L 360.182811 100.680565 
L 355.217417 100.718072 
L 350.252023 100.733353 
L 345.286629 100.752802 
L 340.321234 100.781975 
L 335.35584 100.901444 
L 330.390446 101.119544 
L 325.425051 101.43072 
L 320.459657 101.868311 
L 315.494263 102.468435 
L 310.528869 103.275546 
L 305.563474 104.335488 
L 300.59808 105.926095 
L 295.632686 108.51552 
L 290.667291 111.950953 
L 285.701897 116.300465 
L 280.736503 120.895861 
L 275.771109 124.260446 
L 270.805714 129.899113 
L 265.84032 136.308774 
L 260.874926 142.97821 
L 255.90949 149.618473 
L 250.944096 158.438355 
L 245.978695 166.253862 
L 241.013294 173.109448 
L 236.047899 177.436732 
L 231.08256 179.384358 
L 226.117166 181.04998 
L 221.151771 182.155765 
L 216.18624 181.395885 
L 211.220846 178.618921 
L 206.255451 175.06263 
L 201.290057 170.072708 
L 196.324663 167.987554 
L 191.359269 164.785502 
L 186.393874 161.223654 
L 181.42848 155.833649 
L 176.463086 148.614099 
L 171.497691 141.30842 
L 166.532297 135.455819 
L 161.566903 127.765338 
L 156.601509 119.385826 
L 151.636114 110.568723 
L 146.67072 101.593254 
L 141.705326 92.746978 
L 136.739931 84.293839 
L 131.774537 76.463051 
L 126.809143 69.732491 
L 121.843749 64.097992 
L 116.878354 59.22476 
L 111.91296 55.111409 
L 106.948114 51.727375 
L 101.982171 49.011535 
L 97.016229 46.884706 
L 92.051657 45.262148 
L 87.085714 44.052175 
L 82.121143 43.174216 
L 77.1552 42.5602 
L 72.189257 42.143447 
L 67.224686 41.857276 
L 62.258743 41.66557 
L 57.294171 41.539155 
L 52.328229 41.458583 
L 47.362286 41.408572 
L 42.397714 41.37801 
L 37.431771 41.358562 
L 32.4672 41.348838 
L 27.501257 41.341892 
L 22.535314 41.339113 
L 17.570743 41.336335 
L 12.6048 41.336335 
L 7.640229 41.334946 
L 2.674286 41.334946 
L -2.291657 41.334946 
L -7.256229 41.334946 
L -12.222171 41.334946 
L -17.186743 41.334946 
L -22.152686 41.334946 
L -27.118629 41.334946 
L -32.0832 41.334946 
L -37.049143 41.334946 
L -42.015086 41.334946 
L -46.979657 41.334946 
L -51.9456 41.334946 
L -56.910171 41.334946 
L -61.876114 41.334946 
L -66.842057 41.334946 
L -71.806629 41.334946 
L -76.772571 41.334946 
L -81.737143 41.334946 
L -86.703086 41.334946 
L -91.669029 41.334946 
L -96.6336 41.334946 
L -101.599543 41.334946 
L -106.564114 41.334946 
L -111.530057 41.334946 
L -116.496 41.334946 
L -121.460571 41.334946 
L -126.426514 41.334946 
L -131.391086 41.334946 
L -136.357029 41.334946 
L -141.322971 41.334946 
L -146.287543 41.334946 
L -151.253486 41.334946 
L -156.218057 41.334946 
L -161.184 41.334946 
L -166.149943 41.334946 
L -171.114514 41.334946 
L -176.080457 41.334946 
L -181.045029 41.334946 
L -186.010971 41.334946 
L -190.976914 41.334946 
L -195.941486 41.334946 
L -200.907429 41.334946 
L -205.872 41.334946 
L -210.837943 41.334946 
L -215.803886 41.334946 
L -220.768457 41.334946 
L -225.7344 41.334946 
L -230.698971 41.334946 
L -235.664914 41.334946 
L -240.630857 41.334946 
L -245.595429 41.334946 
L -250.561371 41.334946 
L -255.525943 41.334946 
L -260.491886 41.334946 
L -265.457829 41.334946 
L -270.4224 41.334946 
L -275.388343 41.334946 
L -280.352914 41.334946 
L -285.318857 41.334946 
L -290.2848 41.334946 
L -295.249371 41.334946 
L -300.215314 41.334946 
L -305.179886 41.334946 
L -310.145829 41.334946 
L -315.111771 41.334946 
L -320.076343 41.334946 
L -325.042286 41.334946 
L -330.006857 41.334946 
L -334.9728 41.334946 
L -339.938743 41.334946 
L -344.903314 41.334946 
L -349.869257 41.334946 
L -354.833829 41.334946 
L -359.799771 41.334946 
L -364.765714 41.334946 
L -369.730286 41.334946 
L -374.696229 41.334946 
L -379.662171 41.334946 
L -384.626743 41.334946 
L -389.592686 41.334946 
L -394.557257 41.334946 
L -399.5232 41.334946 
L -404.489143 41.334946 
L -409.453714 41.334946 
L -414.419657 41.334946 
L -419.384229 41.334946 
L -424.350171 41.334946 
L -429.316114 41.334946 
L -434.280686 41.334946 
L -439.246629 41.334946 
L -444.2112 41.334946 
L -449.177143 41.334946 
L -454.143086 41.334946 
L -459.107657 41.334946 
L -464.0736 41.334946 
L -469.038171 41.334946 
L -474.004114 41.334946 
L -478.970057 41.334946 
L -483.934629 41.334946 
L -488.900571 41.340503 
L -493.865143 41.455804 
L -498.831086 43.079752 
L -503.797029 56.381116 
L -508.7616 120.077636 
L -513.727543 298.836864 
L -518.692114 593.246423 
L -523.658057 877.952445 
L -528.624 1039.426706 
L -533.588571 1092.456712 
L -538.554514 1100.412525 
L -543.519086 1100.408358 
L -548.485029 1100.406968 
L -553.450971 1097.903672 
L -558.415543 1086.94307 
L -563.381486 1064.610669 
L -568.346057 1026.442907 
L -573.312 970.63552 
L -578.277943 900.802731 
L -583.242514 826.01586 
L -588.208457 757.46653 
L -593.173029 703.691509 
L -598.138971 667.588201 
L -603.104914 646.843629 
L -608.069486 636.641517 
L -613.035429 632.348962 
L -618 630.818089 
L -618 630.795863 
L -618 630.795863 
L -613.035429 630.795863 
L -608.069486 630.795863 
L -603.104914 631.573801 
L -598.138971 634.570255 
L -593.173029 642.112094 
L -588.208457 658.359902 
L -583.242514 688.313325 
L -578.277943 735.568941 
L -573.312 799.377845 
L -568.346057 873.119916 
L -563.381486 946.056265 
L -558.415543 1007.797519 
L -553.450971 1052.529001 
L -548.485029 1080.26252 
L -543.519086 1081.118253 
L -538.554514 995.553734 
L -533.588571 783.564988 
L -528.624 476.85844 
L -523.658057 216.378127 
L -518.692114 86.510965 
L -513.727543 48.532269 
L -508.7616 42.025367 
L -503.797029 41.373843 
L -498.831086 41.336335 
L -493.865143 41.334946 
L -488.900571 41.334946 
L -483.934629 41.334946 
L -478.970057 41.334946 
L -474.004114 41.334946 
L -469.038171 41.334946 
L -464.0736 41.334946 
L -459.107657 41.334946 
L -454.143086 41.334946 
L -449.177143 41.334946 
L -444.2112 41.334946 
L -439.246629 41.334946 
L -434.280686 41.334946 
L -429.316114 41.334946 
L -424.350171 41.334946 
L -419.384229 41.334946 
L -414.419657 41.334946 
L -409.453714 41.334946 
L -404.489143 41.334946 
L -399.5232 41.334946 
L -394.557257 41.334946 
L -389.592686 41.334946 
L -384.626743 41.334946 
L -379.662171 41.334946 
L -374.696229 41.334946 
L -369.730286 41.334946 
L -364.765714 41.334946 
L -359.799771 41.334946 
L -354.833829 41.334946 
L -349.869257 41.334946 
L -344.903314 41.334946 
L -339.938743 41.334946 
L -334.9728 41.334946 
L -330.006857 41.334946 
L -325.042286 41.334946 
L -320.076343 41.334946 
L -315.111771 41.334946 
L -310.145829 41.334946 
L -305.179886 41.334946 
L -300.215314 41.334946 
L -295.249371 41.334946 
L -290.2848 41.334946 
L -285.318857 41.334946 
L -280.352914 41.334946 
L -275.388343 41.334946 
L -270.4224 41.334946 
L -265.457829 41.334946 
L -260.491886 41.334946 
L -255.525943 41.334946 
L -250.561371 41.334946 
L -245.595429 41.334946 
L -240.630857 41.334946 
L -235.664914 41.334946 
L -230.698971 41.334946 
L -225.7344 41.334946 
L -220.768457 41.334946 
L -215.803886 41.334946 
L -210.837943 41.334946 
L -205.872 41.334946 
L -200.907429 41.334946 
L -195.941486 41.334946 
L -190.976914 41.334946 
L -186.010971 41.334946 
L -181.045029 41.334946 
L -176.080457 41.334946 
L -171.114514 41.334946 
L -166.149943 41.334946 
L -161.184 41.334946 
L -156.218057 41.334946 
L -151.253486 41.334946 
L -146.287543 41.334946 
L -141.322971 41.334946 
L -136.357029 41.334946 
L -131.391086 41.334946 
L -126.426514 41.334946 
L -121.460571 41.334946 
L -116.496 41.334946 
L -111.530057 41.334946 
L -106.564114 41.334946 
L -101.599543 41.334946 
L -96.6336 41.334946 
L -91.669029 41.334946 
L -86.703086 41.334946 
L -81.737143 41.334946 
L -76.772571 41.334946 
L -71.806629 41.334946 
L -66.842057 41.334946 
L -61.876114 41.334946 
L -56.910171 41.334946 
L -51.9456 41.334946 
L -46.979657 41.334946 
L -42.015086 41.334946 
L -37.049143 41.334946 
L -32.0832 41.334946 
L -27.118629 41.334946 
L -22.152686 41.334946 
L -17.186743 41.334946 
L -12.222171 41.334946 
L -7.256229 41.334946 
L -2.291657 41.334946 
L 2.674286 41.334946 
L 7.640229 41.334946 
L 12.6048 41.334946 
L 17.570743 41.334946 
L 22.535314 41.334946 
L 27.501257 41.334946 
L 32.4672 41.334946 
L 37.431771 41.334946 
L 42.397714 41.334946 
L 47.362286 41.334946 
L 52.328229 41.334946 
L 57.294171 41.334946 
L 62.258743 41.334946 
L 67.224686 41.334946 
L 72.189257 41.334946 
L 77.1552 41.334946 
L 82.121143 41.336335 
L 87.085714 41.340503 
L 92.051657 41.348838 
L 97.016229 41.369675 
L 101.982171 41.419686 
L 106.948114 41.519706 
L 111.91296 41.675294 
L 116.878354 41.944794 
L 121.843749 42.394888 
L 126.809143 43.124205 
L 131.774537 44.264719 
L 136.739931 45.987298 
L 141.705326 48.568388 
L 146.67072 52.762312 
L 151.636114 58.562123 
L 156.601509 66.145638 
L 161.566903 75.518411 
L 166.532297 85.230144 
L 171.497691 95.094686 
L 176.463086 105.710773 
L 181.42848 116.770007 
L 186.393874 127.229116 
L 191.359269 134.658432 
L 196.324663 141.044476 
L 201.290057 146.463654 
L 206.255451 150.51866 
L 211.220846 149.605971 
L 216.18624 148.182065 
L 221.151771 147.004043 
L 226.117166 146.346963 
L 231.08256 145.15366 
L 236.047899 141.083373 
L 241.013294 136.850552 
L 245.978695 132.5705 
L 250.944096 128.355738 
L 255.90949 124.3049 
L 260.874926 119.455285 
L 265.84032 110.753483 
L 270.805714 104.410504 
L 275.771109 101.652988 
L 280.736503 100.748634 
L 285.701897 100.558317 
L 290.667291 100.558317 
L 295.632686 100.558317 
L 300.59808 100.558317 
L 305.563474 100.558317 
L 310.528869 100.558317 
L 315.494263 100.558317 
L 320.459657 100.558317 
L 325.425051 100.558317 
L 330.390446 100.558317 
L 335.35584 100.558317 
L 340.321234 100.558317 
L 345.286629 100.558317 
L 350.252023 100.558317 
L 355.217417 100.558317 
L 360.182811 100.558317 
L 365.148206 100.558317 
L 370.1136 100.549982 
z
" clip-path="url(#p7cb799fa90)" style="fill: #3bbb75; fill-opacity: 0.2; stroke: #3bbb75; stroke-opacity: 0.2"/>
   </g>
   <g id="matplotlib.axis_1">
    <g id="xtick_1">
     <g id="line2d_1">
      <defs>
       <path id="m83f93eb2c9" d="M 0 0 
L 0 3.5 
" style="stroke: #000000; stroke-width: 0.8"/>
      </defs>
      <g>
       <use xlink:href="#m83f93eb2c9" x="67.714286" y="250.92" style="stroke: #000000; stroke-width: 0.8"/>
      </g>
     </g>
     <g id="text_1">
      <!-- 500 -->
      <g transform="translate(58.170536 265.518438) scale(0.1 -0.1)">
       <defs>
        <path id="DejaVuSans-35" d="M 691 4666 
L 3169 4666 
L 3169 4134 
L 1269 4134 
L 1269 2991 
Q 1406 3038 1543 3061 
Q 1681 3084 1819 3084 
Q 2600 3084 3056 2656 
Q 3513 2228 3513 1497 
Q 3513 744 3044 326 
Q 2575 -91 1722 -91 
Q 1428 -91 1123 -41 
Q 819 9 494 109 
L 494 744 
Q 775 591 1075 516 
Q 1375 441 1709 441 
Q 2250 441 2565 725 
Q 2881 1009 2881 1497 
Q 2881 1984 2565 2268 
Q 2250 2553 1709 2553 
Q 1456 2553 1204 2497 
Q 953 2441 691 2322 
L 691 4666 
z
" transform="scale(0.015625)"/>
        <path id="DejaVuSans-30" d="M 2034 4250 
Q 1547 4250 1301 3770 
Q 1056 3291 1056 2328 
Q 1056 1369 1301 889 
Q 1547 409 2034 409 
Q 2525 409 2770 889 
Q 3016 1369 3016 2328 
Q 3016 3291 2770 3770 
Q 2525 4250 2034 4250 
z
M 2034 4750 
Q 2819 4750 3233 4129 
Q 3647 3509 3647 2328 
Q 3647 1150 3233 529 
Q 2819 -91 2034 -91 
Q 1250 -91 836 529 
Q 422 1150 422 2328 
Q 422 3509 836 4129 
Q 1250 4750 2034 4750 
z
" transform="scale(0.015625)"/>
       </defs>
       <use xlink:href="#DejaVuSans-35"/>
       <use xlink:href="#DejaVuSans-30" x="63.623047"/>
       <use xlink:href="#DejaVuSans-30" x="127.246094"/>
      </g>
     </g>
    </g>
    <g id="xtick_2">
     <g id="line2d_2">
      <g>
       <use xlink:href="#m83f93eb2c9" x="102" y="250.92" style="stroke: #000000; stroke-width: 0.8"/>
      </g>
     </g>
     <g id="text_2">
      <!-- 525 -->
      <g transform="translate(92.45625 265.518438) scale(0.1 -0.1)">
       <defs>
        <path id="DejaVuSans-32" d="M 1228 531 
L 3431 531 
L 3431 0 
L 469 0 
L 469 531 
Q 828 903 1448 1529 
Q 2069 2156 2228 2338 
Q 2531 2678 2651 2914 
Q 2772 3150 2772 3378 
Q 2772 3750 2511 3984 
Q 2250 4219 1831 4219 
Q 1534 4219 1204 4116 
Q 875 4013 500 3803 
L 500 4441 
Q 881 4594 1212 4672 
Q 1544 4750 1819 4750 
Q 2544 4750 2975 4387 
Q 3406 4025 3406 3419 
Q 3406 3131 3298 2873 
Q 3191 2616 2906 2266 
Q 2828 2175 2409 1742 
Q 1991 1309 1228 531 
z
" transform="scale(0.015625)"/>
       </defs>
       <use xlink:href="#DejaVuSans-35"/>
       <use xlink:href="#DejaVuSans-32" x="63.623047"/>
       <use xlink:href="#DejaVuSans-35" x="127.246094"/>
      </g>
     </g>
    </g>
    <g id="xtick_3">
     <g id="line2d_3">
      <g>
       <use xlink:href="#m83f93eb2c9" x="136.285714" y="250.92" style="stroke: #000000; stroke-width: 0.8"/>
      </g>
     </g>
     <g id="text_3">
      <!-- 550 -->
      <g transform="translate(126.741964 265.518438) scale(0.1 -0.1)">
       <use xlink:href="#DejaVuSans-35"/>
       <use xlink:href="#DejaVuSans-35" x="63.623047"/>
       <use xlink:href="#DejaVuSans-30" x="127.246094"/>
      </g>
     </g>
    </g>
    <g id="xtick_4">
     <g id="line2d_4">
      <g>
       <use xlink:href="#m83f93eb2c9" x="170.571429" y="250.92" style="stroke: #000000; stroke-width: 0.8"/>
      </g>
     </g>
     <g id="text_4">
      <!-- 575 -->
      <g transform="translate(161.027679 265.518438) scale(0.1 -0.1)">
       <defs>
        <path id="DejaVuSans-37" d="M 525 4666 
L 3525 4666 
L 3525 4397 
L 1831 0 
L 1172 0 
L 2766 4134 
L 525 4134 
L 525 4666 
z
" transform="scale(0.015625)"/>
       </defs>
       <use xlink:href="#DejaVuSans-35"/>
       <use xlink:href="#DejaVuSans-37" x="63.623047"/>
       <use xlink:href="#DejaVuSans-35" x="127.246094"/>
      </g>
     </g>
    </g>
    <g id="xtick_5">
     <g id="line2d_5">
      <g>
       <use xlink:href="#m83f93eb2c9" x="204.857143" y="250.92" style="stroke: #000000; stroke-width: 0.8"/>
      </g>
     </g>
     <g id="text_5">
      <!-- 600 -->
      <g transform="translate(195.313393 265.518438) scale(0.1 -0.1)">
       <defs>
        <path id="DejaVuSans-36" d="M 2113 2584 
Q 1688 2584 1439 2293 
Q 1191 2003 1191 1497 
Q 1191 994 1439 701 
Q 1688 409 2113 409 
Q 2538 409 2786 701 
Q 3034 994 3034 1497 
Q 3034 2003 2786 2293 
Q 2538 2584 2113 2584 
z
M 3366 4563 
L 3366 3988 
Q 3128 4100 2886 4159 
Q 2644 4219 2406 4219 
Q 1781 4219 1451 3797 
Q 1122 3375 1075 2522 
Q 1259 2794 1537 2939 
Q 1816 3084 2150 3084 
Q 2853 3084 3261 2657 
Q 3669 2231 3669 1497 
Q 3669 778 3244 343 
Q 2819 -91 2113 -91 
Q 1303 -91 875 529 
Q 447 1150 447 2328 
Q 447 3434 972 4092 
Q 1497 4750 2381 4750 
Q 2619 4750 2861 4703 
Q 3103 4656 3366 4563 
z
" transform="scale(0.015625)"/>
       </defs>
       <use xlink:href="#DejaVuSans-36"/>
       <use xlink:href="#DejaVuSans-30" x="63.623047"/>
       <use xlink:href="#DejaVuSans-30" x="127.246094"/>
      </g>
     </g>
    </g>
    <g id="xtick_6">
     <g id="line2d_6">
      <g>
       <use xlink:href="#m83f93eb2c9" x="239.142857" y="250.92" style="stroke: #000000; stroke-width: 0.8"/>
      </g>
     </g>
     <g id="text_6">
      <!-- 625 -->
      <g transform="translate(229.599107 265.518438) scale(0.1 -0.1)">
       <use xlink:href="#DejaVuSans-36"/>
       <use xlink:href="#DejaVuSans-32" x="63.623047"/>
       <use xlink:href="#DejaVuSans-35" x="127.246094"/>
      </g>
     </g>
    </g>
    <g id="xtick_7">
     <g id="line2d_7">
      <g>
       <use xlink:href="#m83f93eb2c9" x="273.428571" y="250.92" style="stroke: #000000; stroke-width: 0.8"/>
      </g>
     </g>
     <g id="text_7">
      <!-- 650 -->
      <g transform="translate(263.884821 265.518438) scale(0.1 -0.1)">
       <use xlink:href="#DejaVuSans-36"/>
       <use xlink:href="#DejaVuSans-35" x="63.623047"/>
       <use xlink:href="#DejaVuSans-30" x="127.246094"/>
      </g>
     </g>
    </g>
    <g id="xtick_8">
     <g id="line2d_8">
      <g>
       <use xlink:href="#m83f93eb2c9" x="307.714286" y="250.92" style="stroke: #000000; stroke-width: 0.8"/>
      </g>
     </g>
     <g id="text_8">
      <!-- 675 -->
      <g transform="translate(298.170536 265.518438) scale(0.1 -0.1)">
       <use xlink:href="#DejaVuSans-36"/>
       <use xlink:href="#DejaVuSans-37" x="63.623047"/>
       <use xlink:href="#DejaVuSans-35" x="127.246094"/>
      </g>
     </g>
    </g>
    <g id="xtick_9">
     <g id="line2d_9">
      <g>
       <use xlink:href="#m83f93eb2c9" x="342" y="250.92" style="stroke: #000000; stroke-width: 0.8"/>
      </g>
     </g>
     <g id="text_9">
      <!-- 700 -->
      <g transform="translate(332.45625 265.518438) scale(0.1 -0.1)">
       <use xlink:href="#DejaVuSans-37"/>
       <use xlink:href="#DejaVuSans-30" x="63.623047"/>
       <use xlink:href="#DejaVuSans-30" x="127.246094"/>
      </g>
     </g>
    </g>
    <g id="text_10">
     <!-- z ($\AA$) -->
     <g transform="translate(180.675 284.528594) scale(0.15 -0.15)">
      <defs>
       <path id="DejaVuSans-7a" d="M 353 3500 
L 3084 3500 
L 3084 2975 
L 922 459 
L 3084 459 
L 3084 0 
L 275 0 
L 275 525 
L 2438 3041 
L 353 3041 
L 353 3500 
z
" transform="scale(0.015625)"/>
       <path id="DejaVuSans-20" transform="scale(0.015625)"/>
       <path id="DejaVuSans-28" d="M 1984 4856 
Q 1566 4138 1362 3434 
Q 1159 2731 1159 2009 
Q 1159 1288 1364 580 
Q 1569 -128 1984 -844 
L 1484 -844 
Q 1016 -109 783 600 
Q 550 1309 550 2009 
Q 550 2706 781 3412 
Q 1013 4119 1484 4856 
L 1984 4856 
z
" transform="scale(0.015625)"/>
       <path id="DejaVuSans-Oblique-c5" d="M 3188 5081 
Q 3188 5278 3048 5417 
Q 2909 5556 2713 5556 
Q 2513 5556 2377 5420 
Q 2241 5284 2241 5081 
Q 2241 4884 2377 4746 
Q 2513 4609 2713 4609 
Q 2909 4609 3048 4746 
Q 3188 4884 3188 5081 
z
M 2203 4397 
Q 2034 4513 1945 4689 
Q 1856 4866 1856 5081 
Q 1856 5438 2106 5689 
Q 2356 5941 2713 5941 
Q 3069 5941 3320 5689 
Q 3572 5438 3572 5081 
Q 3572 4834 3458 4643 
Q 3344 4453 3128 4341 
L 3938 0 
L 3278 0 
L 3084 1197 
L 984 1197 
L 325 0 
L -341 0 
L 2203 4397 
z
M 2584 4044 
L 1275 1722 
L 2988 1722 
L 2584 4044 
z
" transform="scale(0.015625)"/>
       <path id="DejaVuSans-29" d="M 513 4856 
L 1013 4856 
Q 1481 4119 1714 3412 
Q 1947 2706 1947 2009 
Q 1947 1309 1714 600 
Q 1481 -109 1013 -844 
L 513 -844 
Q 928 -128 1133 580 
Q 1338 1288 1338 2009 
Q 1338 2731 1133 3434 
Q 928 4138 513 4856 
z
" transform="scale(0.015625)"/>
      </defs>
      <use xlink:href="#DejaVuSans-7a" transform="translate(0 0.171875)"/>
      <use xlink:href="#DejaVuSans-20" transform="translate(52.490234 0.171875)"/>
      <use xlink:href="#DejaVuSans-28" transform="translate(84.277344 0.171875)"/>
      <use xlink:href="#DejaVuSans-Oblique-c5" transform="translate(123.291016 0.171875)"/>
      <use xlink:href="#DejaVuSans-29" transform="translate(191.699219 0.171875)"/>
     </g>
    </g>
   </g>
   <g id="matplotlib.axis_2">
    <g id="ytick_1">
     <g id="line2d_10">
      <defs>
       <path id="mf0845a5193" d="M 0 0 
L -3.5 0 
" style="stroke: #000000; stroke-width: 0.8"/>
      </defs>
      <g>
       <use xlink:href="#mf0845a5193" x="54" y="250.92" style="stroke: #000000; stroke-width: 0.8"/>
      </g>
     </g>
     <g id="text_11">
      <!-- 4.8 -->
      <g transform="translate(31.096875 254.719219) scale(0.1 -0.1)">
       <defs>
        <path id="DejaVuSans-34" d="M 2419 4116 
L 825 1625 
L 2419 1625 
L 2419 4116 
z
M 2253 4666 
L 3047 4666 
L 3047 1625 
L 3713 1625 
L 3713 1100 
L 3047 1100 
L 3047 0 
L 2419 0 
L 2419 1100 
L 313 1100 
L 313 1709 
L 2253 4666 
z
" transform="scale(0.015625)"/>
        <path id="DejaVuSans-2e" d="M 684 794 
L 1344 794 
L 1344 0 
L 684 0 
L 684 794 
z
" transform="scale(0.015625)"/>
        <path id="DejaVuSans-38" d="M 2034 2216 
Q 1584 2216 1326 1975 
Q 1069 1734 1069 1313 
Q 1069 891 1326 650 
Q 1584 409 2034 409 
Q 2484 409 2743 651 
Q 3003 894 3003 1313 
Q 3003 1734 2745 1975 
Q 2488 2216 2034 2216 
z
M 1403 2484 
Q 997 2584 770 2862 
Q 544 3141 544 3541 
Q 544 4100 942 4425 
Q 1341 4750 2034 4750 
Q 2731 4750 3128 4425 
Q 3525 4100 3525 3541 
Q 3525 3141 3298 2862 
Q 3072 2584 2669 2484 
Q 3125 2378 3379 2068 
Q 3634 1759 3634 1313 
Q 3634 634 3220 271 
Q 2806 -91 2034 -91 
Q 1263 -91 848 271 
Q 434 634 434 1313 
Q 434 1759 690 2068 
Q 947 2378 1403 2484 
z
M 1172 3481 
Q 1172 3119 1398 2916 
Q 1625 2713 2034 2713 
Q 2441 2713 2670 2916 
Q 2900 3119 2900 3481 
Q 2900 3844 2670 4047 
Q 2441 4250 2034 4250 
Q 1625 4250 1398 4047 
Q 1172 3844 1172 3481 
z
" transform="scale(0.015625)"/>
       </defs>
       <use xlink:href="#DejaVuSans-34"/>
       <use xlink:href="#DejaVuSans-2e" x="63.623047"/>
       <use xlink:href="#DejaVuSans-38" x="95.410156"/>
      </g>
     </g>
    </g>
    <g id="ytick_2">
     <g id="line2d_11">
      <g>
       <use xlink:href="#mf0845a5193" x="54" y="223.136471" style="stroke: #000000; stroke-width: 0.8"/>
      </g>
     </g>
     <g id="text_12">
      <!-- 5.0 -->
      <g transform="translate(31.096875 226.935689) scale(0.1 -0.1)">
       <use xlink:href="#DejaVuSans-35"/>
       <use xlink:href="#DejaVuSans-2e" x="63.623047"/>
       <use xlink:href="#DejaVuSans-30" x="95.410156"/>
      </g>
     </g>
    </g>
    <g id="ytick_3">
     <g id="line2d_12">
      <g>
       <use xlink:href="#mf0845a5193" x="54" y="195.352941" style="stroke: #000000; stroke-width: 0.8"/>
      </g>
     </g>
     <g id="text_13">
      <!-- 5.2 -->
      <g transform="translate(31.096875 199.15216) scale(0.1 -0.1)">
       <use xlink:href="#DejaVuSans-35"/>
       <use xlink:href="#DejaVuSans-2e" x="63.623047"/>
       <use xlink:href="#DejaVuSans-32" x="95.410156"/>
      </g>
     </g>
    </g>
    <g id="ytick_4">
     <g id="line2d_13">
      <g>
       <use xlink:href="#mf0845a5193" x="54" y="167.569412" style="stroke: #000000; stroke-width: 0.8"/>
      </g>
     </g>
     <g id="text_14">
      <!-- 5.4 -->
      <g transform="translate(31.096875 171.368631) scale(0.1 -0.1)">
       <use xlink:href="#DejaVuSans-35"/>
       <use xlink:href="#DejaVuSans-2e" x="63.623047"/>
       <use xlink:href="#DejaVuSans-34" x="95.410156"/>
      </g>
     </g>
    </g>
    <g id="ytick_5">
     <g id="line2d_14">
      <g>
       <use xlink:href="#mf0845a5193" x="54" y="139.785882" style="stroke: #000000; stroke-width: 0.8"/>
      </g>
     </g>
     <g id="text_15">
      <!-- 5.6 -->
      <g transform="translate(31.096875 143.585101) scale(0.1 -0.1)">
       <use xlink:href="#DejaVuSans-35"/>
       <use xlink:href="#DejaVuSans-2e" x="63.623047"/>
       <use xlink:href="#DejaVuSans-36" x="95.410156"/>
      </g>
     </g>
    </g>
    <g id="ytick_6">
     <g id="line2d_15">
      <g>
       <use xlink:href="#mf0845a5193" x="54" y="112.002353" style="stroke: #000000; stroke-width: 0.8"/>
      </g>
     </g>
     <g id="text_16">
      <!-- 5.8 -->
      <g transform="translate(31.096875 115.801572) scale(0.1 -0.1)">
       <use xlink:href="#DejaVuSans-35"/>
       <use xlink:href="#DejaVuSans-2e" x="63.623047"/>
       <use xlink:href="#DejaVuSans-38" x="95.410156"/>
      </g>
     </g>
    </g>
    <g id="ytick_7">
     <g id="line2d_16">
      <g>
       <use xlink:href="#mf0845a5193" x="54" y="84.218824" style="stroke: #000000; stroke-width: 0.8"/>
      </g>
     </g>
     <g id="text_17">
      <!-- 6.0 -->
      <g transform="translate(31.096875 88.018042) scale(0.1 -0.1)">
       <use xlink:href="#DejaVuSans-36"/>
       <use xlink:href="#DejaVuSans-2e" x="63.623047"/>
       <use xlink:href="#DejaVuSans-30" x="95.410156"/>
      </g>
     </g>
    </g>
    <g id="ytick_8">
     <g id="line2d_17">
      <g>
       <use xlink:href="#mf0845a5193" x="54" y="56.435294" style="stroke: #000000; stroke-width: 0.8"/>
      </g>
     </g>
     <g id="text_18">
      <!-- 6.2 -->
      <g transform="translate(31.096875 60.234513) scale(0.1 -0.1)">
       <use xlink:href="#DejaVuSans-36"/>
       <use xlink:href="#DejaVuSans-2e" x="63.623047"/>
       <use xlink:href="#DejaVuSans-32" x="95.410156"/>
      </g>
     </g>
    </g>
    <g id="ytick_9">
     <g id="line2d_18">
      <g>
       <use xlink:href="#mf0845a5193" x="54" y="28.651765" style="stroke: #000000; stroke-width: 0.8"/>
      </g>
     </g>
     <g id="text_19">
      <!-- 6.4 -->
      <g transform="translate(31.096875 32.450983) scale(0.1 -0.1)">
       <use xlink:href="#DejaVuSans-36"/>
       <use xlink:href="#DejaVuSans-2e" x="63.623047"/>
       <use xlink:href="#DejaVuSans-34" x="95.410156"/>
      </g>
     </g>
    </g>
    <g id="text_20">
     <!-- SLD ($10^{-6}/{\AA}^2$) -->
     <g transform="translate(23.977344 185.34) rotate(-90) scale(0.15 -0.15)">
      <defs>
       <path id="DejaVuSans-53" d="M 3425 4513 
L 3425 3897 
Q 3066 4069 2747 4153 
Q 2428 4238 2131 4238 
Q 1616 4238 1336 4038 
Q 1056 3838 1056 3469 
Q 1056 3159 1242 3001 
Q 1428 2844 1947 2747 
L 2328 2669 
Q 3034 2534 3370 2195 
Q 3706 1856 3706 1288 
Q 3706 609 3251 259 
Q 2797 -91 1919 -91 
Q 1588 -91 1214 -16 
Q 841 59 441 206 
L 441 856 
Q 825 641 1194 531 
Q 1563 422 1919 422 
Q 2459 422 2753 634 
Q 3047 847 3047 1241 
Q 3047 1584 2836 1778 
Q 2625 1972 2144 2069 
L 1759 2144 
Q 1053 2284 737 2584 
Q 422 2884 422 3419 
Q 422 4038 858 4394 
Q 1294 4750 2059 4750 
Q 2388 4750 2728 4690 
Q 3069 4631 3425 4513 
z
" transform="scale(0.015625)"/>
       <path id="DejaVuSans-4c" d="M 628 4666 
L 1259 4666 
L 1259 531 
L 3531 531 
L 3531 0 
L 628 0 
L 628 4666 
z
" transform="scale(0.015625)"/>
       <path id="DejaVuSans-44" d="M 1259 4147 
L 1259 519 
L 2022 519 
Q 2988 519 3436 956 
Q 3884 1394 3884 2338 
Q 3884 3275 3436 3711 
Q 2988 4147 2022 4147 
L 1259 4147 
z
M 628 4666 
L 1925 4666 
Q 3281 4666 3915 4102 
Q 4550 3538 4550 2338 
Q 4550 1131 3912 565 
Q 3275 0 1925 0 
L 628 0 
L 628 4666 
z
" transform="scale(0.015625)"/>
       <path id="DejaVuSans-31" d="M 794 531 
L 1825 531 
L 1825 4091 
L 703 3866 
L 703 4441 
L 1819 4666 
L 2450 4666 
L 2450 531 
L 3481 531 
L 3481 0 
L 794 0 
L 794 531 
z
" transform="scale(0.015625)"/>
       <path id="DejaVuSans-2212" d="M 678 2272 
L 4684 2272 
L 4684 1741 
L 678 1741 
L 678 2272 
z
" transform="scale(0.015625)"/>
       <path id="DejaVuSans-2f" d="M 1625 4666 
L 2156 4666 
L 531 -594 
L 0 -594 
L 1625 4666 
z
" transform="scale(0.015625)"/>
      </defs>
      <use xlink:href="#DejaVuSans-53" transform="translate(0 0.171875)"/>
      <use xlink:href="#DejaVuSans-4c" transform="translate(63.476562 0.171875)"/>
      <use xlink:href="#DejaVuSans-44" transform="translate(119.189453 0.171875)"/>
      <use xlink:href="#DejaVuSans-20" transform="translate(196.191406 0.171875)"/>
      <use xlink:href="#DejaVuSans-28" transform="translate(227.978516 0.171875)"/>
      <use xlink:href="#DejaVuSans-31" transform="translate(266.992188 0.171875)"/>
      <use xlink:href="#DejaVuSans-30" transform="translate(330.615234 0.171875)"/>
      <use xlink:href="#DejaVuSans-2212" transform="translate(395.195312 38.453125) scale(0.7)"/>
      <use xlink:href="#DejaVuSans-36" transform="translate(453.847656 38.453125) scale(0.7)"/>
      <use xlink:href="#DejaVuSans-2f" transform="translate(501.118164 0.171875)"/>
      <use xlink:href="#DejaVuSans-Oblique-c5" transform="translate(534.80957 0.171875)"/>
      <use xlink:href="#DejaVuSans-32" transform="translate(613.023607 38.453125) scale(0.7)"/>
      <use xlink:href="#DejaVuSans-29" transform="translate(660.294115 0.171875)"/>
     </g>
    </g>
   </g>
   <g id="line2d_19">
    <path d="M 224.879726 100.669451 
L 220.644069 100.940341 
L 216.408549 101.618259 
L 212.172891 103.056056 
L 207.937371 105.814961 
L 203.701851 110.614566 
L 199.466194 118.175853 
L 195.230633 128.958641 
L 190.995058 142.879578 
L 186.759483 159.1385 
L 182.523909 176.286494 
L 178.28832 192.552361 
L 174.052745 206.291317 
L 169.817143 216.333673 
L 165.581623 222.105702 
L 161.345966 223.514327 
L 157.110446 220.70819 
L 152.874926 213.901225 
L 148.639269 203.328203 
L 144.403749 189.323915 
L 140.168091 172.450978 
L 135.932571 153.57207 
L 127.461394 114.432023 
L 123.225874 96.588051 
L 118.990217 81.168192 
L 114.754697 68.661436 
L 110.51904 59.140021 
L 106.28352 52.335834 
L 102.047863 47.771 
L 97.812343 44.896794 
L 93.576823 43.196442 
L 89.341166 42.254581 
L 85.105646 41.762812 
L 80.869989 41.522485 
L 72.398811 41.365508 
L 42.750171 41.334946 
L -1 41.334946 
L -1 41.334946 
" clip-path="url(#p7cb799fa90)" style="fill: none; stroke: #440154; stroke-linecap: square"/>
   </g>
   <g id="line2d_20">
    <path d="M 256.697006 100.65417 
L 252.301577 100.725018 
L 247.906149 101.023691 
L 243.510583 101.61687 
L 239.115154 102.719876 
L 234.719726 104.631383 
L 230.324297 107.7223 
L 225.928731 112.389933 
L 221.533303 118.970462 
L 217.137874 127.629199 
L 212.742405 138.259177 
L 208.346949 150.422807 
L 199.556023 176.198976 
L 195.160553 187.887507 
L 190.765097 197.582569 
L 186.3696 204.63264 
L 181.974171 208.641803 
L 177.578743 209.433634 
L 173.183177 206.990072 
L 168.787749 201.39308 
L 164.39232 192.813527 
L 159.996891 181.533414 
L 155.601326 167.970884 
L 151.205897 152.71078 
L 138.019474 104.410504 
L 133.624046 90.076981 
L 129.228617 77.625792 
L 124.833189 67.329216 
L 120.437623 59.223371 
L 116.042194 53.149892 
L 111.646766 48.815661 
L 107.251337 45.873385 
L 102.855771 43.970214 
L 98.460343 42.799138 
L 94.064914 42.112885 
L 89.669486 41.729472 
L 80.878491 41.423853 
L 67.692069 41.341892 
L -1 41.334946 
L -1 41.334946 
" clip-path="url(#p7cb799fa90)" style="fill: none; stroke: #472a7a; stroke-linecap: square"/>
   </g>
   <g id="line2d_21">
    <path d="M 311.143131 100.623608 
L 297.136046 100.704181 
L 292.46688 100.89033 
L 287.797851 101.207063 
L 283.128823 101.725225 
L 278.459794 102.535115 
L 273.790766 103.756201 
L 269.1216 105.523234 
L 264.452571 107.982076 
L 259.783543 111.268868 
L 255.114514 115.489186 
L 250.445349 120.697208 
L 245.77632 126.865152 
L 241.107278 133.879104 
L 236.438222 141.52652 
L 227.100096 157.481212 
L 222.43104 165.041111 
L 217.761984 171.807789 
L 213.092983 177.428397 
L 208.423817 181.60704 
L 203.754789 184.114504 
L 199.08576 184.792422 
L 194.416731 183.550498 
L 189.747566 180.367895 
L 185.078537 175.287676 
L 180.409509 168.420977 
L 175.74048 159.952557 
L 171.071451 150.138025 
L 166.402286 139.302449 
L 147.726034 93.616602 
L 143.057006 83.524235 
L 138.387977 74.543209 
L 133.718949 66.811053 
L 129.04992 60.370831 
L 124.380754 55.178089 
L 119.711726 51.127251 
L 115.042697 48.071063 
L 110.373669 45.837267 
L 105.704503 44.257773 
L 101.035474 43.178383 
L 96.366446 42.462957 
L 91.697829 42.005918 
L 87.028114 41.721137 
L 77.690057 41.451637 
L 63.683657 41.350227 
L -1 41.334946 
L -1 41.334946 
" clip-path="url(#p7cb799fa90)" style="fill: none; stroke: #2a788e; stroke-linecap: square"/>
   </g>
   <g id="line2d_22">
    <path d="M 361 100.593047 
L 335.35584 100.615273 
L 325.425051 100.848655 
L 315.494263 101.398769 
L 310.528869 101.879424 
L 305.563474 102.56012 
L 300.59808 103.499204 
L 295.632686 104.760576 
L 290.667291 106.408139 
L 285.701897 108.500239 
L 280.736503 111.086886 
L 275.771109 114.195863 
L 270.805714 117.831337 
L 265.84032 121.961359 
L 260.874926 126.523415 
L 255.90949 131.411927 
L 241.013294 146.566453 
L 236.047899 151.184075 
L 231.08256 155.269643 
L 226.117166 158.646731 
L 221.151771 161.154195 
L 216.18624 162.657284 
L 211.220846 163.050421 
L 206.255451 162.259979 
L 201.290057 160.244284 
L 196.324663 157.003336 
L 191.359269 152.570473 
L 186.393874 147.024881 
L 181.42848 140.484638 
L 176.463086 133.106722 
L 171.497691 125.08006 
L 161.566903 107.97652 
L 156.601509 99.365015 
L 151.636114 91.016064 
L 146.67072 83.125542 
L 141.705326 75.854592 
L 136.739931 69.318517 
L 131.774537 63.588164 
L 126.809143 58.687149 
L 121.843749 54.596024 
L 116.878354 51.26339 
L 111.91296 48.61562 
L 106.948114 46.562417 
L 101.982171 45.009318 
L 97.016229 43.861858 
L 92.051657 43.035298 
L 87.085714 42.454622 
L 82.121143 42.055928 
L 72.189257 41.61417 
L 62.258743 41.433577 
L 42.397714 41.34467 
L -1 41.334946 
L -1 41.334946 
" clip-path="url(#p7cb799fa90)" style="fill: none; stroke: #3bbb75; stroke-linecap: square"/>
   </g>
   <g id="patch_3">
    <path d="M 54 250.92 
L 54 14.76 
" style="fill: none; stroke: #000000; stroke-width: 0.8; stroke-linejoin: miter; stroke-linecap: square"/>
   </g>
   <g id="patch_4">
    <path d="M 342 250.92 
L 342 14.76 
" style="fill: none; stroke: #000000; stroke-width: 0.8; stroke-linejoin: miter; stroke-linecap: square"/>
   </g>
   <g id="patch_5">
    <path d="M 54 250.92 
L 342 250.92 
" style="fill: none; stroke: #000000; stroke-width: 0.8; stroke-linejoin: miter; stroke-linecap: square"/>
   </g>
   <g id="patch_6">
    <path d="M 54 14.76 
L 342 14.76 
" style="fill: none; stroke: #000000; stroke-width: 0.8; stroke-linejoin: miter; stroke-linecap: square"/>
   </g>
   <g id="text_21">
    <!-- d-THF + LiBF$_4$ + EtOH -->
    <g transform="translate(142.85 8.76) scale(0.1 -0.1)">
     <defs>
      <path id="DejaVuSans-64" d="M 2906 2969 
L 2906 4863 
L 3481 4863 
L 3481 0 
L 2906 0 
L 2906 525 
Q 2725 213 2448 61 
Q 2172 -91 1784 -91 
Q 1150 -91 751 415 
Q 353 922 353 1747 
Q 353 2572 751 3078 
Q 1150 3584 1784 3584 
Q 2172 3584 2448 3432 
Q 2725 3281 2906 2969 
z
M 947 1747 
Q 947 1113 1208 752 
Q 1469 391 1925 391 
Q 2381 391 2643 752 
Q 2906 1113 2906 1747 
Q 2906 2381 2643 2742 
Q 2381 3103 1925 3103 
Q 1469 3103 1208 2742 
Q 947 2381 947 1747 
z
" transform="scale(0.015625)"/>
      <path id="DejaVuSans-2d" d="M 313 2009 
L 1997 2009 
L 1997 1497 
L 313 1497 
L 313 2009 
z
" transform="scale(0.015625)"/>
      <path id="DejaVuSans-54" d="M -19 4666 
L 3928 4666 
L 3928 4134 
L 2272 4134 
L 2272 0 
L 1638 0 
L 1638 4134 
L -19 4134 
L -19 4666 
z
" transform="scale(0.015625)"/>
      <path id="DejaVuSans-48" d="M 628 4666 
L 1259 4666 
L 1259 2753 
L 3553 2753 
L 3553 4666 
L 4184 4666 
L 4184 0 
L 3553 0 
L 3553 2222 
L 1259 2222 
L 1259 0 
L 628 0 
L 628 4666 
z
" transform="scale(0.015625)"/>
      <path id="DejaVuSans-46" d="M 628 4666 
L 3309 4666 
L 3309 4134 
L 1259 4134 
L 1259 2759 
L 3109 2759 
L 3109 2228 
L 1259 2228 
L 1259 0 
L 628 0 
L 628 4666 
z
" transform="scale(0.015625)"/>
      <path id="DejaVuSans-2b" d="M 2944 4013 
L 2944 2272 
L 4684 2272 
L 4684 1741 
L 2944 1741 
L 2944 0 
L 2419 0 
L 2419 1741 
L 678 1741 
L 678 2272 
L 2419 2272 
L 2419 4013 
L 2944 4013 
z
" transform="scale(0.015625)"/>
      <path id="DejaVuSans-69" d="M 603 3500 
L 1178 3500 
L 1178 0 
L 603 0 
L 603 3500 
z
M 603 4863 
L 1178 4863 
L 1178 4134 
L 603 4134 
L 603 4863 
z
" transform="scale(0.015625)"/>
      <path id="DejaVuSans-42" d="M 1259 2228 
L 1259 519 
L 2272 519 
Q 2781 519 3026 730 
Q 3272 941 3272 1375 
Q 3272 1813 3026 2020 
Q 2781 2228 2272 2228 
L 1259 2228 
z
M 1259 4147 
L 1259 2741 
L 2194 2741 
Q 2656 2741 2882 2914 
Q 3109 3088 3109 3444 
Q 3109 3797 2882 3972 
Q 2656 4147 2194 4147 
L 1259 4147 
z
M 628 4666 
L 2241 4666 
Q 2963 4666 3353 4366 
Q 3744 4066 3744 3513 
Q 3744 3084 3544 2831 
Q 3344 2578 2956 2516 
Q 3422 2416 3680 2098 
Q 3938 1781 3938 1306 
Q 3938 681 3513 340 
Q 3088 0 2303 0 
L 628 0 
L 628 4666 
z
" transform="scale(0.015625)"/>
      <path id="DejaVuSans-45" d="M 628 4666 
L 3578 4666 
L 3578 4134 
L 1259 4134 
L 1259 2753 
L 3481 2753 
L 3481 2222 
L 1259 2222 
L 1259 531 
L 3634 531 
L 3634 0 
L 628 0 
L 628 4666 
z
" transform="scale(0.015625)"/>
      <path id="DejaVuSans-74" d="M 1172 4494 
L 1172 3500 
L 2356 3500 
L 2356 3053 
L 1172 3053 
L 1172 1153 
Q 1172 725 1289 603 
Q 1406 481 1766 481 
L 2356 481 
L 2356 0 
L 1766 0 
Q 1100 0 847 248 
Q 594 497 594 1153 
L 594 3053 
L 172 3053 
L 172 3500 
L 594 3500 
L 594 4494 
L 1172 4494 
z
" transform="scale(0.015625)"/>
      <path id="DejaVuSans-4f" d="M 2522 4238 
Q 1834 4238 1429 3725 
Q 1025 3213 1025 2328 
Q 1025 1447 1429 934 
Q 1834 422 2522 422 
Q 3209 422 3611 934 
Q 4013 1447 4013 2328 
Q 4013 3213 3611 3725 
Q 3209 4238 2522 4238 
z
M 2522 4750 
Q 3503 4750 4090 4092 
Q 4678 3434 4678 2328 
Q 4678 1225 4090 567 
Q 3503 -91 2522 -91 
Q 1538 -91 948 565 
Q 359 1222 359 2328 
Q 359 3434 948 4092 
Q 1538 4750 2522 4750 
z
" transform="scale(0.015625)"/>
     </defs>
     <use xlink:href="#DejaVuSans-64" transform="translate(0 0.015625)"/>
     <use xlink:href="#DejaVuSans-2d" transform="translate(63.476562 0.015625)"/>
     <use xlink:href="#DejaVuSans-54" transform="translate(99.560547 0.015625)"/>
     <use xlink:href="#DejaVuSans-48" transform="translate(160.644531 0.015625)"/>
     <use xlink:href="#DejaVuSans-46" transform="translate(235.839844 0.015625)"/>
     <use xlink:href="#DejaVuSans-20" transform="translate(293.359375 0.015625)"/>
     <use xlink:href="#DejaVuSans-2b" transform="translate(325.146484 0.015625)"/>
     <use xlink:href="#DejaVuSans-20" transform="translate(408.935547 0.015625)"/>
     <use xlink:href="#DejaVuSans-4c" transform="translate(440.722656 0.015625)"/>
     <use xlink:href="#DejaVuSans-69" transform="translate(496.435547 0.015625)"/>
     <use xlink:href="#DejaVuSans-42" transform="translate(524.21875 0.015625)"/>
     <use xlink:href="#DejaVuSans-46" transform="translate(592.822266 0.015625)"/>
     <use xlink:href="#DejaVuSans-34" transform="translate(651.298828 -16.390625) scale(0.7)"/>
     <use xlink:href="#DejaVuSans-20" transform="translate(698.569336 0.015625)"/>
     <use xlink:href="#DejaVuSans-2b" transform="translate(730.356445 0.015625)"/>
     <use xlink:href="#DejaVuSans-20" transform="translate(814.145508 0.015625)"/>
     <use xlink:href="#DejaVuSans-45" transform="translate(845.932617 0.015625)"/>
     <use xlink:href="#DejaVuSans-74" transform="translate(909.116211 0.015625)"/>
     <use xlink:href="#DejaVuSans-4f" transform="translate(948.325195 0.015625)"/>
     <use xlink:href="#DejaVuSans-48" transform="translate(1027.036133 0.015625)"/>
    </g>
   </g>
  </g>
 </g>
 <defs>
  <clipPath id="p7cb799fa90">
   <rect x="54" y="14.76" width="288" height="236.16"/>
  </clipPath>
 </defs>
</svg>
